999
dxfrw 0.6.3
  0
SECTION
  2
HEADER
  9
$ACADVER
  1
AC1021
  9
$DWGCODEPAGE
  3
ANSI_1252
  9
$INSBASE
 10
0
 20
0
 30
0
  9
$EXTMIN
 10
1
 20
-86.07616481467991
 30
0
  9
$EXTMAX
 10
243.2400000000007
 20
-0.9999999999994227
 30
0
  9
$LIMMIN
 10
0
 20
0
  9
$LIMMAX
 10
12
 20
9
  9
$ORTHOMODE
 70
    0
  9
$REGENMODE
 70
    1
  9
$FILLMODE
 70
    1
  9
$QTEXTMODE
 70
    0
  9
$MIRRTEXT
 70
    0
  9
$LTSCALE
 40
1
  9
$ATTMODE
 70
    1
  9
$TEXTSIZE
 40
0.2
  9
$TRACEWID
 40
0.05
  9
$TEXTSTYLE
  7
STANDARD
  9
$CLAYER
  8
0
  9
$CELTYPE
  6
BYLAYER
  9
$CECOLOR
 62
  256
  9
$CELTSCALE
 40
1
  9
$DISPSILH
 70
    0
  9
$DIMSCALE
 40
1
  9
$DIMASZ
 40
2.5
  9
$DIMEXO
 40
0.625
  9
$DIMDLI
 40
5
  9
$DIMRND
 40
0
  9
$DIMDLE
 40
0
  9
$DIMEXE
 40
1.25
  9
$DIMTP
 40
0
  9
$DIMTM
 40
0
  9
$DIMTXT
 40
2.5
  9
$DIMCEN
 40
0.09
  9
$DIMTSZ
 40
0
  9
$DIMTOL
 70
    0
  9
$DIMLIM
 70
    0
  9
$DIMTIH
 70
    1
  9
$DIMTOH
 70
    1
  9
$DIMSE1
 70
    0
  9
$DIMSE2
 70
    0
  9
$DIMTAD
 70
    0
  9
$DIMZIN
 70
    8
  9
$DIMBLK
  1

  9
$DIMASO
 70
    1
  9
$DIMSHO
 70
    1
  9
$DIMPOST
  1

  9
$DIMAPOST
  1

  9
$DIMALT
 70
    0
  9
$DIMALTD
 70
    2
  9
$DIMALTF
 40
25.4
  9
$DIMLFAC
 40
1
  9
$DIMTOFL
 70
    0
  9
$DIMTVP
 40
0
  9
$DIMTIX
 70
    0
  9
$DIMSOXD
 70
    0
  9
$DIMSAH
 70
    0
  9
$DIMBLK1
  1

  9
$DIMBLK2
  1

  9
$DIMSTYLE
  2
STANDARD
  9
$DIMCLRD
 70
    0
  9
$DIMCLRE
 70
    0
  9
$DIMCLRT
 70
    0
  9
$DIMTFAC
 40
1
  9
$DIMGAP
 40
0.625
  9
$DIMJUST
 70
    0
  9
$DIMSD1
 70
    0
  9
$DIMSD2
 70
    0
  9
$DIMTOLJ
 70
    0
  9
$DIMTZIN
 70
    8
  9
$DIMALTZ
 70
    0
  9
$DIMALTTZ
 70
    0
  9
$DIMUPT
 70
    0
  9
$DIMDEC
 70
    4
  9
$DIMTDEC
 70
    2
  9
$DIMALTU
 70
    2
  9
$DIMALTTD
 70
    3
  9
$DIMTXSTY
  7
STANDARD
  9
$DIMAUNIT
 70
    0
  9
$DIMADEC
 70
    0
  9
$DIMALTRND
 40
0
  9
$DIMAZIN
 70
    0
  9
$DIMDSEP
 70
   44
  9
$DIMATFIT
 70
    3
  9
$DIMFRAC
 70
    0
  9
$DIMLDRBLK
  1
STANDARD
  9
$DIMLUNIT
 70
    2
  9
$DIMLWD
 70
   -2
  9
$DIMLWE
 70
   -2
  9
$DIMTMOVE
 70
    0
  9
$DIMFXL
 40
1
  9
$DIMFXLON
 70
    0
  9
$DIMJOGANG
 40
0.7854
  9
$DIMTFILL
 70
    0
  9
$DIMTFILLCLR
 70
    0
  9
$DIMARCSYM
 70
    0
  9
$DIMLTYPE
  6

  9
$DIMLTEX1
  6

  9
$DIMLTEX2
  6

  9
$LUNITS
 70
    2
  9
$LUPREC
 70
    4
  9
$SKETCHINC
 40
0.1
  9
$FILLETRAD
 40
0.5
  9
$AUNITS
 70
    0
  9
$AUPREC
 70
    0
  9
$MENU
  1
.
  9
$ELEVATION
 40
0
  9
$PELEVATION
 40
0
  9
$THICKNESS
 40
0
  9
$LIMCHECK
 70
    0
  9
$CHAMFERA
 40
0
  9
$CHAMFERB
 40
0
  9
$CHAMFERC
 40
0
  9
$CHAMFERD
 40
0
  9
$SKPOLY
 70
    0
  9
$USRTIMER
 70
    1
  9
$ANGBASE
 50
0
  9
$ANGDIR
 70
    0
  9
$PDMODE
 70
    0
  9
$PDSIZE
 40
0
  9
$PLINEWID
 40
0
  9
$SPLFRAME
 70
    0
  9
$SPLINETYPE
 70
    6
  9
$SPLINESEGS
 70
    8
  9
$HANDSEED
  5
20000
  9
$SURFTAB1
 70
    6
  9
$SURFTAB2
 70
    6
  9
$SURFTYPE
 70
    6
  9
$SURFU
 70
    6
  9
$SURFV
 70
    6
  9
$UCSBASE
  2

  9
$UCSNAME
  2

  9
$UCSORG
 10
0
 20
0
 30
0
  9
$UCSXDIR
 10
1
 20
0
 30
0
  9
$UCSYDIR
 10
0
 20
1
 30
0
  9
$UCSORTHOREF
  2

  9
$UCSORTHOVIEW
 70
    0
  9
$UCSORGTOP
 10
0
 20
0
 30
0
  9
$UCSORGBOTTOM
 10
0
 20
0
 30
0
  9
$UCSORGLEFT
 10
0
 20
0
 30
0
  9
$UCSORGRIGHT
 10
0
 20
0
 30
0
  9
$UCSORGFRONT
 10
0
 20
0
 30
0
  9
$UCSORGBACK
 10
0
 20
0
 30
0
  9
$PUCSBASE
  2

  9
$PUCSNAME
  2

  9
$PUCSORG
 10
0
 20
0
 30
0
  9
$PUCSXDIR
 10
1
 20
0
 30
0
  9
$PUCSYDIR
 10
0
 20
1
 30
0
  9
$PUCSORTHOREF
  2

  9
$PUCSORTHOVIEW
 70
    0
  9
$PUCSORGTOP
 10
0
 20
0
 30
0
  9
$PUCSORGBOTTOM
 10
0
 20
0
 30
0
  9
$PUCSORGLEFT
 10
0
 20
0
 30
0
  9
$PUCSORGRIGHT
 10
0
 20
0
 30
0
  9
$PUCSORGFRONT
 10
0
 20
0
 30
0
  9
$PUCSORGBACK
 10
0
 20
0
 30
0
  9
$USERI1
 70
    0
  9
$USERI2
 70
    0
  9
$USERI3
 70
    0
  9
$USERI4
 70
    0
  9
$USERI5
 70
    0
  9
$USERR1
 40
0
  9
$USERR2
 40
0
  9
$USERR3
 40
0
  9
$USERR4
 40
0
  9
$USERR5
 40
0
  9
$WORLDVIEW
 70
    1
  9
$SHADEDGE
 70
    3
  9
$SHADEDIF
 70
   70
  9
$TILEMODE
 70
    1
  9
$MAXACTVP
 70
   64
  9
$PINSBASE
 10
0
 20
0
 30
0
  9
$PLIMCHECK
 70
    0
  9
$PEXTMIN
 10
0
 20
0
 30
0
  9
$PEXTMAX
 10
0
 20
0
 30
0
  9
$GRIDMODE
 70
    1
  9
$SNAPSTYLE
 70
    0
  9
$PLIMMIN
 10
0
 20
0
  9
$PLIMMAX
 10
297
 20
210
  9
$UNITMODE
 70
    0
  9
$VISRETAIN
 70
    1
  9
$PLINEGEN
 70
    0
  9
$PSLTSCALE
 70
    1
  9
$TREEDEPTH
 70
 3020
  9
$CMLSTYLE
  2
Standard
  9
$CMLJUST
 70
    0
  9
$CMLSCALE
 40
20
  9
$PROXYGRAPHICS
 70
    1
  9
$MEASUREMENT
 70
    1
  9
$CELWEIGHT
370
   -1
  9
$ENDCAPS
280
    0
  9
$JOINSTYLE
280
    0
  9
$LWDISPLAY
290
    0
  9
$INSUNITS
 70
    4
  9
$HYPERLINKBASE
  1

  9
$STYLESHEET
  1

  9
$XEDIT
290
    1
  9
$CEPSNTYPE
380
    0
  9
$PSTYLEMODE
290
    1
  9
$EXTNAMES
290
    1
  9
$PSVPSCALE
 40
1
  9
$OLESTARTUP
290
    0
  9
$SORTENTS
280
  127
  9
$INDEXCTL
280
    0
  9
$HIDETEXT
280
    1
  9
$XCLIPFRAME
290
    0
  9
$HALOGAP
280
    0
  9
$OBSCOLOR
 70
  257
  9
$OBSLTYPE
280
    0
  9
$INTERSECTIONDISPLAY
280
    0
  9
$INTERSECTIONCOLOR
 70
  257
  9
$DIMASSOC
280
    1
  9
$PROJECTNAME
  1

  9
$CAMERADISPLAY
290
    0
  9
$LENSLENGTH
 40
50
  9
$CAMERAHEIGHT
 40
0
  9
$STEPSPERSEC
 40
2
  9
$STEPSIZE
 40
50
  9
$3DDWFPREC
 40
2
  9
$PSOLWIDTH
 40
5
  9
$PSOLHEIGHT
 40
80
  9
$LOFTANG1
 40
1.570796326794897
  9
$LOFTANG2
 40
1.570796326794897
  9
$LOFTMAG1
 40
0
  9
$LOFTMAG2
 40
0
  9
$LOFTPARAM
 70
    7
  9
$LOFTNORMALS
280
    1
  9
$LATITUDE
 40
1
  9
$LONGITUDE
 40
1
  9
$NORTHDIRECTION
 40
0
  9
$TIMEZONE
 70
-8000
  9
$LIGHTGLYPHDISPLAY
280
    1
  9
$TILEMODELIGHTSYNCH
280
    1
  9
$SOLIDHIST
280
    1
  9
$SHOWHIST
280
    1
  9
$DWFFRAME
280
    2
  9
$DGNFRAME
280
    0
  9
$REALWORLDSCALE
290
    1
  9
$INTERFERECOLOR
 62
    1
  9
$CSHADOW
280
    0
  9
$SHADOWPLANELOCATION
 40
0
  0
ENDSEC
  0
SECTION
  2
CLASSES
  0
ENDSEC
  0
SECTION
  2
TABLES
  0
TABLE
  2
VPORT
  5
8
330
0
100
AcDbSymbolTable
 70
    1
  0
VPORT
  5
31
330
2
100
AcDbSymbolTableRecord
100
AcDbViewportTableRecord
  2
*ACTIVE
 70
    0
 10
0
 20
0
 11
1
 21
1
 12
122.381666666667
 22
12.45895833333337
 13
0
 23
0
 14
10
 24
10
 15
10
 25
10
 16
0
 26
0
 36
1
 17
0
 27
0
 37
0
 40
136.7331250000004
 41
1.794694348327566
 42
50
 43
0
 44
0
 50
0
 51
0
 71
    0
 72
  100
 73
    1
 74
    3
 75
    0
 76
    1
 77
    0
 78
    0
281
    0
 65
    1
110
0
120
0
130
0
111
1
121
0
131
0
112
0
122
1
132
0
 79
    0
146
0
348
10020
 60
    7
 61
    5
292
1
282
    1
141
0
142
0
 63
  250
421
3358443
  0
ENDTAB
  0
TABLE
  2
LTYPE
  5
5
330
0
100
AcDbSymbolTable
 70
    4
  0
LTYPE
  5
14
330
5
100
AcDbSymbolTableRecord
100
AcDbLinetypeTableRecord
  2
ByBlock
 70
    0
  3

 72
   65
 73
    0
 40
0
  0
LTYPE
  5
15
330
5
100
AcDbSymbolTableRecord
100
AcDbLinetypeTableRecord
  2
ByLayer
 70
    0
  3

 72
   65
 73
    0
 40
0
  0
LTYPE
  5
16
330
5
100
AcDbSymbolTableRecord
100
AcDbLinetypeTableRecord
  2
Continuous
 70
    0
  3
Solid line
 72
   65
 73
    0
 40
0
  0
LTYPE
  5
32
330
5
100
AcDbSymbolTableRecord
100
AcDbLinetypeTableRecord
  2
DOT
 70
    0
  3
Dot . . . . . . . . . . . . . . . . . . . . . .
 72
   65
 73
    2
 40
6.35
 49
0
 74
    0
 49
-6.35
 74
    0
  0
LTYPE
  5
33
330
5
100
AcDbSymbolTableRecord
100
AcDbLinetypeTableRecord
  2
DOTTINY
 70
    0
  3
Dot (.15x) .....................................
 72
   65
 73
    2
 40
0.9525
 49
0
 74
    0
 49
-0.9525
 74
    0
  0
LTYPE
  5
34
330
5
100
AcDbSymbolTableRecord
100
AcDbLinetypeTableRecord
  2
DOT2
 70
    0
  3
Dot (.5x) .....................................
 72
   65
 73
    2
 40
3.175
 49
0
 74
    0
 49
-3.175
 74
    0
  0
LTYPE
  5
35
330
5
100
AcDbSymbolTableRecord
100
AcDbLinetypeTableRecord
  2
DOTX2
 70
    0
  3
Dot (2x) .  .  .  .  .  .  .  .  .  .  .  .  .
 72
   65
 73
    2
 40
12.7
 49
0
 74
    0
 49
-12.7
 74
    0
  0
LTYPE
  5
36
330
5
100
AcDbSymbolTableRecord
100
AcDbLinetypeTableRecord
  2
DASHED
 70
    0
  3
Dashed _ _ _ _ _ _ _ _ _ _ _ _ _ _ _ _ _
 72
   65
 73
    2
 40
19.05
 49
12.7
 74
    0
 49
-6.35
 74
    0
  0
LTYPE
  5
37
330
5
100
AcDbSymbolTableRecord
100
AcDbLinetypeTableRecord
  2
DASHEDTINY
 70
    0
  3
Dashed (.15x) _ _ _ _ _ _ _ _ _ _ _ _ _ _ _ _ _
 72
   65
 73
    2
 40
2.8575
 49
1.905
 74
    0
 49
-0.9525
 74
    0
  0
LTYPE
  5
38
330
5
100
AcDbSymbolTableRecord
100
AcDbLinetypeTableRecord
  2
DASHED2
 70
    0
  3
Dashed (.5x) _ _ _ _ _ _ _ _ _ _ _ _ _ _ _ _ _
 72
   65
 73
    2
 40
9.524999999999999
 49
6.35
 74
    0
 49
-3.175
 74
    0
  0
LTYPE
  5
39
330
5
100
AcDbSymbolTableRecord
100
AcDbLinetypeTableRecord
  2
DASHEDX2
 70
    0
  3
Dashed (2x) ____  ____  ____  ____  ____  ___
 72
   65
 73
    2
 40
38.09999999999999
 49
25.4
 74
    0
 49
-12.7
 74
    0
  0
LTYPE
  5
3A
330
5
100
AcDbSymbolTableRecord
100
AcDbLinetypeTableRecord
  2
DASHDOT
 70
    0
  3
Dash dot __ . __ . __ . __ . __ . __ . __ . __
 72
   65
 73
    4
 40
25.4
 49
12.7
 74
    0
 49
-6.35
 74
    0
 49
0
 74
    0
 49
-6.35
 74
    0
  0
LTYPE
  5
3B
330
5
100
AcDbSymbolTableRecord
100
AcDbLinetypeTableRecord
  2
DASHDOTTINY
 70
    0
  3
Dash dot (.15x) _._._._._._._._._._._._._._._.
 72
   65
 73
    4
 40
3.81
 49
1.905
 74
    0
 49
-0.9525
 74
    0
 49
0
 74
    0
 49
-0.9525
 74
    0
  0
LTYPE
  5
3C
330
5
100
AcDbSymbolTableRecord
100
AcDbLinetypeTableRecord
  2
DASHDOT2
 70
    0
  3
Dash dot (.5x) _._._._._._._._._._._._._._._.
 72
   65
 73
    4
 40
12.7
 49
6.35
 74
    0
 49
-3.175
 74
    0
 49
0
 74
    0
 49
-3.175
 74
    0
  0
LTYPE
  5
3D
330
5
100
AcDbSymbolTableRecord
100
AcDbLinetypeTableRecord
  2
DASHDOTX2
 70
    0
  3
Dash dot (2x) ____  .  ____  .  ____  .  ___
 72
   65
 73
    4
 40
50.8
 49
25.4
 74
    0
 49
-12.7
 74
    0
 49
0
 74
    0
 49
-12.7
 74
    0
  0
LTYPE
  5
3E
330
5
100
AcDbSymbolTableRecord
100
AcDbLinetypeTableRecord
  2
DIVIDE
 70
    0
  3
Divide ____ . . ____ . . ____ . . ____ . . ____
 72
   65
 73
    6
 40
31.75
 49
12.7
 74
    0
 49
-6.35
 74
    0
 49
0
 74
    0
 49
-6.35
 74
    0
 49
0
 74
    0
 49
-6.35
 74
    0
  0
LTYPE
  5
3F
330
5
100
AcDbSymbolTableRecord
100
AcDbLinetypeTableRecord
  2
DIVIDETINY
 70
    0
  3
Divide (.15x) __..__..__..__..__..__..__..__.._
 72
   65
 73
    6
 40
4.7625
 49
1.905
 74
    0
 49
-0.9525
 74
    0
 49
0
 74
    0
 49
-0.9525
 74
    0
 49
0
 74
    0
 49
-0.9525
 74
    0
  0
LTYPE
  5
40
330
5
100
AcDbSymbolTableRecord
100
AcDbLinetypeTableRecord
  2
DIVIDE2
 70
    0
  3
Divide (.5x) __..__..__..__..__..__..__..__.._
 72
   65
 73
    6
 40
15.875
 49
6.35
 74
    0
 49
-3.175
 74
    0
 49
0
 74
    0
 49
-3.175
 74
    0
 49
0
 74
    0
 49
-3.175
 74
    0
  0
LTYPE
  5
41
330
5
100
AcDbSymbolTableRecord
100
AcDbLinetypeTableRecord
  2
DIVIDEX2
 70
    0
  3
Divide (2x) ________  .  .  ________  .  .  _
 72
   65
 73
    6
 40
63.5
 49
25.4
 74
    0
 49
-12.7
 74
    0
 49
0
 74
    0
 49
-12.7
 74
    0
 49
0
 74
    0
 49
-12.7
 74
    0
  0
LTYPE
  5
42
330
5
100
AcDbSymbolTableRecord
100
AcDbLinetypeTableRecord
  2
BORDER
 70
    0
  3
Border __ __ . __ __ . __ __ . __ __ . __ __ .
 72
   65
 73
    6
 40
44.45
 49
12.7
 74
    0
 49
-6.35
 74
    0
 49
12.7
 74
    0
 49
-6.35
 74
    0
 49
0
 74
    0
 49
-6.35
 74
    0
  0
LTYPE
  5
43
330
5
100
AcDbSymbolTableRecord
100
AcDbLinetypeTableRecord
  2
BORDERTINY
 70
    0
  3
Border (.15x) __.__.__.__.__.__.__.__.__.__.__.
 72
   65
 73
    6
 40
6.6675
 49
1.905
 74
    0
 49
-0.9525
 74
    0
 49
1.905
 74
    0
 49
-0.9525
 74
    0
 49
0
 74
    0
 49
-0.9525
 74
    0
  0
LTYPE
  5
44
330
5
100
AcDbSymbolTableRecord
100
AcDbLinetypeTableRecord
  2
BORDER2
 70
    0
  3
Border (.5x) __.__.__.__.__.__.__.__.__.__.__.
 72
   65
 73
    6
 40
22.225
 49
6.35
 74
    0
 49
-3.175
 74
    0
 49
6.35
 74
    0
 49
-3.175
 74
    0
 49
0
 74
    0
 49
-3.175
 74
    0
  0
LTYPE
  5
45
330
5
100
AcDbSymbolTableRecord
100
AcDbLinetypeTableRecord
  2
BORDERX2
 70
    0
  3
Border (2x) ____  ____  .  ____  ____  .  ___
 72
   65
 73
    6
 40
88.89999999999999
 49
25.4
 74
    0
 49
-12.7
 74
    0
 49
25.4
 74
    0
 49
-12.7
 74
    0
 49
0
 74
    0
 49
-12.7
 74
    0
  0
LTYPE
  5
46
330
5
100
AcDbSymbolTableRecord
100
AcDbLinetypeTableRecord
  2
CENTER
 70
    0
  3
Center ____ _ ____ _ ____ _ ____ _ ____ _ ____
 72
   65
 73
    4
 40
50.8
 49
31.75
 74
    0
 49
-6.35
 74
    0
 49
6.35
 74
    0
 49
-6.35
 74
    0
  0
LTYPE
  5
47
330
5
100
AcDbSymbolTableRecord
100
AcDbLinetypeTableRecord
  2
CENTERTINY
 70
    0
  3
Center (.15x) ___ _ ___ _ ___ _ ___ _ ___ _ ___
 72
   65
 73
    4
 40
7.62
 49
4.7625
 74
    0
 49
-0.9525
 74
    0
 49
0.9525
 74
    0
 49
-0.9525
 74
    0
  0
LTYPE
  5
48
330
5
100
AcDbSymbolTableRecord
100
AcDbLinetypeTableRecord
  2
CENTER2
 70
    0
  3
Center (.5x) ___ _ ___ _ ___ _ ___ _ ___ _ ___
 72
   65
 73
    4
 40
28.575
 49
19.05
 74
    0
 49
-3.175
 74
    0
 49
3.175
 74
    0
 49
-3.175
 74
    0
  0
LTYPE
  5
49
330
5
100
AcDbSymbolTableRecord
100
AcDbLinetypeTableRecord
  2
CENTERX2
 70
    0
  3
Center (2x) ________  __  ________  __  _____
 72
   65
 73
    4
 40
101.6
 49
63.5
 74
    0
 49
-12.7
 74
    0
 49
12.7
 74
    0
 49
-12.7
 74
    0
  0
ENDTAB
  0
TABLE
  2
LAYER
  5
2
330
0
100
AcDbSymbolTable
 70
    1
  0
LAYER
  5
10
330
2
100
AcDbSymbolTableRecord
100
AcDbLayerTableRecord
  2
0
 70
    0
 62
  256
  6
CONTINUOUS
370
   -3
390
F
  0
ENDTAB
  0
TABLE
  2
STYLE
  5
3
330
0
100
AcDbSymbolTable
 70
    3
  0
STYLE
  5
4A
330
2
100
AcDbSymbolTableRecord
100
AcDbTextStyleTableRecord
  2
Standard
 70
    0
 40
0
 41
1
 50
0
 71
    0
 42
1
  3
txt
  4

  0
ENDTAB
  0
TABLE
  2
VIEW
  5
6
330
0
100
AcDbSymbolTable
 70
    0
  0
ENDTAB
  0
TABLE
  2
UCS
  5
7
330
0
100
AcDbSymbolTable
 70
    0
  0
ENDTAB
  0
TABLE
  2
APPID
  5
9
330
0
100
AcDbSymbolTable
 70
    1
  0
APPID
  5
12
330
9
100
AcDbSymbolTableRecord
100
AcDbRegAppTableRecord
  2
ACAD
 70
    0
  0
APPID
  5
4B
330
9
100
AcDbSymbolTableRecord
100
AcDbRegAppTableRecord
  2
LibreCad
 70
    0
  0
ENDTAB
  0
TABLE
  2
DIMSTYLE
  5
A
330
0
100
AcDbSymbolTable
 70
    1
100
AcDbDimStyleTable
 71
    1
  0
DIMSTYLE
105
4C
330
A
100
AcDbSymbolTableRecord
100
AcDbDimStyleTableRecord
  2
Standard
 70
    0
 40
1
 41
2.5
 42
0.625
 43
0.38
 44
1.25
 45
0
 46
0
 47
0
 48
0
 49
1
140
2.5
141
0.09
142
0
143
25.4
144
1
145
0
146
1
147
0.625
148
0
 71
    0
 72
    0
 73
    1
 74
    1
 75
    0
 76
    0
 77
    0
 78
    8
 79
    0
170
    0
171
    2
172
    0
173
    0
174
    0
175
    0
176
    0
177
    0
178
    0
179
    0
271
    4
272
    4
273
    2
274
    2
275
    0
276
    0
277
    2
278
    0
279
    0
280
    0
281
    0
282
    0
283
    1
284
    0
285
    0
286
    0
288
    0
289
    3
340
standard
341

371
   -2
372
   -2
  0
ENDTAB
  0
TABLE
  2
BLOCK_RECORD
  5
1
330
0
100
AcDbSymbolTable
 70
    2
  0
BLOCK_RECORD
  5
1F
330
1
100
AcDbSymbolTableRecord
100
AcDbBlockTableRecord
  2
*Model_Space
 70
    0
280
    1
281
    0
  0
BLOCK_RECORD
  5
1E
330
1
100
AcDbSymbolTableRecord
100
AcDbBlockTableRecord
  2
*Paper_Space
 70
    0
280
    1
281
    0
  0
BLOCK_RECORD
  5
4D
330
1
100
AcDbSymbolTableRecord
100
AcDbBlockTableRecord
  2
*D1
 70
    0
280
    1
281
    0
  0
BLOCK_RECORD
  5
50
330
1
100
AcDbSymbolTableRecord
100
AcDbBlockTableRecord
  2
*D4
 70
    0
280
    1
281
    0
  0
BLOCK_RECORD
  5
53
330
1
100
AcDbSymbolTableRecord
100
AcDbBlockTableRecord
  2
*D2
 70
    0
280
    1
281
    0
  0
BLOCK_RECORD
  5
56
330
1
100
AcDbSymbolTableRecord
100
AcDbBlockTableRecord
  2
*D3
 70
    0
280
    1
281
    0
  0
BLOCK_RECORD
  5
59
330
1
100
AcDbSymbolTableRecord
100
AcDbBlockTableRecord
  2
*D5
 70
    0
280
    1
281
    0
  0
ENDTAB
  0
ENDSEC
  0
SECTION
  2
BLOCKS
  0
BLOCK
  5
20
330
1F
100
AcDbEntity
  8
0
100
AcDbBlockBegin
  2
*Model_Space
 70
    0
 10
0
 20
0
 30
0
  3
*Model_Space
  1

  0
ENDBLK
  5
21
330
1F
100
AcDbEntity
  8
0
100
AcDbBlockEnd
  0
BLOCK
  5
1C
330
1B
100
AcDbEntity
  8
0
100
AcDbBlockBegin
  2
*Paper_Space
 70
    0
 10
0
 20
0
 30
0
  3
*Paper_Space
  1

  0
ENDBLK
  5
1D
330
1F
100
AcDbEntity
  8
0
100
AcDbBlockEnd
  0
BLOCK
  5
4E
330
4D
100
AcDbEntity
  8
0
100
AcDbBlockBegin
  2
*D1
 70
    0
 10
0
 20
0
  3
*D1
  1

  0
ENDBLK
  5
4F
330
4D
100
AcDbEntity
  8
0
100
AcDbBlockEnd
  0
BLOCK
  5
51
330
50
100
AcDbEntity
  8
0
100
AcDbBlockBegin
  2
*D4
 70
    0
 10
0
 20
0
  3
*D4
  1

  0
ENDBLK
  5
52
330
50
100
AcDbEntity
  8
0
100
AcDbBlockEnd
  0
BLOCK
  5
54
330
53
100
AcDbEntity
  8
0
100
AcDbBlockBegin
  2
*D2
 70
    0
 10
0
 20
0
  3
*D2
  1

  0
ENDBLK
  5
55
330
53
100
AcDbEntity
  8
0
100
AcDbBlockEnd
  0
BLOCK
  5
57
330
56
100
AcDbEntity
  8
0
100
AcDbBlockBegin
  2
*D3
 70
    0
 10
0
 20
0
  3
*D3
  1

  0
ENDBLK
  5
58
330
56
100
AcDbEntity
  8
0
100
AcDbBlockEnd
  0
BLOCK
  5
5A
330
59
100
AcDbEntity
  8
0
100
AcDbBlockBegin
  2
*D5
 70
    0
 10
0
 20
0
  3
*D5
  1

  0
ENDBLK
  5
5B
330
59
100
AcDbEntity
  8
0
100
AcDbBlockEnd
  0
ENDSEC
  0
SECTION
  2
ENTITIES
  0
CIRCLE
  5
5C
100
AcDbEntity
  8
0
  6
ByLayer
 62
  256
370
   -1
100
AcDbCircle
 10
5
 20
-5
 40
1.5
  0
CIRCLE
  5
5D
100
AcDbEntity
  8
0
  6
ByLayer
 62
  256
370
   -1
100
AcDbCircle
 10
20
 20
-5
 40
1.5
  0
CIRCLE
  5
5E
100
AcDbEntity
  8
0
  6
ByLayer
 62
  256
370
   -1
100
AcDbCircle
 10
136.04
 20
-5.000000000000107
 40
1.5
  0
CIRCLE
  5
5F
100
AcDbEntity
  8
0
  6
ByLayer
 62
  256
370
   -1
100
AcDbCircle
 10
151.04
 20
-5.000000000000107
 40
1.5
  0
CIRCLE
  5
60
100
AcDbEntity
  8
0
  6
ByLayer
 62
  256
370
   -1
100
AcDbCircle
 10
5
 20
-17
 40
1.5
  0
CIRCLE
  5
61
100
AcDbEntity
  8
0
  6
ByLayer
 62
  256
370
   -1
100
AcDbCircle
 10
20
 20
-17
 40
1.5
  0
CIRCLE
  5
62
100
AcDbEntity
  8
0
  6
ByLayer
 62
  256
370
   -1
100
AcDbCircle
 10
136.04
 20
-17.00000000000011
 40
1.5
  0
CIRCLE
  5
63
100
AcDbEntity
  8
0
  6
ByLayer
 62
  256
370
   -1
100
AcDbCircle
 10
151.04
 20
-17.00000000000011
 40
1.5
  0
LWPOLYLINE
  5
64
100
AcDbEntity
  8
0
  6
ByLayer
 62
  256
370
   -1
100
AcDbPolyline
 90
    5
 70
    0
 43
0
 10
5
 20
-1
 42
0.9999999999999999
 10
4.999999999999999
 20
-9
 10
151.0399999999998
 20
-9.000000000000085
 42
1.000000000000004
 10
151.0399999999998
 20
-1.000000000000127
 10
5
 20
-1
  0
LWPOLYLINE
  5
65
100
AcDbEntity
  8
0
  6
ByLayer
 62
  256
370
   -1
100
AcDbPolyline
 90
    5
 70
    0
 43
0
 10
5
 20
-13
 42
0.9999999999999999
 10
4.999999999999999
 20
-21
 10
151.0399999999998
 20
-21.00000000000009
 42
1.000000000000004
 10
151.0399999999998
 20
-13.00000000000013
 10
5
 20
-13
  0
CIRCLE
  5
66
100
AcDbEntity
  8
0
  6
ByLayer
 62
  256
370
   -1
100
AcDbCircle
 10
26.90748421950449
 20
-62
 40
2.5
  0
CIRCLE
  5
67
100
AcDbEntity
  8
0
  6
ByLayer
 62
  256
370
   -1
100
AcDbCircle
 10
88.99145960768337
 20
-62
 40
1.5
  0
CIRCLE
  5
68
100
AcDbEntity
  8
0
  6
ByLayer
 62
  256
370
   -1
100
AcDbCircle
 10
97.99999999999999
 20
-62
 40
1.5
  0
CIRCLE
  5
69
100
AcDbEntity
  8
0
  6
ByLayer
 62
  256
370
   -1
100
AcDbCircle
 10
32.2107850784036
 20
-67.30330085889911
 40
1.5
  0
CIRCLE
  5
6A
100
AcDbEntity
  8
0
  6
ByLayer
 62
  256
370
   -1
100
AcDbCircle
 10
21.60418336060539
 20
-67.30330085889911
 40
1.5
  0
CIRCLE
  5
6B
100
AcDbEntity
  8
0
  6
ByLayer
 62
  256
370
   -1
100
AcDbCircle
 10
14.17956215814664
 20
-62
 40
3
  0
CIRCLE
  5
6C
100
AcDbEntity
  8
0
  6
ByLayer
 62
  256
370
   -1
100
AcDbCircle
 10
21.60418336060539
 20
-56.69669914110089
 40
1.5
  0
CIRCLE
  5
6D
100
AcDbEntity
  8
0
  6
ByLayer
 62
  256
370
   -1
100
AcDbCircle
 10
32.2107850784036
 20
-56.69669914110089
 40
1.5
  0
CIRCLE
  5
6E
100
AcDbEntity
  8
0
  6
ByLayer
 62
  256
370
   -1
100
AcDbCircle
 10
116.2720779386421
 20
-75
 40
2.5
  0
CIRCLE
  5
6F
100
AcDbEntity
  8
0
  6
ByLayer
 62
  256
370
   -1
100
AcDbCircle
 10
54.18810255046327
 20
-75
 40
1.5
  0
CIRCLE
  5
70
100
AcDbEntity
  8
0
  6
ByLayer
 62
  256
370
   -1
100
AcDbCircle
 10
45.17956215814665
 20
-75
 40
1.5
  0
CIRCLE
  5
71
100
AcDbEntity
  8
0
  6
ByLayer
 62
  256
370
   -1
100
AcDbCircle
 10
110.968777079743
 20
-69.69669914110091
 40
1.5
  0
CIRCLE
  5
72
100
AcDbEntity
  8
0
  6
ByLayer
 62
  256
370
   -1
100
AcDbCircle
 10
121.5753787975412
 20
-69.69669914110091
 40
1.5
  0
CIRCLE
  5
73
100
AcDbEntity
  8
0
  6
ByLayer
 62
  256
370
   -1
100
AcDbCircle
 10
129
 20
-75
 40
3
  0
CIRCLE
  5
74
100
AcDbEntity
  8
0
  6
ByLayer
 62
  256
370
   -1
100
AcDbCircle
 10
121.5753787975412
 20
-80.30330085889912
 40
1.5
  0
CIRCLE
  5
75
100
AcDbEntity
  8
0
  6
ByLayer
 62
  256
370
   -1
100
AcDbCircle
 10
110.968777079743
 20
-80.30330085889912
 40
1.5
  0
CIRCLE
  5
76
100
AcDbEntity
  8
0
  6
ByLayer
 62
  256
370
   -1
100
AcDbCircle
 10
26.90748421950449
 20
-35.99999999999999
 40
2.5
  0
CIRCLE
  5
77
100
AcDbEntity
  8
0
  6
ByLayer
 62
  256
370
   -1
100
AcDbCircle
 10
88.99145960768337
 20
-35.99999999999999
 40
1.5
  0
CIRCLE
  5
78
100
AcDbEntity
  8
0
  6
ByLayer
 62
  256
370
   -1
100
AcDbCircle
 10
97.99999999999999
 20
-35.99999999999999
 40
1.5
  0
CIRCLE
  5
79
100
AcDbEntity
  8
0
  6
ByLayer
 62
  256
370
   -1
100
AcDbCircle
 10
32.2107850784036
 20
-41.3033008588991
 40
1.5
  0
CIRCLE
  5
7A
100
AcDbEntity
  8
0
  6
ByLayer
 62
  256
370
   -1
100
AcDbCircle
 10
21.60418336060539
 20
-41.3033008588991
 40
1.5
  0
CIRCLE
  5
7B
100
AcDbEntity
  8
0
  6
ByLayer
 62
  256
370
   -1
100
AcDbCircle
 10
14.17956215814664
 20
-35.99999999999999
 40
3
  0
CIRCLE
  5
7C
100
AcDbEntity
  8
0
  6
ByLayer
 62
  256
370
   -1
100
AcDbCircle
 10
21.60418336060539
 20
-30.69669914110089
 40
1.5
  0
CIRCLE
  5
7D
100
AcDbEntity
  8
0
  6
ByLayer
 62
  256
370
   -1
100
AcDbCircle
 10
32.2107850784036
 20
-30.69669914110089
 40
1.5
  0
CIRCLE
  5
7E
100
AcDbEntity
  8
0
  6
ByLayer
 62
  256
370
   -1
100
AcDbCircle
 10
116.2720779386421
 20
-49
 40
2.5
  0
CIRCLE
  5
7F
100
AcDbEntity
  8
0
  6
ByLayer
 62
  256
370
   -1
100
AcDbCircle
 10
54.18810255046327
 20
-48.99999999999999
 40
1.5
  0
CIRCLE
  5
80
100
AcDbEntity
  8
0
  6
ByLayer
 62
  256
370
   -1
100
AcDbCircle
 10
45.17956215814665
 20
-48.99999999999999
 40
1.5
  0
CIRCLE
  5
81
100
AcDbEntity
  8
0
  6
ByLayer
 62
  256
370
   -1
100
AcDbCircle
 10
110.968777079743
 20
-43.69669914110089
 40
1.5
  0
CIRCLE
  5
82
100
AcDbEntity
  8
0
  6
ByLayer
 62
  256
370
   -1
100
AcDbCircle
 10
121.5753787975412
 20
-43.69669914110089
 40
1.5
  0
CIRCLE
  5
83
100
AcDbEntity
  8
0
  6
ByLayer
 62
  256
370
   -1
100
AcDbCircle
 10
129
 20
-49
 40
3
  0
CIRCLE
  5
84
100
AcDbEntity
  8
0
  6
ByLayer
 62
  256
370
   -1
100
AcDbCircle
 10
121.5753787975412
 20
-54.30330085889911
 40
1.5
  0
CIRCLE
  5
85
100
AcDbEntity
  8
0
  6
ByLayer
 62
  256
370
   -1
100
AcDbCircle
 10
110.968777079743
 20
-54.30330085889911
 40
1.5
  0
CIRCLE
  5
86
100
AcDbEntity
  8
0
  6
ByLayer
 62
  256
370
   -1
100
AcDbCircle
 10
196
 20
-4.999999999999986
 40
1.5
  0
CIRCLE
  5
87
100
AcDbEntity
  8
0
  6
ByLayer
 62
  256
370
   -1
100
AcDbCircle
 10
202.3700000000001
 20
-11.3700000000001
 40
1.5
  0
CIRCLE
  5
88
100
AcDbEntity
  8
0
  6
ByLayer
 62
  256
370
   -1
100
AcDbCircle
 10
239.24
 20
-4.999999999999829
 40
1.5
  0
CIRCLE
  5
89
100
AcDbEntity
  8
0
  6
ByLayer
 62
  256
370
   -1
100
AcDbCircle
 10
232.87
 20
-11.3700000000001
 40
1.5
  0
CIRCLE
  5
8A
100
AcDbEntity
  8
0
  6
ByLayer
 62
  256
370
   -1
100
AcDbCircle
 10
202.3700000000001
 20
-69.37000000000008
 40
1.5
  0
CIRCLE
  5
8B
100
AcDbEntity
  8
0
  6
ByLayer
 62
  256
370
   -1
100
AcDbCircle
 10
196
 20
-75.74000000000028
 40
1.5
  0
CIRCLE
  5
8C
100
AcDbEntity
  8
0
  6
ByLayer
 62
  256
370
   -1
100
AcDbCircle
 10
232.8700000000001
 20
-69.37000000000008
 40
1.5
  0
CIRCLE
  5
8D
100
AcDbEntity
  8
0
  6
ByLayer
 62
  256
370
   -1
100
AcDbCircle
 10
239.2400000000003
 20
-75.74000000000019
 40
1.5
  0
CIRCLE
  5
8E
100
AcDbEntity
  8
0
  6
ByLayer
 62
  256
370
   -1
100
AcDbCircle
 10
207.6200000000001
 20
-61.37000000000008
 40
1
  0
CIRCLE
  5
8F
100
AcDbEntity
  8
0
  6
ByLayer
 62
  256
370
   -1
100
AcDbCircle
 10
227.6200000000001
 20
-61.37000000000008
 40
1
  0
CIRCLE
  5
90
100
AcDbEntity
  8
0
  6
ByLayer
 62
  256
370
   -1
100
AcDbCircle
 10
227.6200000000001
 20
-41.37000000000008
 40
1
  0
CIRCLE
  5
91
100
AcDbEntity
  8
0
  6
ByLayer
 62
  256
370
   -1
100
AcDbCircle
 10
207.6200000000001
 20
-41.37000000000008
 40
1
  0
CIRCLE
  5
92
100
AcDbEntity
  8
0
  6
ByLayer
 62
  256
370
   -1
100
AcDbCircle
 10
217.6200000000001
 20
-51.37000000000008
 40
5.119751269282875
  0
CIRCLE
  5
93
100
AcDbEntity
  8
0
  6
ByLayer
 62
  256
370
   -1
100
AcDbCircle
 10
217.6200000000001
 20
-25.87000000000008
 40
6.74876303678197
  0
CIRCLE
  5
94
100
AcDbEntity
  8
0
  6
ByLayer
 62
  256
370
   -1
100
AcDbCircle
 10
217.6200000000001
 20
-80.37000000000008
 40
1.5
  0
CIRCLE
  5
95
100
AcDbEntity
  8
0
  6
ByLayer
 62
  256
370
   -1
100
AcDbCircle
 10
168
 20
-7
 40
1.5
  0
CIRCLE
  5
96
100
AcDbEntity
  8
0
  6
ByLayer
 62
  256
370
   -1
100
AcDbCircle
 10
183.2499999999999
 20
-75.99999999999996
 40
1.5
  0
CIRCLE
  5
97
100
AcDbEntity
  8
0
  6
ByLayer
 62
  256
370
   -1
100
AcDbCircle
 10
152.7500000000001
 20
-75.99999999999999
 40
1.5
  0
LWPOLYLINE
  5
98
100
AcDbEntity
  8
0
  6
ByLayer
 62
  256
370
   -1
100
AcDbPolyline
 90
    6
 70
    1
 43
0
 10
173.52
 20
-57.2700000000001
 10
176.52
 20
-57.2700000000001
 42
0.414213562373095
 10
178.52
 20
-55.2700000000001
 10
174.52
 20
-35.2700000000001
 42
0.9999999999999999
 10
171.52
 20
-35.2700000000001
 10
171.52
 20
-55.2700000000001
 42
0.414213562373095
  0
LWPOLYLINE
  5
99
100
AcDbEntity
  8
0
  6
ByLayer
 62
  256
370
   -1
100
AcDbPolyline
 90
    6
 70
    1
 43
0
 10
162.4799999999999
 20
-57.2700000000001
 10
159.4799999999999
 20
-57.2700000000001
 42
-0.414213562373095
 10
157.4799999999999
 20
-55.2700000000001
 10
161.4799999999999
 20
-35.2700000000001
 42
-0.9999999999999999
 10
164.4799999999999
 20
-35.2700000000001
 10
164.4799999999999
 20
-55.2700000000001
 42
-0.414213562373095
  0
LWPOLYLINE
  5
9A
100
AcDbEntity
  8
0
  6
ByLayer
 62
  256
370
   -1
100
AcDbPolyline
 90
  113
 70
    1
 43
0
 10
97.99999999999999
 20
-31.76
 10
88.57703691278803
 20
-31.75211030247405
 10
80.14613228164768
 20
-31.74580742707212
 10
72.70728610657889
 20
-31.74109137379418
 10
66.26049838758171
 20
-31.73796214264024
 10
60.80576912465609
 20
-31.7364197336103
 10
56.34309831780207
 20
-31.73646414670436
 10
52.87248596701964
 20
-31.73809538192242
 10
50.39393207230878
 20
-31.74131343926447
 10
48.48007248002071
 20
-31.70088001706912
 10
46.70354303650663
 20
-31.57155681367494
 10
45.06434374176653
 20
-31.35334382908194
 10
43.56247459580041
 20
-31.0462410632901
 10
42.19793559860828
 20
-30.65024851629945
 10
40.97072675019014
 20
-30.16536618810996
 10
39.88084805054598
 20
-29.59159407872165
 10
38.9282994996758
 20
-28.92893218813452
 10
38.04441602319262
 20
-28.25497103731609
 10
37.16053254670943
 20
-27.6473011472339
 10
36.27664907022625
 20
-27.10592251788795
 10
35.39276559374306
 20
-26.63083514927824
 10
34.50888211725988
 20
-26.22203904140476
 10
33.6249986407767
 20
-25.87953419426753
 10
32.74111516429351
 20
-25.60332060786654
 10
31.85723168781033
 20
-25.39339828220178
 10
30.96782393959912
 20
-25.2331944020892
 10
30.06736764793188
 20
-25.10613615234475
 10
29.15586281280859
 20
-25.01222353296841
 10
28.23330943422927
 20
-24.95145654396019
 10
27.2997075121939
 20
-24.92383518532009
 10
26.3550570467025
 20
-24.92935945704811
 10
25.39935803775506
 20
-24.96802935914425
 10
24.43261048535158
 20
-25.0398448916085
 10
23.4658629329481
 20
-25.14480605444088
 10
22.51016392400065
 20
-25.28291284764138
 10
21.56551345850925
 20
-25.45416527121
 10
20.63191153647389
 20
-25.65856332514674
 10
19.70935815789456
 20
-25.89610700945159
 10
18.79785332277127
 20
-26.16679632412457
 10
17.89739703110403
 20
-26.47063126916566
 10
17.00798928289283
 20
-26.80761184457488
 10
16.09096017604153
 20
-27.17221377862419
 10
15.10763980845398
 20
-27.55891279958558
 10
14.0580281801302
 20
-27.96770890745906
 10
12.94212529107018
 20
-28.39860210224461
 10
11.75993114127392
 20
-28.85159238394224
 10
10.51144573074142
 20
-29.32667975255195
 10
9.196669059472686
 20
-29.82386420807374
 10
7.815601127467708
 20
-30.34314575050761
 10
6.484251641014914
 20
-30.89004865158158
 10
5.318630306402714
 20
-31.47009718302368
 10
4.318737123631113
 20
-32.08329134483388
 10
3.484572092700105
 20
-32.72963113701221
 10
2.816135213609698
 20
-33.40911655955866
 10
2.313426486359887
 20
-34.12174761247323
 10
1.976445910950673
 20
-34.86752429575591
 10
1.805193487382056
 20
-35.64644660940672
 10
1.816242030838097
 20
-36.43089319478555
 10
2.026164356502854
 20
-37.19324269325229
 10
2.434960464376324
 20
-37.93349510480696
 10
3.042630354458513
 20
-38.65165042944955
 10
3.84917402674942
 20
-39.34770866718005
 10
4.854591481249042
 20
-40.02166981799848
 10
6.058882717957381
 20
-40.67353388190483
 10
7.462047736874435
 20
-41.3033008588991
 10
8.925979744799712
 20
-41.90544647725327
 10
10.31257194853271
 20
-42.47444646523932
 10
11.62182434807342
 20
-43.01030082285725
 10
12.85373694342186
 20
-43.51300955010706
 10
14.00830973457802
 20
-43.98257264698875
 10
15.0855427215419
 20
-44.41899011350232
 10
16.08543590431351
 20
-44.82226194964777
 10
17.00798928289283
 20
-45.19238815542511
 10
17.89739703110403
 20
-45.52936873083433
 10
18.79785332277127
 20
-45.83320367587542
 10
19.70935815789456
 20
-46.1038929905484
 10
20.63191153647389
 20
-46.34143667485325
 10
21.56551345850925
 20
-46.54583472878998
 10
22.51016392400065
 20
-46.7170871523586
 10
23.4658629329481
 20
-46.8551939455591
 10
24.43261048535158
 20
-46.96015510839148
 10
25.39935803775506
 20
-47.03197064085574
 10
26.3550570467025
 20
-47.07064054295188
 10
27.29970751219391
 20
-47.0761648146799
 10
28.23330943422927
 20
-47.0485434560398
 10
29.15586281280859
 20
-46.98777646703158
 10
30.06736764793188
 20
-46.89386384765524
 10
30.96782393959912
 20
-46.76680559791078
 10
31.85723168781033
 20
-46.60660171779821
 10
32.74111516429351
 20
-46.39667939213345
 10
33.6249986407767
 20
-46.12046580573246
 10
34.50888211725988
 20
-45.77796095859522
 10
35.39276559374306
 20
-45.36916485072175
 10
36.27664907022625
 20
-44.89407748211203
 10
37.16053254670943
 20
-44.35269885276609
 10
38.04441602319262
 20
-43.7450289626839
 10
38.9282994996758
 20
-43.07106781186547
 10
39.88084805054598
 20
-42.40840592127833
 10
40.97072675019014
 20
-41.83463381189002
 10
42.19793559860828
 20
-41.34975148370054
 10
43.56247459580041
 20
-40.95375893670988
 10
45.06434374176654
 20
-40.64665617091805
 10
46.70354303650663
 20
-40.42844318632504
 10
48.48007248002071
 20
-40.29911998293087
 10
50.39393207230878
 20
-40.25868656073551
 10
52.87248596701964
 20
-40.26190461807757
 10
56.34309831780207
 20
-40.26353585329563
 10
60.80576912465609
 20
-40.26358026638969
 10
66.26049838758171
 20
-40.26203785735976
 10
72.70728610657891
 20
-40.25890862620582
 10
80.14613228164767
 20
-40.25419257292789
 10
88.57703691278803
 20
-40.24788969752595
 10
98
 20
-40.23999999999998
 42
1.000000000000002
  0
LWPOLYLINE
  5
9B
100
AcDbEntity
  8
0
  6
ByLayer
 62
  256
370
   -1
100
AcDbPolyline
 90
  113
 70
    1
 43
0
 10
45.17956215814665
 20
-53.23999999999998
 10
54.60252524535861
 20
-53.24788969752593
 10
63.03342987649896
 20
-53.25419257292786
 10
70.47227605156775
 20
-53.25890862620581
 10
76.91906377056493
 20
-53.26203785735976
 10
82.37379303349054
 20
-53.2635802663897
 10
86.83646384034458
 20
-53.26353585329564
 10
90.30707619112701
 20
-53.26190461807757
 10
92.78563008583785
 20
-53.25868656073551
 10
94.69948967812593
 20
-53.29911998293088
 10
96.47601912164001
 20
-53.42844318632505
 10
98.11521841638012
 20
-53.64665617091805
 10
99.61708756234623
 20
-53.95375893670989
 10
100.9816265595384
 20
-54.34975148370054
 10
102.2088354079565
 20
-54.83463381189003
 10
103.2987141076007
 20
-55.40840592127834
 10
104.2512626584708
 20
-56.07106781186548
 10
105.135146134954
 20
-56.7450289626839
 10
106.0190296114372
 20
-57.3526988527661
 10
106.9029130879204
 20
-57.89407748211204
 10
107.7867965644036
 20
-58.36916485072175
 10
108.6706800408868
 20
-58.77796095859523
 10
109.5545635173699
 20
-59.12046580573247
 10
110.4384469938531
 20
-59.39667939213345
 10
111.3223304703363
 20
-59.60660171779821
 10
112.2117382185475
 20
-59.76680559791079
 10
113.1121945102148
 20
-59.89386384765524
 10
114.023699345338
 20
-59.98777646703158
 10
114.9462527239174
 20
-60.04854345603979
 10
115.8798546459527
 20
-60.0761648146799
 10
116.8245051114441
 20
-60.07064054295188
 10
117.7802041203916
 20
-60.03197064085575
 10
118.7469516727951
 20
-59.96015510839149
 10
119.7136992251985
 20
-59.85519394555911
 10
120.669398234146
 20
-59.71708715235862
 10
121.6140486996374
 20
-59.54583472879
 10
122.5476506216727
 20
-59.34143667485326
 10
123.4702040002521
 20
-59.1038929905484
 10
124.3817088353754
 20
-58.83320367587542
 10
125.2821651270426
 20
-58.52936873083434
 10
126.1715728752538
 20
-58.19238815542512
 10
127.0886019821051
 20
-57.8277862213758
 10
128.0719223496927
 20
-57.44108720041442
 10
129.1215339780164
 20
-57.03229109254094
 10
130.2374368670765
 20
-56.60139789775539
 10
131.4196310168727
 20
-56.14840761605775
 10
132.6681164274052
 20
-55.67332024744805
 10
133.9828930986739
 20
-55.17613579192626
 10
135.3639610306789
 20
-54.65685424949238
 10
136.6953105171317
 20
-54.10995134841841
 10
137.8609318517439
 20
-53.52990281697632
 10
138.8608250345155
 20
-52.91670865516612
 10
139.6949900654465
 20
-52.27036886298778
 10
140.3634269445369
 20
-51.59088344044133
 10
140.8661356717867
 20
-50.87825238752676
 10
141.203116247196
 20
-50.13247570424408
 10
141.3743686707646
 20
-49.35355339059328
 10
141.3633201273085
 20
-48.56910680521445
 10
141.1533978016438
 20
-47.8067573067477
 10
140.7446016937703
 20
-47.06650489519303
 10
140.1369318036881
 20
-46.34834957055045
 10
139.3303881313972
 20
-45.65229133281994
 10
138.3249706768976
 20
-44.97833018200151
 10
137.1206794401893
 20
-44.32646611809517
 10
135.7175144212722
 20
-43.69669914110089
 10
134.2535824133469
 20
-43.09455352274672
 10
132.8669902096139
 20
-42.52555353476068
 10
131.5577378100732
 20
-41.98969917714274
 10
130.3258252147248
 20
-41.48699044989294
 10
129.1712524235686
 20
-41.01742735301124
 10
128.0940194366048
 20
-40.58100988649767
 10
127.0941262538331
 20
-40.17773805035222
 10
126.1715728752538
 20
-39.80761184457488
 10
125.2821651270426
 20
-39.47063126916566
 10
124.3817088353754
 20
-39.16679632412458
 10
123.4702040002521
 20
-38.8961070094516
 10
122.5476506216728
 20
-38.65856332514674
 10
121.6140486996374
 20
-38.45416527121
 10
120.669398234146
 20
-38.2829128476414
 10
119.7136992251985
 20
-38.14480605444089
 10
118.7469516727951
 20
-38.03984489160851
 10
117.7802041203916
 20
-37.96802935914425
 10
116.8245051114441
 20
-37.92935945704812
 10
115.8798546459527
 20
-37.92383518532009
 10
114.9462527239174
 20
-37.95145654396019
 10
114.023699345338
 20
-38.01222353296842
 10
113.1121945102148
 20
-38.10613615234476
 10
112.2117382185475
 20
-38.23319440208921
 10
111.3223304703363
 20
-38.39339828220179
 10
110.4384469938531
 20
-38.60332060786655
 10
109.5545635173699
 20
-38.87953419426753
 10
108.6706800408868
 20
-39.22203904140477
 10
107.7867965644036
 20
-39.63083514927825
 10
106.9029130879204
 20
-40.10592251788796
 10
106.0190296114372
 20
-40.6473011472339
 10
105.135146134954
 20
-41.2549710373161
 10
104.2512626584708
 20
-41.92893218813452
 10
103.2987141076007
 20
-42.59159407872167
 10
102.2088354079565
 20
-43.16536618810997
 10
100.9816265595384
 20
-43.65024851629946
 10
99.61708756234623
 20
-44.0462410632901
 10
98.1152184163801
 20
-44.35334382908194
 10
96.47601912164001
 20
-44.57155681367495
 10
94.69948967812593
 20
-44.70088001706912
 10
92.78563008583785
 20
-44.74131343926447
 10
90.30707619112701
 20
-44.73809538192241
 10
86.83646384034456
 20
-44.73646414670436
 10
82.37379303349054
 20
-44.7364197336103
 10
76.91906377056493
 20
-44.73796214264024
 10
70.47227605156773
 20
-44.74109137379417
 10
63.03342987649897
 20
-44.74580742707209
 10
54.60252524535861
 20
-44.75211030247404
 10
45.17956215814664
 20
-44.76000000000002
 42
0.9999999999999999
  0
LWPOLYLINE
  5
9C
100
AcDbEntity
  8
0
  6
ByLayer
 62
  256
370
   -1
100
AcDbPolyline
 90
  113
 70
    1
 43
0
 10
97.99999999999999
 20
-57.76000000000001
 10
88.57703691278803
 20
-57.75211030247406
 10
80.14613228164768
 20
-57.74580742707212
 10
72.70728610657889
 20
-57.74109137379418
 10
66.26049838758171
 20
-57.73796214264024
 10
60.80576912465609
 20
-57.7364197336103
 10
56.34309831780207
 20
-57.73646414670436
 10
52.87248596701964
 20
-57.73809538192243
 10
50.39393207230878
 20
-57.74131343926448
 10
48.48007248002071
 20
-57.70088001706912
 10
46.70354303650663
 20
-57.57155681367495
 10
45.06434374176653
 20
-57.35334382908194
 10
43.56247459580041
 20
-57.04624106329011
 10
42.19793559860828
 20
-56.65024851629946
 10
40.97072675019014
 20
-56.16536618810997
 10
39.88084805054598
 20
-55.59159407872166
 10
38.9282994996758
 20
-54.92893218813452
 10
38.04441602319262
 20
-54.2549710373161
 10
37.16053254670943
 20
-53.6473011472339
 10
36.27664907022625
 20
-53.10592251788795
 10
35.39276559374306
 20
-52.63083514927825
 10
34.50888211725988
 20
-52.22203904140477
 10
33.6249986407767
 20
-51.87953419426753
 10
32.74111516429351
 20
-51.60332060786654
 10
31.85723168781033
 20
-51.39339828220179
 10
30.96782393959912
 20
-51.23319440208921
 10
30.06736764793188
 20
-51.10613615234475
 10
29.15586281280859
 20
-51.01222353296841
 10
28.23330943422927
 20
-50.9514565439602
 10
27.2997075121939
 20
-50.92383518532009
 10
26.3550570467025
 20
-50.92935945704811
 10
25.39935803775506
 20
-50.96802935914425
 10
24.43261048535158
 20
-51.03984489160851
 10
23.4658629329481
 20
-51.14480605444089
 10
22.51016392400065
 20
-51.28291284764138
 10
21.56551345850925
 20
-51.45416527121
 10
20.63191153647389
 20
-51.65856332514674
 10
19.70935815789456
 20
-51.8961070094516
 10
18.79785332277127
 20
-52.16679632412458
 10
17.89739703110403
 20
-52.47063126916566
 10
17.00798928289283
 20
-52.80761184457488
 10
16.09096017604153
 20
-53.1722137786242
 10
15.10763980845398
 20
-53.55891279958558
 10
14.0580281801302
 20
-53.96770890745906
 10
12.94212529107018
 20
-54.39860210224461
 10
11.75993114127392
 20
-54.85159238394225
 10
10.51144573074142
 20
-55.32667975255195
 10
9.196669059472686
 20
-55.82386420807375
 10
7.815601127467708
 20
-56.34314575050762
 10
6.484251641014914
 20
-56.89004865158159
 10
5.318630306402714
 20
-57.47009718302368
 10
4.318737123631113
 20
-58.08329134483389
 10
3.484572092700105
 20
-58.72963113701222
 10
2.816135213609698
 20
-59.40911655955867
 10
2.313426486359887
 20
-60.12174761247324
 10
1.976445910950673
 20
-60.86752429575592
 10
1.805193487382056
 20
-61.64644660940672
 10
1.816242030838097
 20
-62.43089319478555
 10
2.026164356502854
 20
-63.1932426932523
 10
2.434960464376324
 20
-63.93349510480697
 10
3.042630354458513
 20
-64.65165042944955
 10
3.84917402674942
 20
-65.34770866718006
 10
4.854591481249042
 20
-66.02166981799849
 10
6.058882717957381
 20
-66.67353388190483
 10
7.462047736874435
 20
-67.30330085889911
 10
8.925979744799712
 20
-67.90544647725328
 10
10.31257194853271
 20
-68.47444646523932
 10
11.62182434807342
 20
-69.01030082285726
 10
12.85373694342186
 20
-69.51300955010706
 10
14.00830973457802
 20
-69.98257264698876
 10
15.0855427215419
 20
-70.41899011350233
 10
16.08543590431351
 20
-70.82226194964778
 10
17.00798928289283
 20
-71.19238815542512
 10
17.89739703110403
 20
-71.52936873083434
 10
18.79785332277127
 20
-71.83320367587542
 10
19.70935815789456
 20
-72.1038929905484
 10
20.63191153647389
 20
-72.34143667485326
 10
21.56551345850925
 20
-72.54583472879
 10
22.51016392400065
 20
-72.7170871523586
 10
23.4658629329481
 20
-72.85519394555911
 10
24.43261048535158
 20
-72.96015510839149
 10
25.39935803775506
 20
-73.03197064085575
 10
26.3550570467025
 20
-73.07064054295188
 10
27.29970751219391
 20
-73.07616481467991
 10
28.23330943422927
 20
-73.04854345603981
 10
29.15586281280859
 20
-72.98777646703158
 10
30.06736764793188
 20
-72.89386384765524
 10
30.96782393959912
 20
-72.76680559791079
 10
31.85723168781033
 20
-72.60660171779821
 10
32.74111516429351
 20
-72.39667939213345
 10
33.6249986407767
 20
-72.12046580573247
 10
34.50888211725988
 20
-71.77796095859523
 10
35.39276559374306
 20
-71.36916485072175
 10
36.27664907022625
 20
-70.89407748211204
 10
37.16053254670943
 20
-70.3526988527661
 10
38.04441602319262
 20
-69.7450289626839
 10
38.9282994996758
 20
-69.07106781186548
 10
39.88084805054598
 20
-68.40840592127833
 10
40.97072675019014
 20
-67.83463381189003
 10
42.19793559860828
 20
-67.34975148370054
 10
43.56247459580041
 20
-66.95375893670989
 10
45.06434374176654
 20
-66.64665617091805
 10
46.70354303650663
 20
-66.42844318632504
 10
48.48007248002071
 20
-66.29911998293088
 10
50.39393207230878
 20
-66.25868656073553
 10
52.87248596701964
 20
-66.26190461807758
 10
56.34309831780207
 20
-66.26353585329564
 10
60.80576912465609
 20
-66.2635802663897
 10
66.26049838758171
 20
-66.26203785735976
 10
72.70728610657891
 20
-66.25890862620582
 10
80.14613228164767
 20
-66.25419257292791
 10
88.57703691278803
 20
-66.24788969752595
 10
98
 20
-66.23999999999998
 42
1.000000000000002
  0
LWPOLYLINE
  5
9D
100
AcDbEntity
  8
0
  6
ByLayer
 62
  256
370
   -1
100
AcDbPolyline
 90
  113
 70
    1
 43
0
 10
45.17956215814665
 20
-79.23999999999998
 10
54.60252524535861
 20
-79.24788969752595
 10
63.03342987649896
 20
-79.25419257292788
 10
70.47227605156775
 20
-79.25890862620582
 10
76.91906377056493
 20
-79.26203785735976
 10
82.37379303349054
 20
-79.26358026638971
 10
86.83646384034458
 20
-79.26353585329565
 10
90.30707619112701
 20
-79.26190461807758
 10
92.78563008583785
 20
-79.25868656073553
 10
94.69948967812593
 20
-79.29911998293088
 10
96.47601912164001
 20
-79.42844318632507
 10
98.11521841638012
 20
-79.64665617091805
 10
99.61708756234623
 20
-79.9537589367099
 10
100.9816265595384
 20
-80.34975148370054
 10
102.2088354079565
 20
-80.83463381189003
 10
103.2987141076007
 20
-81.40840592127836
 10
104.2512626584708
 20
-82.07106781186548
 10
105.135146134954
 20
-82.7450289626839
 10
106.0190296114372
 20
-83.35269885276611
 10
106.9029130879204
 20
-83.89407748211204
 10
107.7867965644036
 20
-84.36916485072175
 10
108.6706800408868
 20
-84.77796095859523
 10
109.5545635173699
 20
-85.12046580573247
 10
110.4384469938531
 20
-85.39667939213345
 10
111.3223304703363
 20
-85.60660171779821
 10
112.2117382185475
 20
-85.7668055979108
 10
113.1121945102148
 20
-85.89386384765524
 10
114.023699345338
 20
-85.98777646703158
 10
114.9462527239174
 20
-86.04854345603979
 10
115.8798546459527
 20
-86.07616481467991
 10
116.8245051114441
 20
-86.07064054295188
 10
117.7802041203916
 20
-86.03197064085575
 10
118.7469516727951
 20
-85.96015510839149
 10
119.7136992251985
 20
-85.85519394555911
 10
120.669398234146
 20
-85.71708715235863
 10
121.6140486996374
 20
-85.54583472879
 10
122.5476506216727
 20
-85.34143667485327
 10
123.4702040002521
 20
-85.10389299054842
 10
124.3817088353754
 20
-84.83320367587544
 10
125.2821651270426
 20
-84.52936873083434
 10
126.1715728752538
 20
-84.19238815542514
 10
127.0886019821051
 20
-83.82778622137582
 10
128.0719223496927
 20
-83.44108720041442
 10
129.1215339780164
 20
-83.03229109254096
 10
130.2374368670765
 20
-82.60139789775539
 10
131.4196310168727
 20
-82.14840761605777
 10
132.6681164274052
 20
-81.67332024744806
 10
133.9828930986739
 20
-81.17613579192627
 10
135.3639610306789
 20
-80.6568542494924
 10
136.6953105171317
 20
-80.10995134841841
 10
137.8609318517439
 20
-79.52990281697632
 10
138.8608250345155
 20
-78.91670865516613
 10
139.6949900654465
 20
-78.27036886298779
 10
140.3634269445369
 20
-77.59088344044133
 10
140.8661356717867
 20
-76.87825238752677
 10
141.203116247196
 20
-76.13247570424409
 10
141.3743686707646
 20
-75.35355339059328
 10
141.3633201273085
 20
-74.56910680521446
 10
141.1533978016438
 20
-73.8067573067477
 10
140.7446016937703
 20
-73.06650489519305
 10
140.1369318036881
 20
-72.34834957055045
 10
139.3303881313972
 20
-71.65229133281994
 10
138.3249706768976
 20
-70.97833018200151
 10
137.1206794401893
 20
-70.32646611809517
 10
135.7175144212722
 20
-69.69669914110091
 10
134.2535824133469
 20
-69.09455352274674
 10
132.8669902096139
 20
-68.52555353476069
 10
131.5577378100732
 20
-67.98969917714274
 10
130.3258252147248
 20
-67.48699044989294
 10
129.1712524235686
 20
-67.01742735301124
 10
128.0940194366048
 20
-66.58100988649767
 10
127.0941262538331
 20
-66.17773805035222
 10
126.1715728752538
 20
-65.80761184457489
 10
125.2821651270426
 20
-65.47063126916566
 10
124.3817088353754
 20
-65.16679632412459
 10
123.4702040002521
 20
-64.89610700945161
 10
122.5476506216728
 20
-64.65856332514676
 10
121.6140486996374
 20
-64.45416527121
 10
120.669398234146
 20
-64.2829128476414
 10
119.7136992251985
 20
-64.14480605444089
 10
118.7469516727951
 20
-64.03984489160851
 10
117.7802041203916
 20
-63.96802935914426
 10
116.8245051114441
 20
-63.92935945704813
 10
115.8798546459527
 20
-63.92383518532009
 10
114.9462527239174
 20
-63.9514565439602
 10
114.023699345338
 20
-64.01222353296842
 10
113.1121945102148
 20
-64.10613615234476
 10
112.2117382185475
 20
-64.23319440208923
 10
111.3223304703363
 20
-64.39339828220179
 10
110.4384469938531
 20
-64.60332060786655
 10
109.5545635173699
 20
-64.87953419426753
 10
108.6706800408868
 20
-65.22203904140477
 10
107.7867965644036
 20
-65.63083514927825
 10
106.9029130879204
 20
-66.10592251788796
 10
106.0190296114372
 20
-66.64730114723392
 10
105.135146134954
 20
-67.2549710373161
 10
104.2512626584708
 20
-67.92893218813452
 10
103.2987141076007
 20
-68.59159407872167
 10
102.2088354079565
 20
-69.16536618810997
 10
100.9816265595384
 20
-69.65024851629946
 10
99.61708756234623
 20
-70.04624106329011
 10
98.1152184163801
 20
-70.35334382908195
 10
96.47601912164001
 20
-70.57155681367496
 10
94.69948967812593
 20
-70.70088001706912
 10
92.78563008583785
 20
-70.74131343926447
 10
90.30707619112701
 20
-70.73809538192242
 10
86.83646384034456
 20
-70.73646414670436
 10
82.37379303349054
 20
-70.7364197336103
 10
76.91906377056493
 20
-70.73796214264024
 10
70.47227605156773
 20
-70.74109137379418
 10
63.03342987649897
 20
-70.74580742707209
 10
54.60252524535861
 20
-70.75211030247405
 10
45.17956215814664
 20
-70.76000000000002
 42
0.9999999999999999
  0
LWPOLYLINE
  5
9E
100
AcDbEntity
  8
0
  6
ByLayer
 62
  256
370
   -1
100
AcDbPolyline
 90
  104
 70
    1
 43
0
 10
157.2500000000001
 20
-75.99999999999996
 10
157.6116632107757
 20
-74.53908528464741
 10
158.0032662384734
 20
-73.22786965390516
 10
158.4231907146109
 20
-72.05826126536185
 10
158.8698182707059
 20
-71.02216827660614
 10
159.3415305382761
 20
-70.11149884522665
 10
159.8367091488393
 20
-69.31816112881201
 10
160.3537357339133
 20
-68.63406328495084
 10
160.8909919250156
 20
-68.0511134712318
 10
161.4468593536641
 20
-67.56121984524349
 10
162.0197196513764
 20
-67.15629056457458
 10
162.6079544496704
 20
-66.82823378681367
 10
163.2099453800637
 20
-66.56895766954936
 10
163.824074074074
 20
-66.37037037037034
 10
164.4487221632192
 20
-66.22438004686522
 10
165.0822712790168
 20
-66.12289485662266
 10
165.7231030529847
 20
-66.05782295723121
 10
166.3695991166405
 20
-66.02107250627957
 10
167.020141101502
 20
-66.00455166135636
 10
167.673110639087
 20
-66.00016858005021
 10
168.326889360913
 20
-66.00016858005021
 10
168.9798588984979
 20
-66.00455166135639
 10
169.6304008833594
 20
-66.02107250627959
 10
170.2768969470153
 20
-66.05782295723121
 10
170.9177287209831
 20
-66.12289485662266
 10
171.5512778367808
 20
-66.22438004686522
 10
172.1759259259259
 20
-66.37037037037034
 10
172.7900546199363
 20
-66.56895766954936
 10
173.3920455503296
 20
-66.82823378681364
 10
173.9802803486235
 20
-67.15629056457458
 10
174.5531406463359
 20
-67.56121984524349
 10
175.1090080749844
 20
-68.0511134712318
 10
175.6462642660867
 20
-68.63406328495084
 10
176.1632908511606
 20
-69.31816112881198
 10
176.6584694617239
 20
-70.11149884522662
 10
177.1301817292941
 20
-71.02216827660614
 10
177.5768092853891
 20
-72.05826126536182
 10
177.9967337615266
 20
-73.22786965390513
 10
178.3883367892243
 20
-74.53908528464738
 10
178.7499999999999
 20
-75.99999999999999
 42
0.9999999999999999
 10
187.7499999999999
 20
-75.99999999999996
 10
187.2986304588634
 20
-73.1609210835487
 10
186.8175036084723
 20
-70.26343526568424
 10
186.3096404954516
 20
-67.317814104931
 10
185.778062166426
 20
-64.33432915981332
 10
185.2257896680205
 20
-61.32325198885569
 10
184.6558440468597
 20
-58.29485415058235
 10
184.0712463495686
 20
-55.25940720351782
 10
183.4750176227719
 20
-52.22718270618641
 10
182.8701789130945
 20
-49.20845221711255
 10
182.2597512671612
 20
-46.21348729482058
 10
181.6467557315967
 20
-43.25255949783491
 10
181.034213353026
 20
-40.33594038467994
 10
180.4251451780739
 20
-37.47390151388004
 10
179.8225722533651
 20
-34.6767144439596
 10
179.2295156255244
 20
-31.954650733443
 10
178.6489963411768
 20
-29.31798194085464
 10
178.084035446947
 20
-26.77697962471889
 10
177.5376539894599
 20
-24.34191534356019
 10
177.0128730153402
 20
-22.0230606559028
 10
176.5127135712128
 20
-19.83068712027129
 10
176.0401967037024
 20
-17.7750662951898
 10
175.598343459434
 20
-15.86646973918299
 10
175.1901748850323
 20
-14.11516901077509
 10
174.8187120271223
 20
-12.5314356684905
 10
174.4869759323285
 20
-11.12554127085359
 10
174.197987647276
 20
-9.907757376388901
 10
173.9547682185895
 20
-8.888355543620591
 10
173.7603386928938
 20
-8.077607331073196
 10
173.6177201168138
 20
-7.485784297270996
 10
173.5299335369742
 20
-7.123158000738499
 10
173.5
 20
-7.000000000000003
 42
0.9999999999999999
 10
162.5
 20
-7
 10
162.4700664630257
 20
-7.123158000738499
 10
162.3822798831862
 20
-7.485784297270996
 10
162.2396613071062
 20
-8.077607331073196
 10
162.0452317814105
 20
-8.888355543620591
 10
161.8020123527239
 20
-9.907757376388901
 10
161.5130240676714
 20
-11.12554127085359
 10
161.1812879728777
 20
-12.5314356684905
 10
160.8098251149676
 20
-14.11516901077509
 10
160.4016565405659
 20
-15.86646973918299
 10
159.9598032962975
 20
-17.7750662951898
 10
159.4872864287872
 20
-19.83068712027129
 10
158.9871269846598
 20
-22.0230606559028
 10
158.46234601054
 20
-24.34191534356019
 10
157.9159645530529
 20
-26.77697962471889
 10
157.3510036588231
 20
-29.31798194085464
 10
156.7704843744755
 20
-31.95465073344299
 10
156.1774277466349
 20
-34.6767144439596
 10
155.5748548219261
 20
-37.47390151388004
 10
154.9657866469739
 20
-40.33594038467993
 10
154.3532442684032
 20
-43.25255949783491
 10
153.7402487328388
 20
-46.21348729482058
 10
153.1298210869055
 20
-49.20845221711255
 10
152.524982377228
 20
-52.22718270618641
 10
151.9287536504314
 20
-55.25940720351782
 10
151.3441559531402
 20
-58.29485415058235
 10
150.7742103319795
 20
-61.32325198885566
 10
150.2219378335739
 20
-64.33432915981332
 10
149.6903595045484
 20
-67.317814104931
 10
149.1824963915277
 20
-70.26343526568424
 10
148.7013695411367
 20
-73.1609210835487
 10
148.2500000000001
 20
-75.99999999999999
 42
0.9999999999999999
  0
LWPOLYLINE
  5
9F
100
AcDbEntity
  8
0
  6
ByLayer
 62
  256
370
   -1
100
AcDbPolyline
 90
  208
 70
    1
 43
0
 10
221.6200000000001
 20
-80.37000000000008
 10
221.6250885023288
 20
-80.34797651730817
 10
221.6417277897017
 20
-80.28459257550936
 10
221.6719785326989
 20
-80.18387793401938
 10
221.7179014019005
 20
-80.04986235225358
 10
221.7815570678866
 20
-79.88657558962758
 10
221.8650062012372
 20
-79.69804740555698
 10
221.9703094725324
 20
-79.48830755945717
 10
222.0995275523524
 20
-79.26138581074387
 10
222.2547211112773
 20
-79.02131191883258
 10
222.4379508198871
 20
-78.77211564313878
 10
222.6512773487619
 20
-78.51782674307806
 10
222.8967613684818
 20
-78.26247497806598
 10
223.1764635496269
 20
-78.01009010751797
 10
223.4924445627773
 20
-77.76470189084979
 10
223.8467650785131
 20
-77.53034008747677
 10
224.2414857674144
 20
-77.3110344568146
 10
224.6786673000612
 20
-77.11081475827866
 10
225.1603703470338
 20
-76.93371075128466
 10
225.6886555789121
 20
-76.78375219524808
 10
226.2655836662762
 20
-76.66496884958447
 10
226.8932152797062
 20
-76.58139047370936
 10
227.5736110897823
 20
-76.53704682703837
 10
228.3088317670846
 20
-76.535967668987
 10
229.100937982193
 20
-76.58218275897066
 10
229.9519904056878
 20
-76.6797218564051
 10
230.8640497081489
 20
-76.83261472070568
 10
231.8391765601565
 20
-77.04489111128818
 10
232.8794316322908
 20
-77.32058078756786
 10
233.9868755951317
 20
-77.6637135089605
 10
235.1635691192594
 20
-78.07831903488149
 10
236.4115728752541
 20
-78.56842712474634
 42
1.000000000000004
 10
242.0684271247474
 20
-72.91157287525498
 10
242.0208313049155
 20
-72.8599073076589
 10
241.8844302387407
 20
-72.70578940563929
 10
241.6688035162043
 20
-72.45053737034949
 10
241.3835307272877
 20
-72.09546940294247
 10
241.0381914619722
 20
-71.64190370457159
 10
240.642365310239
 20
-71.09115847638988
 10
240.2056318620695
 20
-70.44455191955059
 10
239.737570707445
 20
-69.70340223520687
 10
239.2477614363468
 20
-68.8690276245119
 10
238.7457836387563
 20
-67.94274628861878
 10
238.2412169046548
 20
-66.92587642868078
 10
237.7436408240235
 20
-65.81973624585088
 10
237.2626349868439
 20
-64.62564394128258
 10
236.8077507262797
 20
-63.34493367180586
 10
236.3851203005884
 20
-61.9808702311873
 10
235.9942356159365
 20
-60.54046799732545
 10
235.6338256444201
 20
-59.03117215140192
 10
235.3026193581357
 20
-57.46042787459855
 10
234.9993457291796
 20
-55.83568034809706
 10
234.7227337296479
 20
-54.1643747530792
 10
234.4715123316371
 20
-52.45395627072669
 10
234.2444105072435
 20
-50.71187008222132
 10
234.0401572285634
 20
-48.94556136874483
 10
233.857481467693
 20
-47.16247531147896
 10
233.6951121967288
 20
-45.37005709160543
 10
233.551778387767
 20
-43.57575189030605
 10
233.4262090129039
 20
-41.78700488876252
 10
233.3171715375386
 20
-40.01122584148375
 10
233.2243187730328
 20
-38.25500968950276
 10
233.1481888767107
 20
-36.5241365603767
 10
233.0893584991993
 20
-34.8243511549899
 10
233.0484042911258
 20
-33.16139817422662
 10
233.025902903117
 20
-31.54102231897122
 10
233.0224309858001
 20
-29.96896829010795
 10
233.0385651898021
 20
-28.45098078852112
 10
233.07488216575
 20
-26.99280451509506
 10
233.1319585642708
 20
-25.60018417071406
 10
233.2103710359916
 20
-24.2788644562624
 10
233.3106962315393
 20
-23.03459007262441
 10
233.433510801541
 20
-21.87310572068436
 10
233.5793913966238
 20
-20.80015610132661
 10
233.7495154184958
 20
-19.81978783837759
 10
233.9502890282756
 20
-18.92126799608668
 10
234.1908106419271
 20
-18.08625373781453
 10
234.4802009254541
 20
-17.29633933517893
 10
234.8275805448607
 20
-16.53311905979767
 10
235.2420701661508
 20
-15.77818718328854
 10
235.7327904553282
 20
-15.0131379772693
 10
236.3088620783969
 20
-14.21956571335775
 10
236.9794057013609
 20
-13.37906466317169
 10
237.7535419902239
 20
-12.47322909832886
 10
238.6403916109901
 20
-11.48365329044711
 10
239.6490752296632
 20
-10.39193151114419
 10
240.7887135122473
 20
-9.179658032037878
 10
242.0684271247462
 20
-7.82842712474605
 42
1.000000000000002
 10
236.4115728752538
 20
-2.171572875253631
 10
236.3535410970482
 20
-2.199361752472512
 10
236.1819688832229
 20
-2.279023200499935
 10
235.9006409149653
 20
-2.404999443892152
 10
235.5133418734627
 20
-2.571732707205356
 10
235.0238564399023
 20
-2.773665214995773
 10
234.4359692954716
 20
-3.005239191819655
 10
233.7534651213578
 20
-3.26089686223321
 10
232.9801285987483
 20
-3.535080450792677
 10
232.1197444088303
 20
-3.822232182054279
 10
231.1760972327912
 20
-4.11679428057424
 10
230.1529717518184
 20
-4.413208970908784
 10
229.0541526470991
 20
-4.705918477614148
 10
227.8834245998207
 20
-4.98936502524657
 10
226.6445722911705
 20
-5.257990838362247
 10
225.3413804023358
 20
-5.506238141517443
 10
223.9776336145039
 20
-5.728549159268354
 10
222.5571166088622
 20
-5.919366116171219
 10
221.083614066598
 20
-6.07313123678226
 10
219.5609106688986
 20
-6.18428674565773
 10
217.9927910969513
 20
-6.247274867353809
 10
216.3830400319435
 20
-6.256537826426751
 10
214.7354421550625
 20
-6.206517847432806
 10
213.0537821474955
 20
-6.091657154928157
 10
211.34184469043
 20
-5.906397973469083
 10
209.6034144650532
 20
-5.645182527611766
 10
207.8422761525525
 20
-5.302453041912429
 10
206.0622144341152
 20
-4.872651740927353
 10
204.2670139909286
 20
-4.350220849212704
 10
202.46045950418
 20
-3.729602591324749
 10
200.6463356550567
 20
-3.005239191819683
 10
198.8284271247462
 20
-2.171572875253794
 42
0.9999999999999999
 10
193.1715728752527
 20
-7.828427124745062
 10
194.4512864877521
 20
-9.179658032036954
 10
195.5909247703365
 20
-10.39193151114327
 10
196.59960838901
 20
-11.48365329044618
 10
197.4864580097764
 20
-12.47322909832793
 10
198.2605942986397
 20
-13.37906466317075
 10
198.9311379216038
 20
-14.2195657133568
 10
199.5072095446727
 20
-15.01313797726836
 10
199.9979298338502
 20
-15.77818718328759
 10
200.4124194551403
 20
-16.53311905979673
 10
200.7597990745469
 20
-17.29633933517799
 10
201.049189358074
 20
-18.08625373781361
 10
201.2897109717255
 20
-18.92126799608575
 10
201.4904845815053
 20
-19.81978783837666
 10
201.6606086033773
 20
-20.80015610132567
 10
201.8064891984601
 20
-21.87310572068344
 10
201.9293037684618
 20
-23.03459007262349
 10
202.0296289640096
 20
-24.27886445626147
 10
202.1080414357303
 20
-25.60018417071312
 10
202.1651178342511
 20
-26.99280451509414
 10
202.201434810199
 20
-28.4509807885202
 10
202.217569014201
 20
-29.96896829010701
 10
202.2140970968841
 20
-31.54102231897028
 10
202.1915957088754
 20
-33.1613981742257
 10
202.1506415008018
 20
-34.82435115498895
 10
202.0918111232905
 20
-36.52413656037577
 10
202.0156812269684
 20
-38.25500968950183
 10
201.9228284624625
 20
-40.01122584148284
 10
201.8137909870972
 20
-41.78700488876159
 10
201.6882216122341
 20
-43.57575189030511
 10
201.5448878032724
 20
-45.37005709160452
 10
201.3825185323081
 20
-47.16247531147802
 10
201.1998427714378
 20
-48.9455613687439
 10
200.9955894927577
 20
-50.71187008222041
 10
200.768487668364
 20
-52.45395627072578
 10
200.5172662703532
 20
-54.16437475307823
 10
200.2406542708216
 20
-55.83568034809618
 10
199.9373806418654
 20
-57.46042787459761
 10
199.606174355581
 20
-59.03117215140101
 10
199.2457643840647
 20
-60.54046799732454
 10
198.8548796994127
 20
-61.98087023118639
 10
198.4322492737215
 20
-63.3449336718049
 10
197.9773650131573
 20
-64.62564394128169
 10
197.4963591759777
 20
-65.81973624585
 10
196.9987830953464
 20
-66.92587642867979
 10
196.4942163612448
 20
-67.94274628861787
 10
195.9922385636543
 20
-68.86902762451099
 10
195.5024292925562
 20
-69.70340223520598
 10
195.0343681379317
 20
-70.44455191954968
 10
194.5976346897622
 20
-71.09115847638897
 10
194.201808538029
 20
-71.64190370457068
 10
193.8564692727135
 20
-72.09546940294156
 10
193.5711964837969
 20
-72.45053737034858
 10
193.3555697612605
 20
-72.70578940563838
 10
193.2191686950857
 20
-72.85990730765799
 10
193.1715728752538
 20
-72.91157287525404
 42
1.000000000000002
 10
198.8284271247462
 20
-78.56842712474646
 10
200.0764308807408
 20
-78.07831903488149
 10
201.2531244048684
 20
-77.6637135089605
 10
202.3605683677093
 20
-77.32058078756786
 10
203.4008234398435
 20
-77.04489111128818
 10
204.3759502918512
 20
-76.83261472070568
 10
205.2880095943124
 20
-76.6797218564051
 10
206.1390620178071
 20
-76.58218275897066
 10
206.9311682329156
 20
-76.535967668987
 10
207.6663889102178
 20
-76.53704682703837
 10
208.3467847202939
 20
-76.58139047370936
 10
208.974416333724
 20
-76.66496884958447
 10
209.5513444210881
 20
-76.78375219524808
 10
210.0796296529664
 20
-76.93371075128466
 10
210.5613326999389
 20
-77.11081475827866
 10
210.9985142325857
 20
-77.3110344568146
 10
211.393234921487
 20
-77.53034008747677
 10
211.7475554372228
 20
-77.76470189084979
 10
212.0635364503732
 20
-78.01009010751797
 10
212.3432386315183
 20
-78.26247497806598
 10
212.5887226512382
 20
-78.51782674307806
 10
212.802049180113
 20
-78.77211564313878
 10
212.9852788887228
 20
-79.02131191883258
 10
213.1404724476477
 20
-79.26138581074387
 10
213.2696905274677
 20
-79.48830755945717
 10
213.3749937987629
 20
-79.69804740555698
 10
213.4584429321136
 20
-79.88657558962758
 10
213.5220985980996
 20
-80.04986235225358
 10
213.5680214673012
 20
-80.18387793401938
 10
213.5982722102984
 20
-80.28459257550936
 10
213.6149114976713
 20
-80.34797651730817
 10
213.6200000000001
 20
-80.37000000000008
 42
0.9999999999999999
  0
ENDSEC
  0
SECTION
  2
OBJECTS
  0
DICTIONARY
  5
C
330
0
100
AcDbDictionary
281
    1
  3
ACAD_GROUP
350
D
  0
DICTIONARY
  5
D
330
C
100
AcDbDictionary
281
    1
  0
ENDSEC
  0
EOF
