999
dxfrw 0.6.3
  0
SECTION
  2
HEADER
  9
$ACADVER
  1
AC1021
  9
$DWGCODEPAGE
  3
ANSI_1252
  9
$INSBASE
 10
0
 20
0
 30
0
  9
$EXTMIN
 10
-63
 20
-221.5400000000001
 30
0
  9
$EXTMAX
 10
194.0400000000001
 20
63
 30
0
  9
$LIMMIN
 10
0
 20
0
  9
$LIMMAX
 10
12
 20
9
  9
$ORTHOMODE
 70
    0
  9
$REGENMODE
 70
    1
  9
$FILLMODE
 70
    1
  9
$QTEXTMODE
 70
    0
  9
$MIRRTEXT
 70
    0
  9
$LTSCALE
 40
1
  9
$ATTMODE
 70
    1
  9
$TEXTSIZE
 40
0.2
  9
$TRACEWID
 40
0.05
  9
$TEXTSTYLE
  7
Standard
  9
$CLAYER
  8
arms
  9
$CELTYPE
  6
ByLayer
  9
$CECOLOR
 62
  256
  9
$CELTSCALE
 40
1
  9
$DISPSILH
 70
    0
  9
$DIMSCALE
 40
1
  9
$DIMASZ
 40
2.5
  9
$DIMEXO
 40
0.625
  9
$DIMDLI
 40
5
  9
$DIMRND
 40
0
  9
$DIMDLE
 40
0
  9
$DIMEXE
 40
1.25
  9
$DIMTP
 40
0
  9
$DIMTM
 40
0
  9
$DIMTXT
 40
2.5
  9
$DIMCEN
 40
0.09
  9
$DIMTSZ
 40
0
  9
$DIMTOL
 70
    0
  9
$DIMLIM
 70
    0
  9
$DIMTIH
 70
    1
  9
$DIMTOH
 70
    1
  9
$DIMSE1
 70
    0
  9
$DIMSE2
 70
    0
  9
$DIMTAD
 70
    0
  9
$DIMZIN
 70
    8
  9
$DIMBLK
  1

  9
$DIMASO
 70
    1
  9
$DIMSHO
 70
    1
  9
$DIMPOST
  1

  9
$DIMAPOST
  1

  9
$DIMALT
 70
    0
  9
$DIMALTD
 70
    2
  9
$DIMALTF
 40
25.4
  9
$DIMLFAC
 40
1
  9
$DIMTOFL
 70
    0
  9
$DIMTVP
 40
0
  9
$DIMTIX
 70
    0
  9
$DIMSOXD
 70
    0
  9
$DIMSAH
 70
    0
  9
$DIMBLK1
  1

  9
$DIMBLK2
  1

  9
$DIMSTYLE
  2
Standard
  9
$DIMCLRD
 70
    0
  9
$DIMCLRE
 70
    0
  9
$DIMCLRT
 70
    0
  9
$DIMTFAC
 40
1
  9
$DIMGAP
 40
0.625
  9
$DIMJUST
 70
    0
  9
$DIMSD1
 70
    0
  9
$DIMSD2
 70
    0
  9
$DIMTOLJ
 70
    1
  9
$DIMTZIN
 70
    0
  9
$DIMALTZ
 70
    0
  9
$DIMALTTZ
 70
    0
  9
$DIMUPT
 70
    0
  9
$DIMDEC
 70
    4
  9
$DIMTDEC
 70
    4
  9
$DIMALTU
 70
    2
  9
$DIMALTTD
 70
    2
  9
$DIMTXSTY
  7
Standard
  9
$DIMAUNIT
 70
    0
  9
$DIMADEC
 70
    0
  9
$DIMALTRND
 40
0
  9
$DIMAZIN
 70
    2
  9
$DIMDSEP
 70
   46
  9
$DIMATFIT
 70
    3
  9
$DIMFRAC
 70
    0
  9
$DIMLDRBLK
  1

  9
$DIMLUNIT
 70
    2
  9
$DIMLWD
 70
   -2
  9
$DIMLWE
 70
   -2
  9
$DIMTMOVE
 70
    0
  9
$DIMFXL
 40
1
  9
$DIMFXLON
 70
    0
  9
$DIMJOGANG
 40
0.7853981633974483
  9
$DIMTFILL
 70
    0
  9
$DIMTFILLCLR
 70
    0
  9
$DIMARCSYM
 70
    0
  9
$DIMLTYPE
  6

  9
$DIMLTEX1
  6

  9
$DIMLTEX2
  6

  9
$LUNITS
 70
    2
  9
$LUPREC
 70
    4
  9
$SKETCHINC
 40
0.1
  9
$FILLETRAD
 40
0.5
  9
$AUNITS
 70
    0
  9
$AUPREC
 70
    0
  9
$MENU
  1
.
  9
$ELEVATION
 40
0
  9
$PELEVATION
 40
0
  9
$THICKNESS
 40
0
  9
$LIMCHECK
 70
    0
  9
$CHAMFERA
 40
0
  9
$CHAMFERB
 40
0
  9
$CHAMFERC
 40
0
  9
$CHAMFERD
 40
0
  9
$SKPOLY
 70
    0
  9
$USRTIMER
 70
    1
  9
$ANGBASE
 50
0
  9
$ANGDIR
 70
    0
  9
$PDMODE
 70
    0
  9
$PDSIZE
 40
0
  9
$PLINEWID
 40
0
  9
$SPLFRAME
 70
    0
  9
$SPLINETYPE
 70
    6
  9
$SPLINESEGS
 70
    8
  9
$HANDSEED
  5
20000
  9
$SURFTAB1
 70
    6
  9
$SURFTAB2
 70
    6
  9
$SURFTYPE
 70
    6
  9
$SURFU
 70
    6
  9
$SURFV
 70
    6
  9
$UCSBASE
  2

  9
$UCSNAME
  2

  9
$UCSORG
 10
0
 20
0
 30
0
  9
$UCSXDIR
 10
1
 20
0
 30
0
  9
$UCSYDIR
 10
0
 20
1
 30
0
  9
$UCSORTHOREF
  2

  9
$UCSORTHOVIEW
 70
    0
  9
$UCSORGTOP
 10
0
 20
0
 30
0
  9
$UCSORGBOTTOM
 10
0
 20
0
 30
0
  9
$UCSORGLEFT
 10
0
 20
0
 30
0
  9
$UCSORGRIGHT
 10
0
 20
0
 30
0
  9
$UCSORGFRONT
 10
0
 20
0
 30
0
  9
$UCSORGBACK
 10
0
 20
0
 30
0
  9
$PUCSBASE
  2

  9
$PUCSNAME
  2

  9
$PUCSORG
 10
0
 20
0
 30
0
  9
$PUCSXDIR
 10
1
 20
0
 30
0
  9
$PUCSYDIR
 10
0
 20
1
 30
0
  9
$PUCSORTHOREF
  2

  9
$PUCSORTHOVIEW
 70
    0
  9
$PUCSORGTOP
 10
0
 20
0
 30
0
  9
$PUCSORGBOTTOM
 10
0
 20
0
 30
0
  9
$PUCSORGLEFT
 10
0
 20
0
 30
0
  9
$PUCSORGRIGHT
 10
0
 20
0
 30
0
  9
$PUCSORGFRONT
 10
0
 20
0
 30
0
  9
$PUCSORGBACK
 10
0
 20
0
 30
0
  9
$USERI1
 70
    0
  9
$USERI2
 70
    0
  9
$USERI3
 70
    0
  9
$USERI4
 70
    0
  9
$USERI5
 70
    0
  9
$USERR1
 40
0
  9
$USERR2
 40
0
  9
$USERR3
 40
0
  9
$USERR4
 40
0
  9
$USERR5
 40
0
  9
$WORLDVIEW
 70
    1
  9
$SHADEDGE
 70
    3
  9
$SHADEDIF
 70
   70
  9
$TILEMODE
 70
    1
  9
$MAXACTVP
 70
   64
  9
$PINSBASE
 10
0
 20
0
 30
0
  9
$PLIMCHECK
 70
    0
  9
$PEXTMIN
 10
0
 20
0
 30
0
  9
$PEXTMAX
 10
0
 20
0
 30
0
  9
$GRIDMODE
 70
    1
  9
$SNAPSTYLE
 70
    0
  9
$PLIMMIN
 10
0
 20
0
  9
$PLIMMAX
 10
297
 20
210
  9
$UNITMODE
 70
    0
  9
$VISRETAIN
 70
    1
  9
$PLINEGEN
 70
    0
  9
$PSLTSCALE
 70
    1
  9
$TREEDEPTH
 70
 3020
  9
$CMLSTYLE
  2
Standard
  9
$CMLJUST
 70
    0
  9
$CMLSCALE
 40
1
  9
$PROXYGRAPHICS
 70
    1
  9
$MEASUREMENT
 70
    1
  9
$CELWEIGHT
370
   -1
  9
$ENDCAPS
280
    0
  9
$JOINSTYLE
280
    0
  9
$LWDISPLAY
290
    0
  9
$INSUNITS
 70
    4
  9
$HYPERLINKBASE
  1

  9
$STYLESHEET
  1

  9
$XEDIT
290
    1
  9
$CEPSNTYPE
380
    0
  9
$PSTYLEMODE
290
    1
  9
$EXTNAMES
290
    1
  9
$PSVPSCALE
 40
0
  9
$OLESTARTUP
290
    0
  9
$SORTENTS
280
  127
  9
$INDEXCTL
280
    0
  9
$HIDETEXT
280
    1
  9
$XCLIPFRAME
290
    2
  9
$HALOGAP
280
    0
  9
$OBSCOLOR
 70
  257
  9
$OBSLTYPE
280
    0
  9
$INTERSECTIONDISPLAY
280
    0
  9
$INTERSECTIONCOLOR
 70
  257
  9
$DIMASSOC
280
    2
  9
$PROJECTNAME
  1

  9
$CAMERADISPLAY
290
    0
  9
$LENSLENGTH
 40
50
  9
$CAMERAHEIGHT
 40
0
  9
$STEPSPERSEC
 40
2
  9
$STEPSIZE
 40
6
  9
$3DDWFPREC
 40
2
  9
$PSOLWIDTH
 40
0.25
  9
$PSOLHEIGHT
 40
4
  9
$LOFTANG1
 40
1.570796326794897
  9
$LOFTANG2
 40
1.570796326794897
  9
$LOFTMAG1
 40
0
  9
$LOFTMAG2
 40
0
  9
$LOFTPARAM
 70
    7
  9
$LOFTNORMALS
280
    1
  9
$LATITUDE
 40
37.795
  9
$LONGITUDE
 40
-122.394
  9
$NORTHDIRECTION
 40
0
  9
$TIMEZONE
 70
-8000
  9
$LIGHTGLYPHDISPLAY
280
    1
  9
$TILEMODELIGHTSYNCH
280
    1
  9
$SOLIDHIST
280
    0
  9
$SHOWHIST
280
    1
  9
$DWFFRAME
280
    2
  9
$DGNFRAME
280
    2
  9
$REALWORLDSCALE
290
    1
  9
$INTERFERECOLOR
 62
  256
  9
$CSHADOW
280
    0
  9
$SHADOWPLANELOCATION
 40
0
  0
ENDSEC
  0
SECTION
  2
CLASSES
  0
ENDSEC
  0
SECTION
  2
TABLES
  0
TABLE
  2
VPORT
  5
8
330
0
100
AcDbSymbolTable
 70
    1
  0
VPORT
  5
31
330
2
100
AcDbSymbolTableRecord
100
AcDbViewportTableRecord
  2
*ACTIVE
 70
    0
 10
0
 20
0
 11
1
 21
1
 12
163.6021015348289
 22
33.2579220779221
 13
0
 23
0
 14
10
 24
10
 15
10
 25
10
 16
0
 26
0
 36
1
 17
0
 27
0
 37
0
 40
291.2587721369541
 41
1.794694348327566
 42
50
 43
0
 44
0
 50
0
 51
0
 71
    0
 72
  100
 73
    1
 74
    3
 75
    0
 76
    1
 77
    0
 78
    0
281
    0
 65
    1
110
0
120
0
130
0
111
1
121
0
131
0
112
0
122
1
132
0
 79
    0
146
0
348
10020
 60
    7
 61
    5
292
1
282
    1
141
0
142
0
 63
  250
421
3358443
  0
ENDTAB
  0
TABLE
  2
LTYPE
  5
5
330
0
100
AcDbSymbolTable
 70
    4
  0
LTYPE
  5
14
330
5
100
AcDbSymbolTableRecord
100
AcDbLinetypeTableRecord
  2
ByBlock
 70
    0
  3

 72
   65
 73
    0
 40
0
  0
LTYPE
  5
15
330
5
100
AcDbSymbolTableRecord
100
AcDbLinetypeTableRecord
  2
ByLayer
 70
    0
  3

 72
   65
 73
    0
 40
0
  0
LTYPE
  5
16
330
5
100
AcDbSymbolTableRecord
100
AcDbLinetypeTableRecord
  2
Continuous
 70
    0
  3
Solid line
 72
   65
 73
    0
 40
0
  0
LTYPE
  5
32
330
5
100
AcDbSymbolTableRecord
100
AcDbLinetypeTableRecord
  2
DOT
 70
    0
  3
Dot . . . . . . . . . . . . . . . . . . . . . .
 72
   65
 73
    2
 40
6.35
 49
0
 74
    0
 49
-6.35
 74
    0
  0
LTYPE
  5
33
330
5
100
AcDbSymbolTableRecord
100
AcDbLinetypeTableRecord
  2
DOTTINY
 70
    0
  3
Dot (.15x) .....................................
 72
   65
 73
    2
 40
0.9525
 49
0
 74
    0
 49
-0.9525
 74
    0
  0
LTYPE
  5
34
330
5
100
AcDbSymbolTableRecord
100
AcDbLinetypeTableRecord
  2
DOT2
 70
    0
  3
Dot (.5x) .....................................
 72
   65
 73
    2
 40
3.175
 49
0
 74
    0
 49
-3.175
 74
    0
  0
LTYPE
  5
35
330
5
100
AcDbSymbolTableRecord
100
AcDbLinetypeTableRecord
  2
DOTX2
 70
    0
  3
Dot (2x) .  .  .  .  .  .  .  .  .  .  .  .  .
 72
   65
 73
    2
 40
12.7
 49
0
 74
    0
 49
-12.7
 74
    0
  0
LTYPE
  5
36
330
5
100
AcDbSymbolTableRecord
100
AcDbLinetypeTableRecord
  2
DASHED
 70
    0
  3
Dashed _ _ _ _ _ _ _ _ _ _ _ _ _ _ _ _ _
 72
   65
 73
    2
 40
19.05
 49
12.7
 74
    0
 49
-6.35
 74
    0
  0
LTYPE
  5
37
330
5
100
AcDbSymbolTableRecord
100
AcDbLinetypeTableRecord
  2
DASHEDTINY
 70
    0
  3
Dashed (.15x) _ _ _ _ _ _ _ _ _ _ _ _ _ _ _ _ _
 72
   65
 73
    2
 40
2.8575
 49
1.905
 74
    0
 49
-0.9525
 74
    0
  0
LTYPE
  5
38
330
5
100
AcDbSymbolTableRecord
100
AcDbLinetypeTableRecord
  2
DASHED2
 70
    0
  3
Dashed (.5x) _ _ _ _ _ _ _ _ _ _ _ _ _ _ _ _ _
 72
   65
 73
    2
 40
9.524999999999999
 49
6.35
 74
    0
 49
-3.175
 74
    0
  0
LTYPE
  5
39
330
5
100
AcDbSymbolTableRecord
100
AcDbLinetypeTableRecord
  2
DASHEDX2
 70
    0
  3
Dashed (2x) ____  ____  ____  ____  ____  ___
 72
   65
 73
    2
 40
38.09999999999999
 49
25.4
 74
    0
 49
-12.7
 74
    0
  0
LTYPE
  5
3A
330
5
100
AcDbSymbolTableRecord
100
AcDbLinetypeTableRecord
  2
DASHDOT
 70
    0
  3
Dash dot __ . __ . __ . __ . __ . __ . __ . __
 72
   65
 73
    4
 40
25.4
 49
12.7
 74
    0
 49
-6.35
 74
    0
 49
0
 74
    0
 49
-6.35
 74
    0
  0
LTYPE
  5
3B
330
5
100
AcDbSymbolTableRecord
100
AcDbLinetypeTableRecord
  2
DASHDOTTINY
 70
    0
  3
Dash dot (.15x) _._._._._._._._._._._._._._._.
 72
   65
 73
    4
 40
3.81
 49
1.905
 74
    0
 49
-0.9525
 74
    0
 49
0
 74
    0
 49
-0.9525
 74
    0
  0
LTYPE
  5
3C
330
5
100
AcDbSymbolTableRecord
100
AcDbLinetypeTableRecord
  2
DASHDOT2
 70
    0
  3
Dash dot (.5x) _._._._._._._._._._._._._._._.
 72
   65
 73
    4
 40
12.7
 49
6.35
 74
    0
 49
-3.175
 74
    0
 49
0
 74
    0
 49
-3.175
 74
    0
  0
LTYPE
  5
3D
330
5
100
AcDbSymbolTableRecord
100
AcDbLinetypeTableRecord
  2
DASHDOTX2
 70
    0
  3
Dash dot (2x) ____  .  ____  .  ____  .  ___
 72
   65
 73
    4
 40
50.8
 49
25.4
 74
    0
 49
-12.7
 74
    0
 49
0
 74
    0
 49
-12.7
 74
    0
  0
LTYPE
  5
3E
330
5
100
AcDbSymbolTableRecord
100
AcDbLinetypeTableRecord
  2
DIVIDE
 70
    0
  3
Divide ____ . . ____ . . ____ . . ____ . . ____
 72
   65
 73
    6
 40
31.75
 49
12.7
 74
    0
 49
-6.35
 74
    0
 49
0
 74
    0
 49
-6.35
 74
    0
 49
0
 74
    0
 49
-6.35
 74
    0
  0
LTYPE
  5
3F
330
5
100
AcDbSymbolTableRecord
100
AcDbLinetypeTableRecord
  2
DIVIDETINY
 70
    0
  3
Divide (.15x) __..__..__..__..__..__..__..__.._
 72
   65
 73
    6
 40
4.7625
 49
1.905
 74
    0
 49
-0.9525
 74
    0
 49
0
 74
    0
 49
-0.9525
 74
    0
 49
0
 74
    0
 49
-0.9525
 74
    0
  0
LTYPE
  5
40
330
5
100
AcDbSymbolTableRecord
100
AcDbLinetypeTableRecord
  2
DIVIDE2
 70
    0
  3
Divide (.5x) __..__..__..__..__..__..__..__.._
 72
   65
 73
    6
 40
15.875
 49
6.35
 74
    0
 49
-3.175
 74
    0
 49
0
 74
    0
 49
-3.175
 74
    0
 49
0
 74
    0
 49
-3.175
 74
    0
  0
LTYPE
  5
41
330
5
100
AcDbSymbolTableRecord
100
AcDbLinetypeTableRecord
  2
DIVIDEX2
 70
    0
  3
Divide (2x) ________  .  .  ________  .  .  _
 72
   65
 73
    6
 40
63.5
 49
25.4
 74
    0
 49
-12.7
 74
    0
 49
0
 74
    0
 49
-12.7
 74
    0
 49
0
 74
    0
 49
-12.7
 74
    0
  0
LTYPE
  5
42
330
5
100
AcDbSymbolTableRecord
100
AcDbLinetypeTableRecord
  2
BORDER
 70
    0
  3
Border __ __ . __ __ . __ __ . __ __ . __ __ .
 72
   65
 73
    6
 40
44.45
 49
12.7
 74
    0
 49
-6.35
 74
    0
 49
12.7
 74
    0
 49
-6.35
 74
    0
 49
0
 74
    0
 49
-6.35
 74
    0
  0
LTYPE
  5
43
330
5
100
AcDbSymbolTableRecord
100
AcDbLinetypeTableRecord
  2
BORDERTINY
 70
    0
  3
Border (.15x) __.__.__.__.__.__.__.__.__.__.__.
 72
   65
 73
    6
 40
6.6675
 49
1.905
 74
    0
 49
-0.9525
 74
    0
 49
1.905
 74
    0
 49
-0.9525
 74
    0
 49
0
 74
    0
 49
-0.9525
 74
    0
  0
LTYPE
  5
44
330
5
100
AcDbSymbolTableRecord
100
AcDbLinetypeTableRecord
  2
BORDER2
 70
    0
  3
Border (.5x) __.__.__.__.__.__.__.__.__.__.__.
 72
   65
 73
    6
 40
22.225
 49
6.35
 74
    0
 49
-3.175
 74
    0
 49
6.35
 74
    0
 49
-3.175
 74
    0
 49
0
 74
    0
 49
-3.175
 74
    0
  0
LTYPE
  5
45
330
5
100
AcDbSymbolTableRecord
100
AcDbLinetypeTableRecord
  2
BORDERX2
 70
    0
  3
Border (2x) ____  ____  .  ____  ____  .  ___
 72
   65
 73
    6
 40
88.89999999999999
 49
25.4
 74
    0
 49
-12.7
 74
    0
 49
25.4
 74
    0
 49
-12.7
 74
    0
 49
0
 74
    0
 49
-12.7
 74
    0
  0
LTYPE
  5
46
330
5
100
AcDbSymbolTableRecord
100
AcDbLinetypeTableRecord
  2
CENTER
 70
    0
  3
Center ____ _ ____ _ ____ _ ____ _ ____ _ ____
 72
   65
 73
    4
 40
50.8
 49
31.75
 74
    0
 49
-6.35
 74
    0
 49
6.35
 74
    0
 49
-6.35
 74
    0
  0
LTYPE
  5
47
330
5
100
AcDbSymbolTableRecord
100
AcDbLinetypeTableRecord
  2
CENTERTINY
 70
    0
  3
Center (.15x) ___ _ ___ _ ___ _ ___ _ ___ _ ___
 72
   65
 73
    4
 40
7.62
 49
4.7625
 74
    0
 49
-0.9525
 74
    0
 49
0.9525
 74
    0
 49
-0.9525
 74
    0
  0
LTYPE
  5
48
330
5
100
AcDbSymbolTableRecord
100
AcDbLinetypeTableRecord
  2
CENTER2
 70
    0
  3
Center (.5x) ___ _ ___ _ ___ _ ___ _ ___ _ ___
 72
   65
 73
    4
 40
28.575
 49
19.05
 74
    0
 49
-3.175
 74
    0
 49
3.175
 74
    0
 49
-3.175
 74
    0
  0
LTYPE
  5
49
330
5
100
AcDbSymbolTableRecord
100
AcDbLinetypeTableRecord
  2
CENTERX2
 70
    0
  3
Center (2x) ________  __  ________  __  _____
 72
   65
 73
    4
 40
101.6
 49
63.5
 74
    0
 49
-12.7
 74
    0
 49
12.7
 74
    0
 49
-12.7
 74
    0
  0
ENDTAB
  0
TABLE
  2
LAYER
  5
2
330
0
100
AcDbSymbolTable
 70
    1
  0
LAYER
  5
10
330
2
100
AcDbSymbolTableRecord
100
AcDbLayerTableRecord
  2
0
 70
    0
 62
  256
  6
CONTINUOUS
370
   25
390
F
  0
LAYER
  5
4A
330
2
100
AcDbSymbolTableRecord
100
AcDbLayerTableRecord
  2
Defpoints
 70
    0
 62
  256
  6
CONTINUOUS
290
0
370
   -3
390
F
  0
LAYER
  5
4B
330
2
100
AcDbSymbolTableRecord
100
AcDbLayerTableRecord
  2
arms
 70
    0
 62
    7
  6
CONTINUOUS
370
   25
390
F
  0
LAYER
  5
4C
330
2
100
AcDbSymbolTableRecord
100
AcDbLayerTableRecord
  2
bottom plate
 70
    0
 62
    4
  6
CONTINUOUS
370
   25
390
F
  0
LAYER
  5
4D
330
2
100
AcDbSymbolTableRecord
100
AcDbLayerTableRecord
  2
meassures
 70
    1
 62
   30
  6
CONTINUOUS
370
   25
390
F
  0
LAYER
  5
4E
330
2
100
AcDbSymbolTableRecord
100
AcDbLayerTableRecord
  2
motors
 70
    0
 62
    5
  6
CONTINUOUS
370
   25
390
F
  0
LAYER
  5
4F
330
2
100
AcDbSymbolTableRecord
100
AcDbLayerTableRecord
  2
props
 70
    0
 62
    2
  6
CONTINUOUS
370
   25
390
F
  0
LAYER
  5
50
330
2
100
AcDbSymbolTableRecord
100
AcDbLayerTableRecord
  2
references
 70
    1
 62
    1
  6
DASHED
370
   25
390
F
  0
LAYER
  5
51
330
2
100
AcDbSymbolTableRecord
100
AcDbLayerTableRecord
  2
reinforcement
 70
    0
 62
    6
  6
CONTINUOUS
370
   25
390
F
  0
LAYER
  5
52
330
2
100
AcDbSymbolTableRecord
100
AcDbLayerTableRecord
  2
top plate
 70
    0
 62
    3
  6
CONTINUOUS
370
   25
390
F
  0
ENDTAB
  0
TABLE
  2
STYLE
  5
3
330
0
100
AcDbSymbolTable
 70
    3
  0
STYLE
  5
53
330
2
100
AcDbSymbolTableRecord
100
AcDbTextStyleTableRecord
  2
Standard
 70
    0
 40
0
 41
1
 50
0
 71
    0
 42
1
  3
txt
  4

  0
ENDTAB
  0
TABLE
  2
VIEW
  5
6
330
0
100
AcDbSymbolTable
 70
    0
  0
ENDTAB
  0
TABLE
  2
UCS
  5
7
330
0
100
AcDbSymbolTable
 70
    0
  0
ENDTAB
  0
TABLE
  2
APPID
  5
9
330
0
100
AcDbSymbolTable
 70
    1
  0
APPID
  5
12
330
9
100
AcDbSymbolTableRecord
100
AcDbRegAppTableRecord
  2
ACAD
 70
    0
  0
APPID
  5
54
330
9
100
AcDbSymbolTableRecord
100
AcDbRegAppTableRecord
  2
LibreCad
 70
    0
  0
ENDTAB
  0
TABLE
  2
DIMSTYLE
  5
A
330
0
100
AcDbSymbolTable
 70
    1
100
AcDbDimStyleTable
 71
    1
  0
DIMSTYLE
105
55
330
A
100
AcDbSymbolTableRecord
100
AcDbDimStyleTableRecord
  2
Standard
 70
    0
 40
1
 41
2.5
 42
0.625
 43
0.38
 44
1.25
 45
0
 46
0
 47
0
 48
0
 49
1
140
2.5
141
0.09
142
0
143
25.4
144
1
145
0
146
1
147
0.625
148
0
 71
    0
 72
    0
 73
    1
 74
    1
 75
    0
 76
    0
 77
    0
 78
    8
 79
    2
170
    0
171
    2
172
    0
173
    0
174
    0
175
    0
176
    0
177
    0
178
    0
179
    0
271
    4
272
    4
273
    2
274
    2
275
    0
276
    0
277
    2
278
   46
279
    0
280
    0
281
    0
282
    0
283
    1
284
    0
285
    0
286
    0
288
    0
289
    3
340
Standard
341

371
   -2
372
   -2
  0
ENDTAB
  0
TABLE
  2
BLOCK_RECORD
  5
1
330
0
100
AcDbSymbolTable
 70
    2
  0
BLOCK_RECORD
  5
1F
330
1
100
AcDbSymbolTableRecord
100
AcDbBlockTableRecord
  2
*Model_Space
 70
    0
280
    1
281
    0
  0
BLOCK_RECORD
  5
1E
330
1
100
AcDbSymbolTableRecord
100
AcDbBlockTableRecord
  2
*Paper_Space
 70
    0
280
    1
281
    0
  0
BLOCK_RECORD
  5
56
330
1
100
AcDbSymbolTableRecord
100
AcDbBlockTableRecord
  2
*D1
 70
    0
280
    1
281
    0
  0
BLOCK_RECORD
  5
59
330
1
100
AcDbSymbolTableRecord
100
AcDbBlockTableRecord
  2
*D4
 70
    0
280
    1
281
    0
  0
BLOCK_RECORD
  5
5C
330
1
100
AcDbSymbolTableRecord
100
AcDbBlockTableRecord
  2
*D2
 70
    0
280
    1
281
    0
  0
BLOCK_RECORD
  5
5F
330
1
100
AcDbSymbolTableRecord
100
AcDbBlockTableRecord
  2
*D3
 70
    0
280
    1
281
    0
  0
BLOCK_RECORD
  5
62
330
1
100
AcDbSymbolTableRecord
100
AcDbBlockTableRecord
  2
*D5
 70
    0
280
    1
281
    0
  0
ENDTAB
  0
ENDSEC
  0
SECTION
  2
BLOCKS
  0
BLOCK
  5
20
330
1F
100
AcDbEntity
  8
0
100
AcDbBlockBegin
  2
*Model_Space
 70
    0
 10
0
 20
0
 30
0
  3
*Model_Space
  1

  0
ENDBLK
  5
21
330
1F
100
AcDbEntity
  8
0
100
AcDbBlockEnd
  0
BLOCK
  5
1C
330
1B
100
AcDbEntity
  8
0
100
AcDbBlockBegin
  2
*Paper_Space
 70
    0
 10
0
 20
0
 30
0
  3
*Paper_Space
  1

  0
ENDBLK
  5
1D
330
1F
100
AcDbEntity
  8
0
100
AcDbBlockEnd
  0
BLOCK
  5
57
330
56
100
AcDbEntity
  8
0
100
AcDbBlockBegin
  2
*D1
 70
    1
 10
0
 20
0
  3
*D1
  1

  0
LINE
  5
65
100
AcDbEntity
  8
meassures
  6
ByBlock
 62
    0
370
   -2
100
AcDbLine
 10
0.4419417382415937
 20
0.4419417382415908
 11
10.3838834764832
 21
10.38388347648317
  0
LINE
  5
66
100
AcDbEntity
  8
meassures
  6
ByBlock
 62
    0
370
   -2
100
AcDbLine
 10
44.34194173824159
 20
-43.45805826175841
 11
54.2838834764832
 21
-33.51611652351683
  0
LINE
  5
67
100
AcDbEntity
  8
meassures
  6
ByBlock
 62
    0
370
   -2
100
AcDbLine
 10
9.500000000000014
 20
9.499999999999986
 11
28.24917478527522
 21
-9.249174785275221
  0
SOLID
  5
68
100
AcDbEntity
  8
meassures
  6
ByBlock
 62
    0
370
   -2
100
AcDbTrace
 10
9.500000000000014
 20
9.499999999999986
 30
0
 11
11.56212465738148
 21
8.026590751448714
 31
0
 12
10.97340924855129
 22
7.43787534261852
 32
0
 13
10.97340924855129
 23
7.43787534261852
 33
0
  0
SOLID
  5
69
100
AcDbEntity
  8
meassures
  6
ByBlock
 62
    0
370
   -2
100
AcDbTrace
 10
53.40000000000001
 20
-34.40000000000001
 30
0
 11
51.33787534261855
 21
-32.92659075144874
 31
0
 12
51.92659075144874
 22
-32.33787534261855
 32
0
 13
51.92659075144874
 23
-32.33787534261855
 33
0
  0
LINE
  5
6A
100
AcDbEntity
  8
meassures
  6
ByBlock
 62
    0
370
   -2
100
AcDbLine
 10
31.99917478527522
 20
-12.99917478527522
 11
53.40000000000001
 21
-34.40000000000001
  0
MTEXT
  5
6B
100
AcDbEntity
  8
meassures
  6
CONTINUOUS
 62
    0
370
   -2
100
AcDbMText
 10
32.77582521472478
 20
-11.12417478527522
 30
0
 40
2.5
 41
10.00000000000016
 71
    5
 72
    1
  1
62.084
  7
Standard
210
0
220
0
230
1
 50
0
 73
    2
 44
1
  0
ENDBLK
  5
58
330
56
100
AcDbEntity
  8
0
100
AcDbBlockEnd
  0
BLOCK
  5
5A
330
59
100
AcDbEntity
  8
0
100
AcDbBlockBegin
  2
*D4
 70
    1
 10
0
 20
0
  3
*D4
  1

  0
LINE
  5
6C
100
AcDbEntity
  8
meassures
  6
ByBlock
 62
    0
370
   -2
100
AcDbLine
 10
44.34194173824158
 20
-43.45805826175842
 11
54.28388347648316
 21
-33.51611652351681
  0
LINE
  5
6D
100
AcDbEntity
  8
meassures
  6
ByBlock
 62
    0
370
   -2
100
AcDbLine
 10
50.71194173824159
 20
-49.82805826175841
 11
60.65388347648317
 21
-39.8861165235168
  0
LINE
  5
6E
100
AcDbEntity
  8
meassures
  6
ByBlock
 62
    0
370
   -2
100
AcDbLine
 10
53.39999999999998
 20
-34.39999999999999
 11
59.76999999999999
 21
-40.76999999999998
  0
SOLID
  5
6F
100
AcDbEntity
  8
meassures
  6
ByBlock
 62
    0
370
   -2
100
AcDbTrace
 10
53.39999999999998
 20
-34.39999999999999
 30
0
 11
55.46212465738144
 21
-35.87340924855126
 31
0
 12
54.87340924855125
 22
-36.46212465738145
 32
0
 13
54.87340924855125
 23
-36.46212465738145
 33
0
  0
SOLID
  5
70
100
AcDbEntity
  8
meassures
  6
ByBlock
 62
    0
370
   -2
100
AcDbTrace
 10
59.76999999999999
 20
-40.76999999999998
 30
0
 11
57.70787534261852
 21
-39.29659075144871
 31
0
 12
58.29659075144871
 22
-38.70787534261852
 32
0
 13
58.29659075144871
 23
-38.70787534261852
 33
0
  0
MTEXT
  5
71
100
AcDbEntity
  8
meassures
  6
CONTINUOUS
 62
    0
370
   -2
100
AcDbMText
 10
60.26038130726958
 20
-50.27000000000001
 30
0
 40
2.5
 41
9.722222222222532
 71
    5
 72
    1
  1
9.0085
  7
Standard
210
0
220
0
230
1
 50
0
 73
    2
 44
1
  0
ENDBLK
  5
5B
330
59
100
AcDbEntity
  8
0
100
AcDbBlockEnd
  0
BLOCK
  5
5D
330
5C
100
AcDbEntity
  8
0
100
AcDbBlockBegin
  2
*D2
 70
    1
 10
0
 20
0
  3
*D2
  1

  0
LINE
  5
72
100
AcDbEntity
  8
meassures
  6
ByBlock
 62
    0
370
   -2
100
AcDbLine
 10
0.625
 20
8e-016
 11
1.25
 21
8e-016
  0
LINE
  5
73
100
AcDbEntity
  8
meassures
  6
ByBlock
 62
    0
370
   -2
100
AcDbLine
 10
0.625
 20
0
 11
1.25
 21
0
  0
LINE
  5
74
100
AcDbEntity
  8
meassures
  6
ByBlock
 62
    0
370
   -2
100
AcDbLine
 10
3.061515884555943e-016
 20
5.000000000000001
 11
1.148068456708479e-016
 21
1.875000000000001
  0
SOLID
  5
75
100
AcDbEntity
  8
meassures
  6
ByBlock
 62
    0
370
   -2
100
AcDbTrace
 10
0
 20
8e-016
 30
0
 11
-0.41628465777284
 21
2.500000000000001
 31
0
 12
0.4162846577728409
 22
2.500000000000001
 32
0
 13
0.4162846577728409
 23
2.500000000000001
 33
0
  0
SOLID
  5
76
100
AcDbEntity
  8
meassures
  6
ByBlock
 62
    0
370
   -2
100
AcDbTrace
 10
0
 20
0
 30
0
 11
0.4162846577728403
 21
-2.5
 31
0
 12
-0.4162846577728406
 22
-2.5
 32
0
 13
-0.4162846577728406
 23
-2.5
 33
0
  0
LINE
  5
77
100
AcDbEntity
  8
meassures
  6
ByBlock
 62
    0
370
   -2
100
AcDbLine
 10
-1.148068456708478e-016
 20
-1.875
 11
-3.061515884555943e-016
 21
-5
  0
MTEXT
  5
78
100
AcDbEntity
  8
meassures
  6
CONTINUOUS
 62
    0
370
   -2
100
AcDbMText
 10
1.180555555555556
 20
4.440892098500626e-016
 30
0
 40
2.5
 41
1.111111111111111
 71
    5
 72
    1
  1
0
  7
Standard
210
0
220
0
230
1
 50
0
 73
    2
 44
1
  0
ENDBLK
  5
5E
330
5C
100
AcDbEntity
  8
0
100
AcDbBlockEnd
  0
BLOCK
  5
60
330
5F
100
AcDbEntity
  8
0
100
AcDbBlockBegin
  2
*D3
 70
    1
 10
0
 20
0
  3
*D3
  1

  0
LINE
  5
79
100
AcDbEntity
  8
meassures
  6
ByBlock
 62
    0
370
   -2
100
AcDbLine
 10
3.826894855694929e-017
 20
0.625
 11
6.276107563339683e-016
 21
10.25
  0
LINE
  5
7A
100
AcDbEntity
  8
meassures
  6
ByBlock
 62
    0
370
   -2
100
AcDbLine
 10
-63
 20
0.625
 11
-63
 21
10.25
  0
LINE
  5
7B
100
AcDbEntity
  8
meassures
  6
ByBlock
 62
    0
370
   -2
100
AcDbLine
 10
5.510728592200698e-016
 20
9
 11
-29.34722222222207
 21
9
  0
SOLID
  5
7C
100
AcDbEntity
  8
meassures
  6
ByBlock
 62
    0
370
   -2
100
AcDbTrace
 10
5.510728592200698e-016
 20
9
 30
0
 11
-2.5
 21
8.58371534222716
 31
0
 12
-2.5
 22
9.41628465777284
 32
0
 13
-2.5
 23
9.41628465777284
 33
0
  0
SOLID
  5
7D
100
AcDbEntity
  8
meassures
  6
ByBlock
 62
    0
370
   -2
100
AcDbTrace
 10
-63
 20
9
 30
0
 11
-60.5
 21
9.41628465777284
 31
0
 12
-60.5
 22
8.583715342227158
 32
0
 13
-60.5
 23
8.583715342227158
 33
0
  0
LINE
  5
7E
100
AcDbEntity
  8
meassures
  6
ByBlock
 62
    0
370
   -2
100
AcDbLine
 10
-33.65277777777793
 20
9
 11
-63
 21
9
  0
MTEXT
  5
7F
100
AcDbEntity
  8
meassures
  6
CONTINUOUS
 62
    0
370
   -2
100
AcDbMText
 10
-31.5
 20
10.875
 30
0
 40
2.5
 41
3.055555555555866
 71
    5
 72
    1
  1
63
  7
Standard
210
0
220
0
230
1
 50
0
 73
    2
 44
1
  0
ENDBLK
  5
61
330
5F
100
AcDbEntity
  8
0
100
AcDbBlockEnd
  0
BLOCK
  5
63
330
62
100
AcDbEntity
  8
0
100
AcDbBlockBegin
  2
*D5
 70
    1
 10
0
 20
0
  3
*D5
  1

  0
LINE
  5
80
100
AcDbEntity
  8
meassures
  6
ByBlock
 62
    0
370
   -2
100
AcDbLine
 10
-7.5
 20
-17.81690518759117
 11
-1.875000000000078
 21
-17.81690518759117
  0
SOLID
  5
81
100
AcDbEntity
  8
meassures
  6
ByBlock
 62
    0
370
   -2
100
AcDbTrace
 10
-7.5
 20
-17.81690518759117
 30
0
 11
-5
 21
-17.40062052981833
 31
0
 12
-5
 22
-18.23318984536401
 32
0
 13
-5
 23
-18.23318984536401
 33
0
  0
SOLID
  5
82
100
AcDbEntity
  8
meassures
  6
ByBlock
 62
    0
370
   -2
100
AcDbTrace
 10
7.5
 20
-17.81690518759117
 30
0
 11
5
 21
-18.23318984536401
 31
0
 12
5
 22
-17.40062052981833
 32
0
 13
5
 23
-17.40062052981833
 33
0
  0
LINE
  5
83
100
AcDbEntity
  8
meassures
  6
ByBlock
 62
    0
370
   -2
100
AcDbLine
 10
1.875000000000078
 20
-17.81690518759117
 11
7.5
 21
-17.81690518759117
  0
MTEXT
  5
84
100
AcDbEntity
  8
meassures
  6
CONTINUOUS
 62
    0
370
   -2
100
AcDbMText
 10
0
 20
-17.81690518759117
 30
0
 40
2.5
 41
2.500000000000155
 71
    5
 72
    1
  1
15
  7
Standard
210
0
220
0
230
1
 50
0
 73
    2
 44
1
  0
LINE
  5
85
100
AcDbEntity
  8
meassures
  6
ByBlock
 62
    0
370
   -2
100
AcDbLine
 10
-7.5
 20
-0.625
 11
-7.5
 21
-19.06690518759117
  0
LINE
  5
86
100
AcDbEntity
  8
meassures
  6
ByBlock
 62
    0
370
   -2
100
AcDbLine
 10
7.5
 20
-0.625
 11
7.5
 21
-19.06690518759117
  0
ENDBLK
  5
64
330
62
100
AcDbEntity
  8
0
100
AcDbBlockEnd
  0
ENDSEC
  0
SECTION
  2
ENTITIES
  0
CIRCLE
  5
87
100
AcDbEntity
  8
props
  6
ByLayer
 62
  256
370
   -1
100
AcDbCircle
 10
0
 20
0
 40
63
  0
CIRCLE
  5
88
100
AcDbEntity
  8
arms
  6
ByLayer
 62
  256
370
   -1
100
AcDbCircle
 10
0
 20
8e-016
 40
2.5
  0
LINE
  5
89
100
AcDbEntity
  8
references
  6
ByLayer
 62
  256
370
   -1
100
AcDbLine
 10
77.77186724776891
 20
-47.27186724776895
 11
83.76813275223083
 21
-53.26813275223093
  0
LINE
  5
8A
100
AcDbEntity
  8
references
  6
ByLayer
 62
  256
370
   -1
100
AcDbLine
 10
53.26813275223108
 20
-47.27186724776919
 11
47.2718672477691
 21
-53.26813275223109
  0
CIRCLE
  5
8B
100
AcDbEntity
  8
arms
  6
ByLayer
 62
  256
370
   -1
100
AcDbCircle
 10
43.9
 20
-43.9
 40
1.5
  0
CIRCLE
  5
8C
100
AcDbEntity
  8
arms
  6
ByLayer
 62
  256
370
   -1
100
AcDbCircle
 10
50.27
 20
-50.27
 40
1.5
  0
CIRCLE
  5
8D
100
AcDbEntity
  8
references
  6
ByLayer
 62
  256
370
   -1
100
AcDbCircle
 10
11
 20
-11
 40
4
  0
DIMENSION
  5
8E
100
AcDbEntity
  8
meassures
  6
ByLayer
 62
  256
370
   -1
100
AcDbDimension
  2
*D1
 10
53.40000000000001
 20
-34.40000000000001
 30
0
 11
32.77582521472478
 21
-11.12417478527522
 31
0
 70
   33
 71
    5
 72
    0
  3
QCADDimStyle
 53
0
210
0
220
0
230
1
100
AcDbAlignedDimension
 13
8e-016
 23
-8e-016
 33
0
 14
43.9
 24
-43.9
 34
0
  0
LINE
  5
8F
100
AcDbEntity
  8
references
  6
ByLayer
 62
  256
370
   -1
100
AcDbLine
 10
50.2700000000001
 20
-50.27000000000013
 11
80.7700000000001
 21
-50.27000000000013
  0
LINE
  5
90
100
AcDbEntity
  8
references
  6
ByLayer
 62
  256
370
   -1
100
AcDbLine
 10
50.27000000000009
 20
-108.2700000000001
 11
50.27000000000009
 21
-50.27000000000013
  0
LINE
  5
91
100
AcDbEntity
  8
references
  6
ByLayer
 62
  256
370
   -1
100
AcDbLine
 10
80.7700000000001
 20
-108.2700000000001
 11
80.7700000000001
 21
-50.27000000000013
  0
LINE
  5
92
100
AcDbEntity
  8
references
  6
ByLayer
 62
  256
370
   -1
100
AcDbLine
 10
50.27000000000009
 20
-108.2700000000001
 11
80.7700000000001
 21
-108.2700000000001
  0
LINE
  5
93
100
AcDbEntity
  8
references
  6
ByLayer
 62
  256
370
   -1
100
AcDbLine
 10
50.27000000000009
 20
-50.27000000000013
 11
80.7700000000001
 21
-108.2700000000002
  0
LINE
  5
94
100
AcDbEntity
  8
references
  6
ByLayer
 62
  256
370
   -1
100
AcDbLine
 10
80.77000000000011
 20
-50.27
 11
50.2700000000001
 21
-108.2700000000001
  0
LINE
  5
95
100
AcDbEntity
  8
references
  6
ByLayer
 62
  256
370
   -1
100
AcDbLine
 10
50.27000000000008
 20
-79.2700000000001
 11
80.77000000000008
 21
-79.2700000000001
  0
LINE
  5
96
100
AcDbEntity
  8
references
  6
ByLayer
 62
  256
370
   -1
100
AcDbLine
 10
65.52000000000005
 20
-108.2700000000001
 11
65.52000000000005
 21
-50.27000000000008
  0
LINE
  5
97
100
AcDbEntity
  8
references
  6
ByLayer
 62
  256
370
   -1
100
AcDbLine
 10
65.52000000000005
 20
-108.2700000000001
 11
65.52000000000005
 21
-100.2700000000001
  0
LINE
  5
98
100
AcDbEntity
  8
references
  6
ByLayer
 62
  256
370
   -1
100
AcDbLine
 10
55.52000000000005
 20
-100.2700000000001
 11
75.52000000000005
 21
-100.2700000000001
  0
LINE
  5
99
100
AcDbEntity
  8
references
  6
ByLayer
 62
  256
370
   -1
100
AcDbLine
 10
55.52000000000005
 20
-100.2700000000001
 11
55.52000000000005
 21
-80.2700000000001
  0
LINE
  5
9A
100
AcDbEntity
  8
references
  6
ByLayer
 62
  256
370
   -1
100
AcDbLine
 10
75.52000000000005
 20
-100.2700000000001
 11
75.52000000000005
 21
-80.2700000000001
  0
LINE
  5
9B
100
AcDbEntity
  8
references
  6
ByLayer
 62
  256
370
   -1
100
AcDbLine
 10
55.52000000000005
 20
-80.2700000000001
 11
75.52000000000005
 21
-80.2700000000001
  0
CIRCLE
  5
9C
100
AcDbEntity
  8
bottom plate
  6
ByLayer
 62
  256
370
   -1
100
AcDbCircle
 10
43.89999999999999
 20
-43.90000000000001
 40
1.5
  0
CIRCLE
  5
9D
100
AcDbEntity
  8
bottom plate
  6
ByLayer
 62
  256
370
   -1
100
AcDbCircle
 10
50.2700000000001
 20
-50.27000000000013
 40
1.5
  0
CIRCLE
  5
9E
100
AcDbEntity
  8
bottom plate
  6
ByLayer
 62
  256
370
   -1
100
AcDbCircle
 10
87.13999999999999
 20
-43.89999999999985
 40
1.5
  0
CIRCLE
  5
9F
100
AcDbEntity
  8
bottom plate
  6
ByLayer
 62
  256
370
   -1
100
AcDbCircle
 10
80.76999999999998
 20
-50.27000000000013
 40
1.5
  0
CIRCLE
  5
A0
100
AcDbEntity
  8
bottom plate
  6
ByLayer
 62
  256
370
   -1
100
AcDbCircle
 10
50.2700000000001
 20
-108.2700000000001
 40
1.5
  0
CIRCLE
  5
A1
100
AcDbEntity
  8
bottom plate
  6
ByLayer
 62
  256
370
   -1
100
AcDbCircle
 10
43.90000000000001
 20
-114.6400000000003
 40
1.5
  0
CIRCLE
  5
A2
100
AcDbEntity
  8
bottom plate
  6
ByLayer
 62
  256
370
   -1
100
AcDbCircle
 10
80.77000000000012
 20
-108.2700000000001
 40
1.5
  0
CIRCLE
  5
A3
100
AcDbEntity
  8
bottom plate
  6
ByLayer
 62
  256
370
   -1
100
AcDbCircle
 10
87.14000000000027
 20
-114.6400000000002
 40
1.5
  0
CIRCLE
  5
A4
100
AcDbEntity
  8
bottom plate
  6
ByLayer
 62
  256
370
   -1
100
AcDbCircle
 10
55.52000000000005
 20
-100.2700000000001
 40
1
  0
CIRCLE
  5
A5
100
AcDbEntity
  8
bottom plate
  6
ByLayer
 62
  256
370
   -1
100
AcDbCircle
 10
75.52000000000005
 20
-100.2700000000001
 40
1
  0
CIRCLE
  5
A6
100
AcDbEntity
  8
bottom plate
  6
ByLayer
 62
  256
370
   -1
100
AcDbCircle
 10
75.52000000000005
 20
-80.2700000000001
 40
1
  0
CIRCLE
  5
A7
100
AcDbEntity
  8
bottom plate
  6
ByLayer
 62
  256
370
   -1
100
AcDbCircle
 10
55.52000000000005
 20
-80.2700000000001
 40
1
  0
LINE
  5
A8
100
AcDbEntity
  8
references
  6
ByLayer
 62
  256
370
   -1
100
AcDbLine
 10
80.77000000000014
 20
-50.26999999999997
 11
50.2700000000001
 21
-79.27000000000011
  0
LINE
  5
A9
100
AcDbEntity
  8
references
  6
ByLayer
 62
  256
370
   -1
100
AcDbLine
 10
75.52000000000005
 20
-80.2700000000001
 11
55.52000000000005
 21
-100.2700000000001
  0
CIRCLE
  5
AA
100
AcDbEntity
  8
bottom plate
  6
ByLayer
 62
  256
370
   -1
100
AcDbCircle
 10
65.52000000000005
 20
-90.27000000000011
 40
5.119751269282875
  0
CIRCLE
  5
AB
100
AcDbEntity
  8
bottom plate
  6
ByLayer
 62
  256
370
   -1
100
AcDbCircle
 10
65.52000000000005
 20
-64.7700000000001
 40
6.74876303678197
  0
ARC
  5
AC
100
AcDbEntity
  8
bottom plate
  6
ByLayer
 62
  256
370
   -1
100
AcDbCircle
 10
43.89999999999999
 20
-43.90000000000002
 40
4.000000000000022
100
AcDbArc
 50
45
 51
224.9999999999999
  0
ARC
  5
AD
100
AcDbEntity
  8
bottom plate
  6
ByLayer
 62
  256
370
   -1
100
AcDbCircle
 10
87.1400000000001
 20
-43.89999999999997
 40
3.999999999999836
100
AcDbArc
 50
314.9999999999998
 51
134.9999999999996
  0
ARC
  5
AE
100
AcDbEntity
  8
bottom plate
  6
ByLayer
 62
  256
370
   -1
100
AcDbCircle
 10
87.14000000000021
 20
-114.6400000000002
 40
3.999999999999922
100
AcDbArc
 50
225.0000000000002
 51
44.99999999999986
  0
ARC
  5
AF
100
AcDbEntity
  8
bottom plate
  6
ByLayer
 62
  256
370
   -1
100
AcDbCircle
 10
43.89999999999996
 20
-114.6400000000002
 40
3.999999999999927
100
AcDbArc
 50
134.9999999999996
 51
314.9999999999998
  0
LINE
  5
B0
100
AcDbEntity
  8
references
  6
ByLayer
 62
  256
370
   -1
100
AcDbLine
 10
41.07157287525378
 20
-46.72842712474622
 11
50.70391381276322
 21
-56.888053498958
  0
LINE
  5
B1
100
AcDbEntity
  8
references
  6
ByLayer
 62
  256
370
   -1
100
AcDbLine
 10
89.96842712474617
 20
-46.72842712474605
 11
80.3360861872367
 21
-56.88805349895781
  0
SPLINE
  5
B2
100
AcDbEntity
  8
bottom plate
  6
ByLayer
 62
  256
370
   -1
100
AcDbSpline
210
0
220
0
230
0
 70
    8
 71
    3
 72
    8
 73
    4
 74
    0
 42
1e-007
 43
1e-007
 40
0
 40
0
 40
0
 40
0
 40
1
 40
1
 40
1
 40
1
 10
46.7284271247462
 20
-41.07157287525381
 30
0
 10
65.52000000000005
 20
-50.27000000000012
 30
0
 10
84.31157287525404
 20
-41.07157287525389
 30
0
 10
84.3115728752538
 20
-41.07157287525365
 30
0
  0
SPLINE
  5
B3
100
AcDbEntity
  8
bottom plate
  6
ByLayer
 62
  256
370
   -1
100
AcDbSpline
210
0
220
0
230
0
 70
    8
 71
    3
 72
   11
 73
    7
 74
    0
 42
1e-007
 43
1e-007
 40
0
 40
0
 40
0
 40
0
 40
1
 40
2
 40
3
 40
4
 40
4
 40
4
 40
4
 10
41.0715728752527
 20
-46.72842712474508
 30
0
 10
47.27186724776909
 20
-53.2681327522311
 30
0
 10
50.2700000000001
 20
-56.43038674433596
 30
0
 10
50.27000000000012
 20
-79.2700000000001
 30
0
 10
47.27186724776917
 20
-105.2718672477692
 30
0
 10
41.07157287525384
 20
-111.8115728752541
 30
0
 10
41.07157287525381
 20
-111.8115728752541
 30
0
  0
SPLINE
  5
B4
100
AcDbEntity
  8
bottom plate
  6
ByLayer
 62
  256
370
   -1
100
AcDbSpline
210
0
220
0
230
0
 70
    8
 71
    3
 72
   11
 73
    7
 74
    0
 42
1e-007
 43
1e-007
 40
0
 40
0
 40
0
 40
0
 40
1
 40
2
 40
3
 40
4
 40
4
 40
4
 40
4
 10
89.96842712474621
 20
-46.728427124746
 30
0
 10
83.76813275223199
 20
-53.26813275223203
 30
0
 10
80.770000000001
 20
-56.43038674433689
 30
0
 10
80.770000000001
 20
-79.27000000000103
 30
0
 10
83.76813275223196
 20
-105.2718672477701
 30
0
 10
89.96842712474735
 20
-111.811572875255
 30
0
 10
89.96842712474734
 20
-111.811572875255
 30
0
  0
LINE
  5
B5
100
AcDbEntity
  8
references
  6
ByLayer
 62
  256
370
   -1
100
AcDbLine
 10
65.52000000000005
 20
-119.2700000000001
 11
65.52000000000005
 21
-108.2700000000001
  0
LINE
  5
B6
100
AcDbEntity
  8
references
  6
ByLayer
 62
  256
370
   -1
100
AcDbLine
 10
61.52000000000005
 20
-119.2700000000001
 11
69.52000000000005
 21
-119.2700000000001
  0
CIRCLE
  5
B7
100
AcDbEntity
  8
bottom plate
  6
ByLayer
 62
  256
370
   -1
100
AcDbCircle
 10
65.52000000000005
 20
-119.2700000000001
 40
1.5
  0
ARC
  5
B8
100
AcDbEntity
  8
bottom plate
  6
ByLayer
 62
  256
370
   -1
100
AcDbCircle
 10
65.52000000000005
 20
-119.2700000000001
 40
4
100
AcDbArc
 50
180
 51
0
  0
SPLINE
  5
B9
100
AcDbEntity
  8
bottom plate
  6
ByLayer
 62
  256
370
   -1
100
AcDbSpline
210
0
220
0
230
0
 70
    8
 71
    3
 72
    8
 73
    4
 74
    0
 42
1e-007
 43
1e-007
 40
0
 40
0
 40
0
 40
0
 40
1
 40
1
 40
1
 40
1
 10
46.72842712474619
 20
-117.4684271247465
 30
0
 10
60
 20
-112
 30
0
 10
61.52000000000005
 20
-119.2700000000001
 30
0
 10
61.52000000000005
 20
-119.2700000000001
 30
0
  0
SPLINE
  5
BA
100
AcDbEntity
  8
bottom plate
  6
ByLayer
 62
  256
370
   -1
100
AcDbSpline
210
0
220
0
230
0
 70
    8
 71
    3
 72
    8
 73
    4
 74
    0
 42
1e-007
 43
1e-007
 40
0
 40
0
 40
0
 40
0
 40
1
 40
1
 40
1
 40
1
 10
84.31157287525392
 20
-117.4684271247465
 30
0
 10
71.04000000000011
 20
-112
 30
0
 10
69.52000000000005
 20
-119.2700000000001
 30
0
 10
69.52000000000005
 20
-119.2700000000001
 30
0
  0
LINE
  5
BB
100
AcDbEntity
  8
references
  6
ByLayer
 62
  256
370
   -1
100
AcDbLine
 10
60.02000000000005
 20
-119.2700000000001
 11
71.02000000000005
 21
-119.2700000000001
  0
CIRCLE
  5
BC
100
AcDbEntity
  8
top plate
  6
ByLayer
 62
  256
370
   -1
100
AcDbCircle
 10
65.52000000000005
 20
-119.2700000000001
 40
1.5
  0
ARC
  5
BD
100
AcDbEntity
  8
top plate
  6
ByLayer
 62
  256
370
   -1
100
AcDbCircle
 10
65.52000000000005
 20
-119.2700000000001
 40
5.5
100
AcDbArc
 50
180
 51
0
  0
CIRCLE
  5
BE
100
AcDbEntity
  8
top plate
  6
ByLayer
 62
  256
370
   -1
100
AcDbCircle
 10
50.27000000000009
 20
-50.27000000000014
 40
1.5
  0
CIRCLE
  5
BF
100
AcDbEntity
  8
top plate
  6
ByLayer
 62
  256
370
   -1
100
AcDbCircle
 10
80.76999999999995
 20
-50.27000000000013
 40
1.5
  0
LINE
  5
C0
100
AcDbEntity
  8
references
  6
ByLayer
 62
  256
370
   -1
100
AcDbLine
 10
45.7700000000001
 20
-50.27000000000013
 11
54.7700000000001
 21
-50.27000000000013
  0
LINE
  5
C1
100
AcDbEntity
  8
references
  6
ByLayer
 62
  256
370
   -1
100
AcDbLine
 10
76.26999999999995
 20
-50.27000000000013
 11
85.26999999999995
 21
-50.27000000000013
  0
ARC
  5
C2
100
AcDbEntity
  8
top plate
  6
ByLayer
 62
  256
370
   -1
100
AcDbCircle
 10
50.2700000000001
 20
-50.27000000000013
 40
4.5
100
AcDbArc
 50
0
 51
180
  0
ARC
  5
C3
100
AcDbEntity
  8
top plate
  6
ByLayer
 62
  256
370
   -1
100
AcDbCircle
 10
80.76999999999995
 20
-50.27000000000013
 40
4.5
100
AcDbArc
 50
0
 51
180
  0
SPLINE
  5
C4
100
AcDbEntity
  8
top plate
  6
ByLayer
 62
  256
370
   -1
100
AcDbSpline
210
0
220
0
230
0
 70
    8
 71
    3
 72
    8
 73
    4
 74
    0
 42
1e-007
 43
1e-007
 40
0
 40
0
 40
0
 40
0
 40
1
 40
1
 40
1
 40
1
 10
45.7700000000001
 20
-50.27000000000013
 30
0
 10
50.27000000000012
 20
-79.2700000000001
 30
0
 10
60.02000000000005
 20
-119.2700000000001
 30
0
 10
60.02000000000005
 20
-119.2700000000001
 30
0
  0
SPLINE
  5
C5
100
AcDbEntity
  8
top plate
  6
ByLayer
 62
  256
370
   -1
100
AcDbSpline
210
0
220
0
230
0
 70
    8
 71
    3
 72
    8
 73
    4
 74
    0
 42
1e-007
 43
1e-007
 40
0
 40
0
 40
0
 40
0
 40
1
 40
1
 40
1
 40
1
 10
85.26999999999995
 20
-50.27000000000013
 30
0
 10
80.77000000000011
 20
-79.27000000000011
 30
0
 10
71.02000000000005
 20
-119.2700000000001
 30
0
 10
71.02000000000005
 20
-119.2700000000001
 30
0
  0
LINE
  5
C6
100
AcDbEntity
  8
references
  6
ByLayer
 62
  256
370
   -1
100
AcDbLine
 10
65.52000000000005
 20
-60.27000000000012
 11
65.52000000000005
 21
-50.27000000000012
  0
SPLINE
  5
C7
100
AcDbEntity
  8
top plate
  6
ByLayer
 62
  256
370
   -1
100
AcDbSpline
210
0
220
0
230
0
 70
    8
 71
    3
 72
    9
 73
    5
 74
    0
 42
1e-007
 43
1e-007
 40
0
 40
0
 40
0
 40
0
 40
1
 40
2
 40
2
 40
2
 40
2
 10
54.7700000000001
 20
-50.27000000000013
 30
0
 10
57.02000000000005
 20
-60.27000000000012
 30
0
 10
65.52000000000005
 20
-60.27000000000012
 30
0
 10
74.02000000000005
 20
-60.27000000000012
 30
0
 10
76.26999999999995
 20
-50.27000000000013
 30
0
  0
LINE
  5
C8
100
AcDbEntity
  8
references
  6
ByLayer
 62
  256
370
   -1
100
AcDbLine
 10
60.52000000000008
 20
-79.27000000000011
 11
70.52000000000008
 21
-79.27000000000011
  0
LINE
  5
C9
100
AcDbEntity
  8
references
  6
ByLayer
 62
  256
370
   -1
100
AcDbLine
 10
55.52000000000005
 20
-79.27000000000008
 11
75.52000000000005
 21
-79.27000000000008
  0
LINE
  5
CA
100
AcDbEntity
  8
references
  6
ByLayer
 62
  256
370
   -1
100
AcDbLine
 10
65.52000000000005
 20
-79.27000000000014
 11
65.52000000000005
 21
-69.27000000000014
  0
LINE
  5
CB
100
AcDbEntity
  8
references
  6
ByLayer
 62
  256
370
   -1
100
AcDbLine
 10
55.52000000000005
 20
-69.27000000000014
 11
75.52000000000005
 21
-69.27000000000014
  0
DIMENSION
  5
CC
100
AcDbEntity
  8
meassures
  6
ByLayer
 62
  256
370
   -1
100
AcDbDimension
  2
*D2
 10
0
 20
0
 30
0
 11
0
 21
4.440892098500626e-016
 31
0
 70
   33
 71
    5
 72
    0
  3
QCADDimStyle
 53
0
210
0
220
0
230
1
100
AcDbAlignedDimension
 13
0
 23
8e-016
 33
0
 14
0
 24
0
 34
0
  0
DIMENSION
  5
CD
100
AcDbEntity
  8
meassures
  6
ByLayer
 62
  256
370
   -1
100
AcDbDimension
  2
*D3
 10
-63
 20
9
 30
0
 11
-31.5
 21
10.875
 31
0
 70
   33
 71
    5
 72
    0
  3
QCADDimStyle
 53
0
210
0
220
0
230
1
100
AcDbAlignedDimension
 13
0
 23
0
 33
0
 14
-63
 24
0
 34
0
  0
LWPOLYLINE
  5
CE
100
AcDbEntity
  8
top plate
  6
ByLayer
 62
  256
370
   -1
100
AcDbPolyline
 90
    6
 70
    1
 43
0
 10
60
 20
-69
 10
57
 20
-69
 42
0.414213562373095
 10
55
 20
-71
 10
59
 20
-91
 42
0.9999999999999999
 10
62
 20
-91
 10
62
 20
-71
 42
0.414213562373095
  0
LWPOLYLINE
  5
CF
100
AcDbEntity
  8
top plate
  6
ByLayer
 62
  256
370
   -1
100
AcDbPolyline
 90
    6
 70
    1
 43
0
 10
71.04000000000011
 20
-69
 10
74.04000000000011
 20
-69
 42
-0.414213562373095
 10
76.04000000000011
 20
-71
 10
72.04000000000011
 20
-91
 42
-0.9999999999999999
 10
69.04000000000011
 20
-91
 10
69.04000000000011
 20
-71
 42
-0.414213562373095
  0
LWPOLYLINE
  5
D0
100
AcDbEntity
  8
arms
  6
ByLayer
 62
  256
370
   -1
100
AcDbPolyline
 90
    2
 70
    0
 43
0
 10
47.27186724776905
 20
-53.26813275223096
 42
1.000000000000001
 10
53.26813275223096
 20
-47.27186724776905
 42
1.000000000000001
  0
CIRCLE
  5
D1
100
AcDbEntity
  8
references
  6
ByLayer
 62
  256
370
   -1
100
AcDbCircle
 10
120.0400000000002
 20
-11.00000000000003
 40
4
  0
LINE
  5
D2
100
AcDbEntity
  8
references
  6
ByLayer
 62
  256
370
   -1
100
AcDbLine
 10
131
 20
0
 11
80.76999999999987
 21
-50.27000000000023
  0
LINE
  5
D3
100
AcDbEntity
  8
references
  6
ByLayer
 62
  256
370
   -1
100
AcDbLine
 10
47.27186724776924
 20
-105.271867247769
 11
53.26813275223112
 21
-111.268132752231
  0
CIRCLE
  5
D4
100
AcDbEntity
  8
references
  6
ByLayer
 62
  256
370
   -1
100
AcDbCircle
 10
11.00000000000004
 20
-147.5400000000001
 40
4
  0
LINE
  5
D5
100
AcDbEntity
  8
references
  6
ByLayer
 62
  256
370
   -1
100
AcDbLine
 10
3.955516469922316e-014
 20
-158.5400000000001
 11
50.27000000000008
 21
-108.2700000000001
  0
LINE
  5
D6
100
AcDbEntity
  8
references
  6
ByLayer
 62
  256
370
   -1
100
AcDbLine
 10
77.77186724776891
 20
-111.268132752231
 11
83.7681327522309
 21
-105.2718672477691
  0
CIRCLE
  5
D7
100
AcDbEntity
  8
references
  6
ByLayer
 62
  256
370
   -1
100
AcDbCircle
 10
120.04
 20
-147.5400000000002
 40
4
  0
LINE
  5
D8
100
AcDbEntity
  8
references
  6
ByLayer
 62
  256
370
   -1
100
AcDbLine
 10
131.04
 20
-158.5400000000002
 11
80.77
 21
-108.2700000000002
  0
CIRCLE
  5
D9
100
AcDbEntity
  8
motors
  6
ByLayer
 62
  256
370
   -1
100
AcDbCircle
 10
0
 20
8e-016
 40
14.5
  0
CIRCLE
  5
DA
100
AcDbEntity
  8
arms
  6
ByLayer
 62
  256
370
   -1
100
AcDbCircle
 10
-4.59227e-016
 20
-7.5
 40
1.5
  0
CIRCLE
  5
DB
100
AcDbEntity
  8
arms
  6
ByLayer
 62
  256
370
   -1
100
AcDbCircle
 10
-7.5
 20
0
 40
1.5
  0
LINE
  5
DC
100
AcDbEntity
  8
references
  6
ByLayer
 62
  256
370
   -1
100
AcDbLine
 10
8
 20
-15
 11
16
 21
-7
  0
SPLINE
  5
DD
100
AcDbEntity
  8
arms
  6
ByLayer
 62
  256
370
   -1
100
AcDbSpline
210
0
220
0
230
0
 70
    8
 71
    2
 72
   19
 73
   16
 74
    0
 42
1e-007
 43
1e-007
 40
0
 40
0
 40
0
 40
0.07142857142857142
 40
0.1428571428571428
 40
0.2142857142857143
 40
0.2857142857142857
 40
0.3571428571428572
 40
0.4285714285714285
 40
0.5
 40
0.5714285714285714
 40
0.6428571428571429
 40
0.7142857142857143
 40
0.7857142857142857
 40
0.8571428571428571
 40
0.9285714285714286
 40
1
 40
1
 40
1
 10
47.27186724776902
 20
-53.26813275223099
 30
0
 10
19.19216079331608
 20
-25.23754537749248
 30
0
 10
8
 20
-14
 30
0
 10
-1
 20
-13
 30
0
 10
-7
 20
-9
 30
0
 10
-12
 20
-3
 30
0
 10
-15
 20
4
 30
0
 10
-20
 20
16
 30
0
 10
-15
 20
20
 30
0
 10
-4
 20
15
 30
0
 10
3
 20
12
 30
0
 10
9
 20
7
 30
0
 10
13
 20
1
 30
0
 10
14
 20
-8
 30
0
 10
25.23754537749248
 20
-19.19216079331608
 30
0
 10
53.26813275223096
 20
-47.27186724776905
 30
0
  0
LINE
  5
DE
100
AcDbEntity
  8
references
  6
ByLayer
 62
  256
370
   -1
100
AcDbLine
 10
0
 20
0
 11
50.27
 21
-50.27000000000003
  0
CIRCLE
  5
DF
100
AcDbEntity
  8
arms
  6
ByLayer
 62
  256
370
   -1
100
AcDbCircle
 10
-9
 20
9
 40
3
  0
DIMENSION
  5
E0
100
AcDbEntity
  8
meassures
  6
ByLayer
 62
  256
370
   -1
100
AcDbDimension
  2
*D4
 10
59.76999999999999
 20
-40.76999999999998
 30
0
 11
50.27000000000001
 21
-50.27000000000001
 31
0
 70
   33
 71
    5
 72
    0
  3
QCADDimStyle
 53
0
210
0
220
0
230
1
100
AcDbAlignedDimension
 13
43.89999999999999
 23
-43.90000000000001
 33
0
 14
50.27
 24
-50.27
 34
0
  0
CIRCLE
  5
E1
100
AcDbEntity
  8
arms
  6
ByLayer
 62
  256
370
   -1
100
AcDbCircle
 10
4.592273826833915e-016
 20
7.5
 40
1.5
  0
CIRCLE
  5
E2
100
AcDbEntity
  8
arms
  6
ByLayer
 62
  256
370
   -1
100
AcDbCircle
 10
7.5
 20
0
 40
1.5
  0
DIMENSION
  5
E3
100
AcDbEntity
  8
meassures
  6
ByLayer
 62
  256
370
   -1
100
AcDbDimension
  2
*D5
 10
5.996265504461922
 20
-17.81690518759117
 30
0
 11
0
 21
-17.81690518759117
 31
0
 70
   32
 71
    5
  3
Standard
 53
0
210
0
220
0
230
1
100
AcDbAlignedDimension
 13
-7.5
 23
0
 33
0
 14
7.5
 24
0
 34
0
100
AcDbRotatedDimension
  0
CIRCLE
  5
E4
100
AcDbEntity
  8
props
  6
ByLayer
 62
  256
370
   -1
100
AcDbCircle
 10
131.0399999999998
 20
-1.06581410364015e-013
 40
63
  0
CIRCLE
  5
E5
100
AcDbEntity
  8
arms
  6
ByLayer
 62
  256
370
   -1
100
AcDbCircle
 10
131.0399999999998
 20
-1.06581410364015e-013
 40
2.5
  0
CIRCLE
  5
E6
100
AcDbEntity
  8
arms
  6
ByLayer
 62
  256
370
   -1
100
AcDbCircle
 10
87.13999999999979
 20
-43.90000000000011
 40
1.5
  0
CIRCLE
  5
E7
100
AcDbEntity
  8
arms
  6
ByLayer
 62
  256
370
   -1
100
AcDbCircle
 10
80.76999999999978
 20
-50.27000000000011
 40
1.5
  0
LWPOLYLINE
  5
E8
100
AcDbEntity
  8
arms
  6
ByLayer
 62
  256
370
   -1
100
AcDbPolyline
 90
    2
 70
    0
 43
0
 10
77.77186724776882
 20
-47.27186724776915
 42
1.000000000000001
 10
83.76813275223074
 20
-53.26813275223106
 42
1.000000000000001
  0
CIRCLE
  5
E9
100
AcDbEntity
  8
motors
  6
ByLayer
 62
  256
370
   -1
100
AcDbCircle
 10
131.0399999999998
 20
-1.06581410364015e-013
 40
14.5
  0
CIRCLE
  5
EA
100
AcDbEntity
  8
arms
  6
ByLayer
 62
  256
370
   -1
100
AcDbCircle
 10
123.5399999999998
 20
-1.06581410364015e-013
 40
1.5
  0
CIRCLE
  5
EB
100
AcDbEntity
  8
arms
  6
ByLayer
 62
  256
370
   -1
100
AcDbCircle
 10
131.0399999999998
 20
7.499999999999893
 40
1.5
  0
SPLINE
  5
EC
100
AcDbEntity
  8
arms
  6
ByLayer
 62
  256
370
   -1
100
AcDbSpline
210
0
220
0
230
0
 70
    8
 71
    2
 72
   19
 73
   16
 74
    0
 42
1e-007
 43
1e-007
 40
0
 40
0
 40
0
 40
0.07142857142857142
 40
0.1428571428571428
 40
0.2142857142857143
 40
0.2857142857142857
 40
0.3571428571428572
 40
0.4285714285714285
 40
0.5
 40
0.5714285714285714
 40
0.6428571428571429
 40
0.7142857142857143
 40
0.7857142857142857
 40
0.8571428571428571
 40
0.9285714285714286
 40
1
 40
1
 40
1
 10
77.7718672477688
 20
-47.27186724776912
 30
0
 10
105.8024546225073
 20
-19.19216079331619
 30
0
 10
117.0399999999998
 20
-8.000000000000105
 30
0
 10
118.0399999999998
 20
0.9999999999998958
 30
0
 10
122.0399999999998
 20
6.999999999999896
 30
0
 10
128.0399999999998
 20
11.9999999999999
 30
0
 10
135.0399999999998
 20
14.9999999999999
 30
0
 10
147.0399999999998
 20
19.9999999999999
 30
0
 10
151.0399999999998
 20
14.9999999999999
 30
0
 10
146.0399999999998
 20
3.999999999999897
 30
0
 10
143.0399999999998
 20
-3.000000000000103
 30
0
 10
138.0399999999998
 20
-9.000000000000103
 30
0
 10
132.0399999999998
 20
-13.0000000000001
 30
0
 10
123.0399999999998
 20
-14.0000000000001
 30
0
 10
111.8478392066837
 20
-25.23754537749258
 30
0
 10
83.76813275223074
 20
-53.26813275223107
 30
0
  0
CIRCLE
  5
ED
100
AcDbEntity
  8
arms
  6
ByLayer
 62
  256
370
   -1
100
AcDbCircle
 10
140.0399999999998
 20
8.999999999999901
 40
3
  0
CIRCLE
  5
EE
100
AcDbEntity
  8
arms
  6
ByLayer
 62
  256
370
   -1
100
AcDbCircle
 10
138.5399999999998
 20
-1.06581410364015e-013
 40
1.5
  0
CIRCLE
  5
EF
100
AcDbEntity
  8
arms
  6
ByLayer
 62
  256
370
   -1
100
AcDbCircle
 10
131.0399999999998
 20
-7.500000000000107
 40
1.5
  0
CIRCLE
  5
F0
100
AcDbEntity
  8
props
  6
ByLayer
 62
  256
370
   -1
100
AcDbCircle
 10
131.0400000000001
 20
-158.5400000000001
 40
63
  0
CIRCLE
  5
F1
100
AcDbEntity
  8
arms
  6
ByLayer
 62
  256
370
   -1
100
AcDbCircle
 10
131.0400000000001
 20
-158.5400000000001
 40
2.5
  0
CIRCLE
  5
F2
100
AcDbEntity
  8
arms
  6
ByLayer
 62
  256
370
   -1
100
AcDbCircle
 10
87.1400000000001
 20
-114.6400000000001
 40
1.5
  0
CIRCLE
  5
F3
100
AcDbEntity
  8
arms
  6
ByLayer
 62
  256
370
   -1
100
AcDbCircle
 10
80.7700000000001
 20
-108.2700000000001
 40
1.5
  0
LWPOLYLINE
  5
F4
100
AcDbEntity
  8
arms
  6
ByLayer
 62
  256
370
   -1
100
AcDbPolyline
 90
    2
 70
    0
 43
0
 10
83.76813275223105
 20
-105.2718672477691
 42
1.000000000000001
 10
77.77186724776914
 20
-111.2681327522311
 42
1.000000000000001
  0
CIRCLE
  5
F5
100
AcDbEntity
  8
motors
  6
ByLayer
 62
  256
370
   -1
100
AcDbCircle
 10
131.0400000000001
 20
-158.5400000000001
 40
14.5
  0
CIRCLE
  5
F6
100
AcDbEntity
  8
arms
  6
ByLayer
 62
  256
370
   -1
100
AcDbCircle
 10
131.0400000000001
 20
-151.0400000000001
 40
1.5
  0
CIRCLE
  5
F7
100
AcDbEntity
  8
arms
  6
ByLayer
 62
  256
370
   -1
100
AcDbCircle
 10
138.5400000000001
 20
-158.5400000000001
 40
1.5
  0
SPLINE
  5
F8
100
AcDbEntity
  8
arms
  6
ByLayer
 62
  256
370
   -1
100
AcDbSpline
210
0
220
0
230
0
 70
    8
 71
    2
 72
   19
 73
   16
 74
    0
 42
1e-007
 43
1e-007
 40
0
 40
0
 40
0
 40
0.07142857142857142
 40
0.1428571428571428
 40
0.2142857142857143
 40
0.2857142857142857
 40
0.3571428571428572
 40
0.4285714285714285
 40
0.5
 40
0.5714285714285714
 40
0.6428571428571429
 40
0.7142857142857143
 40
0.7857142857142857
 40
0.8571428571428571
 40
0.9285714285714286
 40
1
 40
1
 40
1
 10
83.76813275223108
 20
-105.2718672477691
 30
0
 10
111.847839206684
 20
-133.3024546225076
 30
0
 10
123.0400000000001
 20
-144.5400000000001
 30
0
 10
132.0400000000001
 20
-145.5400000000001
 30
0
 10
138.0400000000001
 20
-149.5400000000001
 30
0
 10
143.0400000000001
 20
-155.5400000000001
 30
0
 10
146.0400000000001
 20
-162.5400000000001
 30
0
 10
151.0400000000001
 20
-174.5400000000001
 30
0
 10
146.0400000000001
 20
-178.5400000000001
 30
0
 10
135.0400000000001
 20
-173.5400000000001
 30
0
 10
128.0400000000001
 20
-170.5400000000001
 30
0
 10
122.0400000000001
 20
-165.5400000000001
 30
0
 10
118.0400000000001
 20
-159.5400000000001
 30
0
 10
117.0400000000001
 20
-150.5400000000001
 30
0
 10
105.8024546225076
 20
-139.347839206684
 30
0
 10
77.77186724776914
 20
-111.2681327522311
 30
0
  0
CIRCLE
  5
F9
100
AcDbEntity
  8
arms
  6
ByLayer
 62
  256
370
   -1
100
AcDbCircle
 10
140.0400000000001
 20
-167.5400000000001
 40
3
  0
CIRCLE
  5
FA
100
AcDbEntity
  8
arms
  6
ByLayer
 62
  256
370
   -1
100
AcDbCircle
 10
131.0400000000001
 20
-166.0400000000001
 40
1.5
  0
CIRCLE
  5
FB
100
AcDbEntity
  8
arms
  6
ByLayer
 62
  256
370
   -1
100
AcDbCircle
 10
123.5400000000001
 20
-158.5400000000001
 40
1.5
  0
CIRCLE
  5
FC
100
AcDbEntity
  8
props
  6
ByLayer
 62
  256
370
   -1
100
AcDbCircle
 10
4.263256414560601e-014
 20
-158.5400000000001
 40
63
  0
CIRCLE
  5
FD
100
AcDbEntity
  8
arms
  6
ByLayer
 62
  256
370
   -1
100
AcDbCircle
 10
4.263256414560601e-014
 20
-158.5400000000001
 40
2.5
  0
CIRCLE
  5
FE
100
AcDbEntity
  8
arms
  6
ByLayer
 62
  256
370
   -1
100
AcDbCircle
 10
43.90000000000008
 20
-114.6400000000001
 40
1.5
  0
CIRCLE
  5
FF
100
AcDbEntity
  8
arms
  6
ByLayer
 62
  256
370
   -1
100
AcDbCircle
 10
50.27000000000008
 20
-108.2700000000001
 40
1.5
  0
LWPOLYLINE
  5
100
100
AcDbEntity
  8
arms
  6
ByLayer
 62
  256
370
   -1
100
AcDbPolyline
 90
    2
 70
    0
 43
0
 10
53.26813275223103
 20
-111.2681327522311
 42
1.000000000000001
 10
47.27186724776912
 20
-105.2718672477691
 42
1.000000000000001
  0
CIRCLE
  5
101
100
AcDbEntity
  8
motors
  6
ByLayer
 62
  256
370
   -1
100
AcDbCircle
 10
4.263256414560601e-014
 20
-158.5400000000001
 40
14.5
  0
CIRCLE
  5
102
100
AcDbEntity
  8
arms
  6
ByLayer
 62
  256
370
   -1
100
AcDbCircle
 10
7.500000000000071
 20
-158.5400000000001
 40
1.5
  0
CIRCLE
  5
103
100
AcDbEntity
  8
arms
  6
ByLayer
 62
  256
370
   -1
100
AcDbCircle
 10
4.263256414560601e-014
 20
-166.0400000000001
 40
1.5
  0
SPLINE
  5
104
100
AcDbEntity
  8
arms
  6
ByLayer
 62
  256
370
   -1
100
AcDbSpline
210
0
220
0
230
0
 70
    8
 71
    2
 72
   19
 73
   16
 74
    0
 42
1e-007
 43
1e-007
 40
0
 40
0
 40
0
 40
0.07142857142857142
 40
0.1428571428571428
 40
0.2142857142857143
 40
0.2857142857142857
 40
0.3571428571428572
 40
0.4285714285714285
 40
0.5
 40
0.5714285714285714
 40
0.6428571428571429
 40
0.7142857142857143
 40
0.7857142857142857
 40
0.8571428571428571
 40
0.9285714285714286
 40
1
 40
1
 40
1
 10
53.26813275223107
 20
-111.2681327522311
 30
0
 10
25.23754537749257
 20
-139.347839206684
 30
0
 10
14.00000000000007
 20
-150.5400000000001
 30
0
 10
13.00000000000007
 20
-159.5400000000001
 30
0
 10
9.000000000000075
 20
-165.5400000000001
 30
0
 10
3.000000000000075
 20
-170.5400000000001
 30
0
 10
-3.999999999999925
 20
-173.5400000000001
 30
0
 10
-15.99999999999993
 20
-178.5400000000001
 30
0
 10
-19.99999999999993
 20
-173.5400000000001
 30
0
 10
-14.99999999999993
 20
-162.5400000000001
 30
0
 10
-11.99999999999993
 20
-155.5400000000001
 30
0
 10
-6.999999999999926
 20
-149.5400000000001
 30
0
 10
-0.9999999999999266
 20
-145.5400000000001
 30
0
 10
8.000000000000073
 20
-144.5400000000001
 30
0
 10
19.19216079331615
 20
-133.3024546225076
 30
0
 10
47.27186724776912
 20
-105.2718672477691
 30
0
  0
CIRCLE
  5
105
100
AcDbEntity
  8
arms
  6
ByLayer
 62
  256
370
   -1
100
AcDbCircle
 10
-8.999999999999922
 20
-167.5400000000001
 40
3
  0
CIRCLE
  5
106
100
AcDbEntity
  8
arms
  6
ByLayer
 62
  256
370
   -1
100
AcDbCircle
 10
-7.499999999999957
 20
-158.5400000000001
 40
1.5
  0
CIRCLE
  5
107
100
AcDbEntity
  8
arms
  6
ByLayer
 62
  256
370
   -1
100
AcDbCircle
 10
4.263256414560601e-014
 20
-151.0400000000001
 40
1.5
  0
ARC
  5
108
100
AcDbEntity
  8
reinforcement
  6
ByLayer
 62
  256
370
   -1
100
AcDbCircle
 10
-7.5
 20
0
 40
4
100
AcDbArc
 50
90
 51
270
  0
CIRCLE
  5
109
100
AcDbEntity
  8
reinforcement
  6
ByLayer
 62
  256
370
   -1
100
AcDbCircle
 10
-7.5
 20
0
 40
1.5
  0
CIRCLE
  5
10A
100
AcDbEntity
  8
reinforcement
  6
ByLayer
 62
  256
370
   -1
100
AcDbCircle
 10
7.5
 20
0
 40
1.5
  0
LINE
  5
10B
100
AcDbEntity
  8
reinforcement
  6
ByLayer
 62
  256
370
   -1
100
AcDbLine
 10
-7.500000000000001
 20
-4
 11
138.5399999999998
 21
-4.000000000000085
  0
LINE
  5
10C
100
AcDbEntity
  8
reinforcement
  6
ByLayer
 62
  256
370
   -1
100
AcDbLine
 10
138.5399999999998
 20
3.999999999999873
 11
-7.5
 21
4
  0
ARC
  5
10D
100
AcDbEntity
  8
reinforcement
  6
ByLayer
 62
  256
370
   -1
100
AcDbCircle
 10
138.5399999999998
 20
-1.06581410364015e-013
 40
3.999999999999979
100
AcDbArc
 50
269.9999999999996
 51
90.0000000000004
  0
CIRCLE
  5
10E
100
AcDbEntity
  8
reinforcement
  6
ByLayer
 62
  256
370
   -1
100
AcDbCircle
 10
123.54
 20
-1.06581e-013
 40
1.5
  0
CIRCLE
  5
10F
100
AcDbEntity
  8
reinforcement
  6
ByLayer
 62
  256
370
   -1
100
AcDbCircle
 10
138.54
 20
-1.06581e-013
 40
1.5
  0
ARC
  5
110
100
AcDbEntity
  8
reinforcement
  6
ByLayer
 62
  256
370
   -1
100
AcDbCircle
 10
-7.499999999999957
 20
-158.5400000000001
 40
4
100
AcDbArc
 50
90
 51
270
  0
CIRCLE
  5
111
100
AcDbEntity
  8
reinforcement
  6
ByLayer
 62
  256
370
   -1
100
AcDbCircle
 10
-7.499999999999957
 20
-158.5400000000001
 40
1.5
  0
CIRCLE
  5
112
100
AcDbEntity
  8
reinforcement
  6
ByLayer
 62
  256
370
   -1
100
AcDbCircle
 10
7.500000000000043
 20
-158.5400000000001
 40
1.5
  0
LINE
  5
113
100
AcDbEntity
  8
reinforcement
  6
ByLayer
 62
  256
370
   -1
100
AcDbLine
 10
-7.499999999999958
 20
-162.5400000000001
 11
138.5399999999998
 21
-162.5400000000002
  0
LINE
  5
114
100
AcDbEntity
  8
reinforcement
  6
ByLayer
 62
  256
370
   -1
100
AcDbLine
 10
138.5399999999998
 20
-154.5400000000002
 11
-7.499999999999957
 21
-154.5400000000001
  0
ARC
  5
115
100
AcDbEntity
  8
reinforcement
  6
ByLayer
 62
  256
370
   -1
100
AcDbCircle
 10
138.5399999999998
 20
-158.5400000000002
 40
3.999999999999979
100
AcDbArc
 50
269.9999999999996
 51
90.0000000000004
  0
CIRCLE
  5
116
100
AcDbEntity
  8
reinforcement
  6
ByLayer
 62
  256
370
   -1
100
AcDbCircle
 10
123.54
 20
-158.5400000000002
 40
1.5
  0
CIRCLE
  5
117
100
AcDbEntity
  8
reinforcement
  6
ByLayer
 62
  256
370
   -1
100
AcDbCircle
 10
138.54
 20
-158.5400000000002
 40
1.5
  0
ENDSEC
  0
SECTION
  2
OBJECTS
  0
DICTIONARY
  5
C
330
0
100
AcDbDictionary
281
    1
  3
ACAD_GROUP
350
D
  0
DICTIONARY
  5
D
330
C
100
AcDbDictionary
281
    1
  0
ENDSEC
  0
EOF
