999
dxfrw 0.6.3
  0
SECTION
  2
HEADER
  9
$ACADVER
  1
AC1021
  9
$DWGCODEPAGE
  3
ANSI_1252
  9
$INSBASE
 10
0
 20
0
 30
0
  9
$EXTMIN
 10
0.9999999999999991
 20
-128.4820965760942
 30
0
  9
$EXTMAX
 10
179.3700000000001
 20
-0.999999999999801
 30
0
  9
$LIMMIN
 10
0
 20
0
  9
$LIMMAX
 10
12
 20
9
  9
$ORTHOMODE
 70
    0
  9
$REGENMODE
 70
    1
  9
$FILLMODE
 70
    1
  9
$QTEXTMODE
 70
    0
  9
$MIRRTEXT
 70
    0
  9
$LTSCALE
 40
1
  9
$ATTMODE
 70
    1
  9
$TEXTSIZE
 40
1
  9
$TRACEWID
 40
0.05
  9
$TEXTSTYLE
  7
Standard
  9
$CLAYER
  8
0
  9
$CELTYPE
  6
ByLayer
  9
$CECOLOR
 62
  256
  9
$CELTSCALE
 40
1
  9
$DISPSILH
 70
    0
  9
$DIMSCALE
 40
1
  9
$DIMASZ
 40
2.5
  9
$DIMEXO
 40
0.625
  9
$DIMDLI
 40
5
  9
$DIMRND
 40
0
  9
$DIMDLE
 40
0
  9
$DIMEXE
 40
1.25
  9
$DIMTP
 40
0
  9
$DIMTM
 40
0
  9
$DIMTXT
 40
2.5
  9
$DIMCEN
 40
0.09
  9
$DIMTSZ
 40
0
  9
$DIMTOL
 70
    0
  9
$DIMLIM
 70
    0
  9
$DIMTIH
 70
    1
  9
$DIMTOH
 70
    1
  9
$DIMSE1
 70
    0
  9
$DIMSE2
 70
    0
  9
$DIMTAD
 70
    0
  9
$DIMZIN
 70
    8
  9
$DIMBLK
  1

  9
$DIMASO
 70
    1
  9
$DIMSHO
 70
    1
  9
$DIMPOST
  1

  9
$DIMAPOST
  1

  9
$DIMALT
 70
    0
  9
$DIMALTD
 70
    2
  9
$DIMALTF
 40
25.4
  9
$DIMLFAC
 40
1
  9
$DIMTOFL
 70
    0
  9
$DIMTVP
 40
0
  9
$DIMTIX
 70
    0
  9
$DIMSOXD
 70
    0
  9
$DIMSAH
 70
    0
  9
$DIMBLK1
  1

  9
$DIMBLK2
  1

  9
$DIMSTYLE
  2
Standard
  9
$DIMCLRD
 70
    0
  9
$DIMCLRE
 70
    0
  9
$DIMCLRT
 70
    0
  9
$DIMTFAC
 40
1
  9
$DIMGAP
 40
0.625
  9
$DIMJUST
 70
    0
  9
$DIMSD1
 70
    0
  9
$DIMSD2
 70
    0
  9
$DIMTOLJ
 70
    1
  9
$DIMTZIN
 70
    0
  9
$DIMALTZ
 70
    0
  9
$DIMALTTZ
 70
    0
  9
$DIMUPT
 70
    0
  9
$DIMDEC
 70
    4
  9
$DIMTDEC
 70
    4
  9
$DIMALTU
 70
    2
  9
$DIMALTTD
 70
    2
  9
$DIMTXSTY
  7
Standard
  9
$DIMAUNIT
 70
    0
  9
$DIMADEC
 70
    0
  9
$DIMALTRND
 40
0
  9
$DIMAZIN
 70
    2
  9
$DIMDSEP
 70
   46
  9
$DIMATFIT
 70
    3
  9
$DIMFRAC
 70
    0
  9
$DIMLDRBLK
  1

  9
$DIMLUNIT
 70
    2
  9
$DIMLWD
 70
   -2
  9
$DIMLWE
 70
   -2
  9
$DIMTMOVE
 70
    0
  9
$DIMFXL
 40
1
  9
$DIMFXLON
 70
    0
  9
$DIMJOGANG
 40
0.7853981633974483
  9
$DIMTFILL
 70
    0
  9
$DIMTFILLCLR
 70
    0
  9
$DIMARCSYM
 70
    0
  9
$DIMLTYPE
  6

  9
$DIMLTEX1
  6

  9
$DIMLTEX2
  6

  9
$LUNITS
 70
    2
  9
$LUPREC
 70
    4
  9
$SKETCHINC
 40
0.1
  9
$FILLETRAD
 40
0.5
  9
$AUNITS
 70
    0
  9
$AUPREC
 70
    0
  9
$MENU
  1
.
  9
$ELEVATION
 40
0
  9
$PELEVATION
 40
0
  9
$THICKNESS
 40
0
  9
$LIMCHECK
 70
    0
  9
$CHAMFERA
 40
0
  9
$CHAMFERB
 40
0
  9
$CHAMFERC
 40
0
  9
$CHAMFERD
 40
0
  9
$SKPOLY
 70
    0
  9
$USRTIMER
 70
    1
  9
$ANGBASE
 50
0
  9
$ANGDIR
 70
    0
  9
$PDMODE
 70
    0
  9
$PDSIZE
 40
0
  9
$PLINEWID
 40
0
  9
$SPLFRAME
 70
    0
  9
$SPLINETYPE
 70
    6
  9
$SPLINESEGS
 70
    8
  9
$HANDSEED
  5
20000
  9
$SURFTAB1
 70
    6
  9
$SURFTAB2
 70
    6
  9
$SURFTYPE
 70
    6
  9
$SURFU
 70
    6
  9
$SURFV
 70
    6
  9
$UCSBASE
  2

  9
$UCSNAME
  2

  9
$UCSORG
 10
0
 20
0
 30
0
  9
$UCSXDIR
 10
1
 20
0
 30
0
  9
$UCSYDIR
 10
0
 20
1
 30
0
  9
$UCSORTHOREF
  2

  9
$UCSORTHOVIEW
 70
    0
  9
$UCSORGTOP
 10
0
 20
0
 30
0
  9
$UCSORGBOTTOM
 10
0
 20
0
 30
0
  9
$UCSORGLEFT
 10
0
 20
0
 30
0
  9
$UCSORGRIGHT
 10
0
 20
0
 30
0
  9
$UCSORGFRONT
 10
0
 20
0
 30
0
  9
$UCSORGBACK
 10
0
 20
0
 30
0
  9
$PUCSBASE
  2

  9
$PUCSNAME
  2

  9
$PUCSORG
 10
0
 20
0
 30
0
  9
$PUCSXDIR
 10
1
 20
0
 30
0
  9
$PUCSYDIR
 10
0
 20
1
 30
0
  9
$PUCSORTHOREF
  2

  9
$PUCSORTHOVIEW
 70
    0
  9
$PUCSORGTOP
 10
0
 20
0
 30
0
  9
$PUCSORGBOTTOM
 10
0
 20
0
 30
0
  9
$PUCSORGLEFT
 10
0
 20
0
 30
0
  9
$PUCSORGRIGHT
 10
0
 20
0
 30
0
  9
$PUCSORGFRONT
 10
0
 20
0
 30
0
  9
$PUCSORGBACK
 10
0
 20
0
 30
0
  9
$USERI1
 70
    0
  9
$USERI2
 70
    0
  9
$USERI3
 70
    0
  9
$USERI4
 70
    0
  9
$USERI5
 70
    0
  9
$USERR1
 40
0
  9
$USERR2
 40
0
  9
$USERR3
 40
0
  9
$USERR4
 40
0
  9
$USERR5
 40
0
  9
$WORLDVIEW
 70
    1
  9
$SHADEDGE
 70
    3
  9
$SHADEDIF
 70
   70
  9
$TILEMODE
 70
    1
  9
$MAXACTVP
 70
   64
  9
$PINSBASE
 10
0
 20
0
 30
0
  9
$PLIMCHECK
 70
    0
  9
$PEXTMIN
 10
0
 20
0
 30
0
  9
$PEXTMAX
 10
0
 20
0
 30
0
  9
$GRIDMODE
 70
    1
  9
$SNAPSTYLE
 70
    0
  9
$PLIMMIN
 10
-20
 20
-7.5
  9
$PLIMMAX
 10
277
 20
202.5
  9
$UNITMODE
 70
    0
  9
$VISRETAIN
 70
    1
  9
$PLINEGEN
 70
    0
  9
$PSLTSCALE
 70
    1
  9
$TREEDEPTH
 70
 3020
  9
$CMLSTYLE
  2
Standard
  9
$CMLJUST
 70
    0
  9
$CMLSCALE
 40
1
  9
$PROXYGRAPHICS
 70
    1
  9
$MEASUREMENT
 70
    1
  9
$CELWEIGHT
370
   -1
  9
$ENDCAPS
280
    0
  9
$JOINSTYLE
280
    0
  9
$LWDISPLAY
290
    0
  9
$INSUNITS
 70
    4
  9
$HYPERLINKBASE
  1

  9
$STYLESHEET
  1

  9
$XEDIT
290
    1
  9
$CEPSNTYPE
380
    0
  9
$PSTYLEMODE
290
    1
  9
$EXTNAMES
290
    1
  9
$PSVPSCALE
 40
0
  9
$OLESTARTUP
290
    0
  9
$SORTENTS
280
  127
  9
$INDEXCTL
280
    0
  9
$HIDETEXT
280
    1
  9
$XCLIPFRAME
290
    0
  9
$HALOGAP
280
    0
  9
$OBSCOLOR
 70
  257
  9
$OBSLTYPE
280
    0
  9
$INTERSECTIONDISPLAY
280
    0
  9
$INTERSECTIONCOLOR
 70
  257
  9
$DIMASSOC
280
    2
  9
$PROJECTNAME
  1

  9
$CAMERADISPLAY
290
    0
  9
$LENSLENGTH
 40
50
  9
$CAMERAHEIGHT
 40
0
  9
$STEPSPERSEC
 40
2
  9
$STEPSIZE
 40
6
  9
$3DDWFPREC
 40
2
  9
$PSOLWIDTH
 40
0.25
  9
$PSOLHEIGHT
 40
4
  9
$LOFTANG1
 40
1.570796326794897
  9
$LOFTANG2
 40
1.570796326794897
  9
$LOFTMAG1
 40
0
  9
$LOFTMAG2
 40
0
  9
$LOFTPARAM
 70
    7
  9
$LOFTNORMALS
280
    1
  9
$LATITUDE
 40
37.795
  9
$LONGITUDE
 40
-122.394
  9
$NORTHDIRECTION
 40
0
  9
$TIMEZONE
 70
-8000
  9
$LIGHTGLYPHDISPLAY
280
    1
  9
$TILEMODELIGHTSYNCH
280
    1
  9
$SOLIDHIST
280
    0
  9
$SHOWHIST
280
    1
  9
$DWFFRAME
280
    2
  9
$DGNFRAME
280
    2
  9
$REALWORLDSCALE
290
    1
  9
$INTERFERECOLOR
 62
  256
  9
$CSHADOW
280
    0
  9
$SHADOWPLANELOCATION
 40
0
  0
ENDSEC
  0
SECTION
  2
CLASSES
  0
ENDSEC
  0
SECTION
  2
TABLES
  0
TABLE
  2
VPORT
  5
8
330
0
100
AcDbSymbolTable
 70
    1
  0
VPORT
  5
31
330
2
100
AcDbSymbolTableRecord
100
AcDbViewportTableRecord
  2
*ACTIVE
 70
    0
 10
0
 20
0
 11
1
 21
1
 12
105.3571046083425
 22
0.3010202988809785
 13
0
 23
0
 14
10
 24
10
 15
10
 25
10
 16
0
 26
0
 36
1
 17
0
 27
0
 37
0
 40
130.4922995649042
 41
1.846597462514417
 42
50
 43
0
 44
0
 50
0
 51
0
 71
    0
 72
  100
 73
    1
 74
    3
 75
    0
 76
    1
 77
    0
 78
    0
281
    0
 65
    1
110
0
120
0
130
0
111
1
121
0
131
0
112
0
122
1
132
0
 79
    0
146
0
348
10020
 60
    7
 61
    5
292
1
282
    1
141
0
142
0
 63
  250
421
3358443
  0
ENDTAB
  0
TABLE
  2
LTYPE
  5
5
330
0
100
AcDbSymbolTable
 70
    4
  0
LTYPE
  5
14
330
5
100
AcDbSymbolTableRecord
100
AcDbLinetypeTableRecord
  2
ByBlock
 70
    0
  3

 72
   65
 73
    0
 40
0
  0
LTYPE
  5
15
330
5
100
AcDbSymbolTableRecord
100
AcDbLinetypeTableRecord
  2
ByLayer
 70
    0
  3

 72
   65
 73
    0
 40
0
  0
LTYPE
  5
16
330
5
100
AcDbSymbolTableRecord
100
AcDbLinetypeTableRecord
  2
Continuous
 70
    0
  3
Solid line
 72
   65
 73
    0
 40
0
  0
LTYPE
  5
32
330
5
100
AcDbSymbolTableRecord
100
AcDbLinetypeTableRecord
  2
DOT
 70
    0
  3
Dot . . . . . . . . . . . . . . . . . . . . . .
 72
   65
 73
    2
 40
6.35
 49
0
 74
    0
 49
-6.35
 74
    0
  0
LTYPE
  5
33
330
5
100
AcDbSymbolTableRecord
100
AcDbLinetypeTableRecord
  2
DOTTINY
 70
    0
  3
Dot (.15x) .....................................
 72
   65
 73
    2
 40
0.9525
 49
0
 74
    0
 49
-0.9525
 74
    0
  0
LTYPE
  5
34
330
5
100
AcDbSymbolTableRecord
100
AcDbLinetypeTableRecord
  2
DOT2
 70
    0
  3
Dot (.5x) .....................................
 72
   65
 73
    2
 40
3.175
 49
0
 74
    0
 49
-3.175
 74
    0
  0
LTYPE
  5
35
330
5
100
AcDbSymbolTableRecord
100
AcDbLinetypeTableRecord
  2
DOTX2
 70
    0
  3
Dot (2x) .  .  .  .  .  .  .  .  .  .  .  .  .
 72
   65
 73
    2
 40
12.7
 49
0
 74
    0
 49
-12.7
 74
    0
  0
LTYPE
  5
36
330
5
100
AcDbSymbolTableRecord
100
AcDbLinetypeTableRecord
  2
DASHED
 70
    0
  3
Dashed _ _ _ _ _ _ _ _ _ _ _ _ _ _ _ _ _
 72
   65
 73
    2
 40
19.05
 49
12.7
 74
    0
 49
-6.35
 74
    0
  0
LTYPE
  5
37
330
5
100
AcDbSymbolTableRecord
100
AcDbLinetypeTableRecord
  2
DASHEDTINY
 70
    0
  3
Dashed (.15x) _ _ _ _ _ _ _ _ _ _ _ _ _ _ _ _ _
 72
   65
 73
    2
 40
2.8575
 49
1.905
 74
    0
 49
-0.9525
 74
    0
  0
LTYPE
  5
38
330
5
100
AcDbSymbolTableRecord
100
AcDbLinetypeTableRecord
  2
DASHED2
 70
    0
  3
Dashed (.5x) _ _ _ _ _ _ _ _ _ _ _ _ _ _ _ _ _
 72
   65
 73
    2
 40
9.524999999999999
 49
6.35
 74
    0
 49
-3.175
 74
    0
  0
LTYPE
  5
39
330
5
100
AcDbSymbolTableRecord
100
AcDbLinetypeTableRecord
  2
DASHEDX2
 70
    0
  3
Dashed (2x) ____  ____  ____  ____  ____  ___
 72
   65
 73
    2
 40
38.09999999999999
 49
25.4
 74
    0
 49
-12.7
 74
    0
  0
LTYPE
  5
3A
330
5
100
AcDbSymbolTableRecord
100
AcDbLinetypeTableRecord
  2
DASHDOT
 70
    0
  3
Dash dot __ . __ . __ . __ . __ . __ . __ . __
 72
   65
 73
    4
 40
25.4
 49
12.7
 74
    0
 49
-6.35
 74
    0
 49
0
 74
    0
 49
-6.35
 74
    0
  0
LTYPE
  5
3B
330
5
100
AcDbSymbolTableRecord
100
AcDbLinetypeTableRecord
  2
DASHDOTTINY
 70
    0
  3
Dash dot (.15x) _._._._._._._._._._._._._._._.
 72
   65
 73
    4
 40
3.81
 49
1.905
 74
    0
 49
-0.9525
 74
    0
 49
0
 74
    0
 49
-0.9525
 74
    0
  0
LTYPE
  5
3C
330
5
100
AcDbSymbolTableRecord
100
AcDbLinetypeTableRecord
  2
DASHDOT2
 70
    0
  3
Dash dot (.5x) _._._._._._._._._._._._._._._.
 72
   65
 73
    4
 40
12.7
 49
6.35
 74
    0
 49
-3.175
 74
    0
 49
0
 74
    0
 49
-3.175
 74
    0
  0
LTYPE
  5
3D
330
5
100
AcDbSymbolTableRecord
100
AcDbLinetypeTableRecord
  2
DASHDOTX2
 70
    0
  3
Dash dot (2x) ____  .  ____  .  ____  .  ___
 72
   65
 73
    4
 40
50.8
 49
25.4
 74
    0
 49
-12.7
 74
    0
 49
0
 74
    0
 49
-12.7
 74
    0
  0
LTYPE
  5
3E
330
5
100
AcDbSymbolTableRecord
100
AcDbLinetypeTableRecord
  2
DIVIDE
 70
    0
  3
Divide ____ . . ____ . . ____ . . ____ . . ____
 72
   65
 73
    6
 40
31.75
 49
12.7
 74
    0
 49
-6.35
 74
    0
 49
0
 74
    0
 49
-6.35
 74
    0
 49
0
 74
    0
 49
-6.35
 74
    0
  0
LTYPE
  5
3F
330
5
100
AcDbSymbolTableRecord
100
AcDbLinetypeTableRecord
  2
DIVIDETINY
 70
    0
  3
Divide (.15x) __..__..__..__..__..__..__..__.._
 72
   65
 73
    6
 40
4.7625
 49
1.905
 74
    0
 49
-0.9525
 74
    0
 49
0
 74
    0
 49
-0.9525
 74
    0
 49
0
 74
    0
 49
-0.9525
 74
    0
  0
LTYPE
  5
40
330
5
100
AcDbSymbolTableRecord
100
AcDbLinetypeTableRecord
  2
DIVIDE2
 70
    0
  3
Divide (.5x) __..__..__..__..__..__..__..__.._
 72
   65
 73
    6
 40
15.875
 49
6.35
 74
    0
 49
-3.175
 74
    0
 49
0
 74
    0
 49
-3.175
 74
    0
 49
0
 74
    0
 49
-3.175
 74
    0
  0
LTYPE
  5
41
330
5
100
AcDbSymbolTableRecord
100
AcDbLinetypeTableRecord
  2
DIVIDEX2
 70
    0
  3
Divide (2x) ________  .  .  ________  .  .  _
 72
   65
 73
    6
 40
63.5
 49
25.4
 74
    0
 49
-12.7
 74
    0
 49
0
 74
    0
 49
-12.7
 74
    0
 49
0
 74
    0
 49
-12.7
 74
    0
  0
LTYPE
  5
42
330
5
100
AcDbSymbolTableRecord
100
AcDbLinetypeTableRecord
  2
BORDER
 70
    0
  3
Border __ __ . __ __ . __ __ . __ __ . __ __ .
 72
   65
 73
    6
 40
44.45
 49
12.7
 74
    0
 49
-6.35
 74
    0
 49
12.7
 74
    0
 49
-6.35
 74
    0
 49
0
 74
    0
 49
-6.35
 74
    0
  0
LTYPE
  5
43
330
5
100
AcDbSymbolTableRecord
100
AcDbLinetypeTableRecord
  2
BORDERTINY
 70
    0
  3
Border (.15x) __.__.__.__.__.__.__.__.__.__.__.
 72
   65
 73
    6
 40
6.6675
 49
1.905
 74
    0
 49
-0.9525
 74
    0
 49
1.905
 74
    0
 49
-0.9525
 74
    0
 49
0
 74
    0
 49
-0.9525
 74
    0
  0
LTYPE
  5
44
330
5
100
AcDbSymbolTableRecord
100
AcDbLinetypeTableRecord
  2
BORDER2
 70
    0
  3
Border (.5x) __.__.__.__.__.__.__.__.__.__.__.
 72
   65
 73
    6
 40
22.225
 49
6.35
 74
    0
 49
-3.175
 74
    0
 49
6.35
 74
    0
 49
-3.175
 74
    0
 49
0
 74
    0
 49
-3.175
 74
    0
  0
LTYPE
  5
45
330
5
100
AcDbSymbolTableRecord
100
AcDbLinetypeTableRecord
  2
BORDERX2
 70
    0
  3
Border (2x) ____  ____  .  ____  ____  .  ___
 72
   65
 73
    6
 40
88.89999999999999
 49
25.4
 74
    0
 49
-12.7
 74
    0
 49
25.4
 74
    0
 49
-12.7
 74
    0
 49
0
 74
    0
 49
-12.7
 74
    0
  0
LTYPE
  5
46
330
5
100
AcDbSymbolTableRecord
100
AcDbLinetypeTableRecord
  2
CENTER
 70
    0
  3
Center ____ _ ____ _ ____ _ ____ _ ____ _ ____
 72
   65
 73
    4
 40
50.8
 49
31.75
 74
    0
 49
-6.35
 74
    0
 49
6.35
 74
    0
 49
-6.35
 74
    0
  0
LTYPE
  5
47
330
5
100
AcDbSymbolTableRecord
100
AcDbLinetypeTableRecord
  2
CENTERTINY
 70
    0
  3
Center (.15x) ___ _ ___ _ ___ _ ___ _ ___ _ ___
 72
   65
 73
    4
 40
7.62
 49
4.7625
 74
    0
 49
-0.9525
 74
    0
 49
0.9525
 74
    0
 49
-0.9525
 74
    0
  0
LTYPE
  5
48
330
5
100
AcDbSymbolTableRecord
100
AcDbLinetypeTableRecord
  2
CENTER2
 70
    0
  3
Center (.5x) ___ _ ___ _ ___ _ ___ _ ___ _ ___
 72
   65
 73
    4
 40
28.575
 49
19.05
 74
    0
 49
-3.175
 74
    0
 49
3.175
 74
    0
 49
-3.175
 74
    0
  0
LTYPE
  5
49
330
5
100
AcDbSymbolTableRecord
100
AcDbLinetypeTableRecord
  2
CENTERX2
 70
    0
  3
Center (2x) ________  __  ________  __  _____
 72
   65
 73
    4
 40
101.6
 49
63.5
 74
    0
 49
-12.7
 74
    0
 49
12.7
 74
    0
 49
-12.7
 74
    0
  0
ENDTAB
  0
TABLE
  2
LAYER
  5
2
330
0
100
AcDbSymbolTable
 70
    1
  0
LAYER
  5
10
330
2
100
AcDbSymbolTableRecord
100
AcDbLayerTableRecord
  2
0
 70
    0
 62
    7
  6
CONTINUOUS
370
   25
390
F
  0
ENDTAB
  0
TABLE
  2
STYLE
  5
3
330
0
100
AcDbSymbolTable
 70
    3
  0
STYLE
  5
4A
330
2
100
AcDbSymbolTableRecord
100
AcDbTextStyleTableRecord
  2
Standard
 70
    0
 40
0
 41
1
 50
0
 71
    0
 42
1
  3
txt
  4

  0
ENDTAB
  0
TABLE
  2
VIEW
  5
6
330
0
100
AcDbSymbolTable
 70
    0
  0
ENDTAB
  0
TABLE
  2
UCS
  5
7
330
0
100
AcDbSymbolTable
 70
    0
  0
ENDTAB
  0
TABLE
  2
APPID
  5
9
330
0
100
AcDbSymbolTable
 70
    1
  0
APPID
  5
12
330
9
100
AcDbSymbolTableRecord
100
AcDbRegAppTableRecord
  2
ACAD
 70
    0
  0
APPID
  5
4B
330
9
100
AcDbSymbolTableRecord
100
AcDbRegAppTableRecord
  2
LibreCad
 70
    0
  0
ENDTAB
  0
TABLE
  2
DIMSTYLE
  5
A
330
0
100
AcDbSymbolTable
 70
    1
100
AcDbDimStyleTable
 71
    1
  0
DIMSTYLE
105
4C
330
A
100
AcDbSymbolTableRecord
100
AcDbDimStyleTableRecord
  2
Standard
 70
    0
 40
1
 41
2.5
 42
0.625
 43
0.38
 44
1.25
 45
0
 46
0
 47
0
 48
0
 49
1
140
2.5
141
0.09
142
0
143
25.4
144
1
145
0
146
1
147
0.625
148
0
 71
    0
 72
    0
 73
    1
 74
    1
 75
    0
 76
    0
 77
    0
 78
    8
 79
    2
170
    0
171
    2
172
    0
173
    0
174
    0
175
    0
176
    0
177
    0
178
    0
179
    0
271
    4
272
    4
273
    2
274
    2
275
    0
276
    0
277
    2
278
   46
279
    0
280
    0
281
    0
282
    0
283
    1
284
    0
285
    0
286
    0
288
    0
289
    3
340
Standard
341

371
   -2
372
   -2
  0
ENDTAB
  0
TABLE
  2
BLOCK_RECORD
  5
1
330
0
100
AcDbSymbolTable
 70
    2
  0
BLOCK_RECORD
  5
1F
330
1
100
AcDbSymbolTableRecord
100
AcDbBlockTableRecord
  2
*Model_Space
 70
    0
280
    1
281
    0
  0
BLOCK_RECORD
  5
1E
330
1
100
AcDbSymbolTableRecord
100
AcDbBlockTableRecord
  2
*Paper_Space
 70
    0
280
    1
281
    0
  0
ENDTAB
  0
ENDSEC
  0
SECTION
  2
BLOCKS
  0
BLOCK
  5
20
330
1F
100
AcDbEntity
  8
0
100
AcDbBlockBegin
  2
*Model_Space
 70
    0
 10
0
 20
0
 30
0
  3
*Model_Space
  1

  0
ENDBLK
  5
21
330
1F
100
AcDbEntity
  8
0
100
AcDbBlockEnd
  0
BLOCK
  5
1C
330
1B
100
AcDbEntity
  8
0
100
AcDbBlockBegin
  2
*Paper_Space
 70
    0
 10
0
 20
0
 30
0
  3
*Paper_Space
  1

  0
ENDBLK
  5
1D
330
1F
100
AcDbEntity
  8
0
100
AcDbBlockEnd
  0
ENDSEC
  0
SECTION
  2
ENTITIES
  0
CIRCLE
  5
4D
100
AcDbEntity
  8
0
  6
ByLayer
 62
  256
370
   -1
100
AcDbCircle
 10
4.999999999999999
 20
-17
 40
1.5
  0
CIRCLE
  5
4E
100
AcDbEntity
  8
0
  6
ByLayer
 62
  256
370
   -1
100
AcDbCircle
 10
20
 20
-17
 40
1.5
  0
CIRCLE
  5
4F
100
AcDbEntity
  8
0
  6
ByLayer
 62
  256
370
   -1
100
AcDbCircle
 10
151.04
 20
-16.9999999999998
 40
1.5
  0
CIRCLE
  5
50
100
AcDbEntity
  8
0
  6
ByLayer
 62
  256
370
   -1
100
AcDbCircle
 10
136.04
 20
-16.9999999999998
 40
1.5
  0
CIRCLE
  5
51
100
AcDbEntity
  8
0
  6
ByLayer
 62
  256
370
   -1
100
AcDbCircle
 10
4.999999999999999
 20
-5
 40
1.5
  0
CIRCLE
  5
52
100
AcDbEntity
  8
0
  6
ByLayer
 62
  256
370
   -1
100
AcDbCircle
 10
20
 20
-5
 40
1.5
  0
CIRCLE
  5
53
100
AcDbEntity
  8
0
  6
ByLayer
 62
  256
370
   -1
100
AcDbCircle
 10
151.04
 20
-4.999999999999801
 40
1.5
  0
CIRCLE
  5
54
100
AcDbEntity
  8
0
  6
ByLayer
 62
  256
370
   -1
100
AcDbCircle
 10
136.04
 20
-4.999999999999801
 40
1.5
  0
CIRCLE
  5
55
100
AcDbEntity
  8
0
  6
ByLayer
 62
  256
370
   -1
100
AcDbCircle
 10
17
 20
-41
 40
2.5
  0
CIRCLE
  5
56
100
AcDbEntity
  8
0
  6
ByLayer
 62
  256
370
   -1
100
AcDbCircle
 10
79.08397538817889
 20
-41.00000000000001
 40
1.5
  0
CIRCLE
  5
57
100
AcDbEntity
  8
0
  6
ByLayer
 62
  256
370
   -1
100
AcDbCircle
 10
88.0925157804955
 20
-41.00000000000001
 40
1.5
  0
LWPOLYLINE
  5
58
100
AcDbEntity
  8
0
  6
ByLayer
 62
  256
370
   -1
100
AcDbPolyline
 90
  112
 70
    0
 43
0
 10
38.19694201018756
 20
-37.00003305438094
 42
-0.002469073486226422
 10
35.57119858552159
 20
-36.83625312093017
 42
-0.009302521859320369
 10
34.87543477238177
 20
-36.77638398974628
 42
-0.0219650204548166
 10
33.85915005382328
 20
-36.62448765712892
 42
-0.03552580630367239
 10
33.24523764288681
 20
-36.45899671724078
 42
-0.04711356849708963
 10
32.61101412205581
 20
-36.16928824556669
 42
-0.03406443306093968
 10
31.81093645372641
 20
-35.63272438132773
 42
-0.01721085733199526
 10
30.96567709146579
 20
-34.93044338930398
 42
-0.008429078381120824
 10
29.3159247334394
 20
-33.41026464341761
 42
-0.003016982403274283
 10
28.11302785913313
 20
-32.24982123022926
 42
0.007621917431984297
 10
26.89949493661168
 20
-31.10050506338832
 42
0.0354220256477984
 10
26.29153466974507
 20
-30.57308106790624
 42
0.04059047131016232
 10
25.69719790240653
 20
-30.1982784106453
 42
0.04680759658544687
 10
25.00557970435283
 20
-29.91564169591173
 42
0.04610815993303607
 10
24.26261359758492
 20
-29.76329261757934
 42
0.03707411117429926
 10
23.58263499239645
 20
-29.7388121642594
 42
0.03052775412478886
 10
22.76073006297593
 20
-29.82058423003929
 42
0.01799753342248077
 10
22.15335837945495
 20
-29.94129869440119
 42
0.01254386197621021
 10
21.29426074151709
 20
-30.16732758322183
 42
0.005245906199720482
 10
20.5724615551673
 20
-30.38496235932869
 42
-0.0032224480229266
 10
19.85154901047795
 20
-30.60551635293615
 42
-0.009442148029687193
 10
18.99021302092115
 20
-30.8453511301243
 42
-0.01376165442827968
 10
18.3921758394685
 20
-30.98232841000207
 42
-0.05437359597099618
 10
16.71821046170491
 20
-31.13170453373296
 42
-0.06905942052444854
 10
15.40900974233027
 20
-30.9237283680917
 42
-0.03560223366655953
 10
14.68548537341091
 20
-30.64591360523399
 42
-0.02666406134681829
 10
13.77346815411772
 20
-30.15815900925961
 42
-0.01427638450931142
 10
13.14751057510344
 20
-29.75431069811282
 42
-0.009966395842047832
 10
12.2800366800528
 20
-29.13310658902419
 42
-0.006581633632232602
 10
10.84234168182678
 20
-28.02980755566162
 42
0.01737294734531871
 10
9.381174816428851
 20
-26.95778747357091
 42
0.01708986686029331
 10
8.50878195539787
 20
-26.40590481987662
 42
0.02267612413661296
 10
7.820187677481334
 20
-26.04344044848925
 42
0.03814917030612029
 10
6.879572380069988
 20
-25.68624583364554
 42
0.04792702951016704
 10
6.092575188767799
 20
-25.5341702016484
 42
0.06329190108826309
 10
5.185298891862148
 20
-25.56258930293831
 42
0.06408490763643386
 10
4.325068904996267
 20
-25.81529142427673
 42
0.05106341449687616
 10
3.615757801289889
 20
-26.21742861421379
 42
0.04192546486047267
 10
2.857864376269093
 20
-26.8578643762691
 42
0.06104671754662109
 10
2.176615460178214
 20
-27.72940827356939
 42
0.07455632703110307
 10
1.829382132275511
 20
-28.56775682490677
 42
0.07648536367675159
 10
1.74638308869013
 20
-29.47565074002634
 42
0.06329878311775949
 10
1.951820820088248
 20
-30.555873946567
 42
0.03583939647129614
 10
2.271253775678334
 20
-31.34187559048442
 42
0.02596976710090907
 10
2.842079284212797
 20
-32.36335953439288
 42
0.01299003508199805
 10
3.289393367242024
 20
-33.03506779833712
 42
0.008628051790664148
 10
4.005862967091964
 20
-34.01621885224831
 42
0.003278662611939732
 10
4.621514291930822
 20
-34.81847697925208
 42
-0.002649994409446292
 10
5.238173829325135
 20
-35.61996039833255
 42
-0.007311395498790424
 10
5.955647361397022
 20
-36.59194076869333
 42
-0.01084845822686389
 10
6.415118277509285
 20
-37.26418289855476
 42
-0.02018048864805511
 10
7.003052353768148
 20
-38.25057158986633
 42
-0.02656097475017709
 10
7.377970484722257
 20
-39.03866355548745
 42
-0.04384914262435739
 10
7.710234328790778
 20
-40.10039199702198
 42
-0.0539645795796417
 10
7.807611844574885
 20
-41.00000000000001
 42
-0.05400397903335611
 10
7.710089062215873
 20
-41.90028888385275
 42
-0.04387088825564159
 10
7.377280725093433
 20
-42.9630094440062
 42
-0.02655415011940611
 10
7.001997010665512
 20
-43.75140175984204
 42
-0.02017095976131388
 10
6.413452681803371
 20
-44.73837073175078
 42
-0.01083365389663561
 10
5.953902653396113
 20
-45.41051365189038
 42
-0.007296685230390305
 10
5.235909048760618
 20
-46.38301549465665
 42
-0.002634321898067846
 10
4.6190465484082
 20
-47.18471429832267
 42
0.003299059060410496
 10
4.003250421440669
 20
-47.98723248886564
 42
0.008651357859457101
 10
3.287186014929237
 20
-48.96809709995982
 42
0.01301775621093772
 10
2.839948020014003
 20
-49.64002953301318
 42
0.02600783414147723
 10
2.269733454774458
 20
-50.66129277420532
 42
0.03588623197637399
 10
1.950802588967242
 20
-51.44726099205096
 42
0.06333768836522156
 10
1.74626257252518
 20
-52.52690795244807
 42
0.07649178165142698
 10
1.82997145441674
 20
-53.43460785361322
 42
0.07444333873741467
 10
2.177285073256615
 20
-54.27176966586434
 42
0.06095684430429343
 10
2.857864376269031
 20
-55.14213562373094
 42
0.04197083367916717
 10
3.616528611575716
 20
-55.78310495796329
 42
0.05112507695056838
 10
4.326541972315438
 20
-56.18535496366255
 42
0.06411613152999222
 10
5.18709085263408
 20
-56.43769337379653
 42
0.06330209703148587
 10
6.094882710573021
 20
-56.46560899515477
 42
0.04790051992890008
 10
6.8819435807391
 20
-56.31308072390057
 42
0.03812000450608038
 10
7.822779414371994
 20
-55.95534140280303
 42
0.02264740252215338
 10
8.511258848376961
 20
-55.59266270409884
 42
0.01706650122773536
 10
9.383623074665708
 20
-55.0405436544869
 42
0.01733679560131238
 10
10.84426147010041
 20
-53.96871055802877
 42
-0.006598924273993874
 10
12.28155002690118
 20
-52.86576345441466
 42
-0.009972656129822488
 10
13.1485960056547
 20
-52.24495054189974
 42
-0.01428118308557788
 10
13.77443351277394
 20
-51.84125657338096
 42
-0.0266566021893706
 10
14.68584933903855
 20
-51.35391904358174
 42
-0.03558558284417859
 10
15.40900974233026
 20
-51.07627163190829
 42
-0.06908943693837082
 10
16.71875818571428
 20
-50.8682886848508
 42
-0.05438372634614914
 10
18.39379782802272
 20
-51.01799653391194
 42
-0.01374905866893842
 10
18.99174830516269
 20
-51.15503873341086
 42
-0.009428415101377088
 10
19.85343139280437
 20
-51.39504635263138
 42
-0.003206662088010414
 10
20.57444495372011
 20
-51.61564940670022
 42
0.005265631795661282
 10
21.29636081242334
 20
-51.8332815629677
 42
0.0125668562593371
 10
22.15537610523832
 20
-52.05916624094525
 42
0.01802350715509732
 10
22.76293285136568
 20
-52.17977138928531
 42
0.03055155996520909
 10
23.58465710130017
 20
-52.26125094015535
 42
0.03709443233008509
 10
24.26461102319972
 20
-52.23648610726674
 42
0.04609266453228344
 10
25.00704543002376
 20
-52.08391439973536
 42
0.04678153048937968
 10
25.69828378920936
 20
-51.80115399485214
 42
0.04054990227838051
 10
26.29208106576057
 20
-51.42651501225928
 42
0.03538906403475284
 10
26.89949493661159
 20
-50.89949493661172
 42
0.007621937973689726
 10
28.11303606048186
 20
-49.75017090784389
 42
-0.003017053740552222
 10
29.31594118127298
 20
-48.58971967974261
 42
-0.008429084894090067
 10
30.96568042952303
 20
-47.06955367352357
 42
-0.01721080000639032
 10
31.81093645372641
 20
-46.36727561867224
 42
-0.03407461098860314
 10
32.61117877965827
 20
-45.83062491679969
 42
-0.04712508769329041
 10
33.24557729457217
 20
-45.54088531418874
 42
-0.03551695086142771
 10
33.85948020500946
 20
-45.37544233940244
 42
-0.02195766892766002
 10
34.87582301600037
 20
-45.22357531786051
 42
-0.009298144303235797
 10
35.57152194489147
 20
-45.1637209620406
 42
-0.002467983117997084
 10
38.1969420101881
 20
-44.99996694561889
 10
88.09251578049549
 20
-45.24000000000004
 42
1.000000000000002
 10
88.09251578049548
 20
-36.76000000000003
 10
38.19694201018811
 20
-37.00003305438113
  0
CIRCLE
  5
59
100
AcDbEntity
  8
0
  6
ByLayer
 62
  256
370
   -1
100
AcDbCircle
 10
22.30330085889911
 20
-35.69669914110089
 40
1.5
  0
CIRCLE
  5
5A
100
AcDbEntity
  8
0
  6
ByLayer
 62
  256
370
   -1
100
AcDbCircle
 10
11.69669914110089
 20
-46.30330085889911
 40
1.5
  0
CIRCLE
  5
5B
100
AcDbEntity
  8
0
  6
ByLayer
 62
  256
370
   -1
100
AcDbCircle
 10
11.69669914110089
 20
-35.69669914110089
 40
1.5
  0
CIRCLE
  5
5C
100
AcDbEntity
  8
0
  6
ByLayer
 62
  256
370
   -1
100
AcDbCircle
 10
22.30330085889911
 20
-46.30330085889911
 40
1.5
  0
CIRCLE
  5
5D
100
AcDbEntity
  8
0
  6
ByLayer
 62
  256
370
   -1
100
AcDbCircle
 10
77
 20
-65
 40
2.5
  0
CIRCLE
  5
5E
100
AcDbEntity
  8
0
  6
ByLayer
 62
  256
370
   -1
100
AcDbCircle
 10
14.91602461182111
 20
-64.99999999999999
 40
1.5
  0
CIRCLE
  5
5F
100
AcDbEntity
  8
0
  6
ByLayer
 62
  256
370
   -1
100
AcDbCircle
 10
5.907484219504497
 20
-64.99999999999999
 40
1.5
  0
LWPOLYLINE
  5
60
100
AcDbEntity
  8
0
  6
ByLayer
 62
  256
370
   -1
100
AcDbPolyline
 90
  112
 70
    0
 43
0
 10
55.80305798981237
 20
-68.99996694561906
 42
-0.002469073486226367
 10
58.42880141447834
 20
-69.16374687906989
 42
-0.009302521859320369
 10
59.12456522761822
 20
-69.22361601025375
 42
-0.0219650204548166
 10
60.14084994617672
 20
-69.37551234287108
 42
-0.03552580630367244
 10
60.75476235711319
 20
-69.54100328275921
 42
-0.04711356849708969
 10
61.38898587794418
 20
-69.83071175443332
 42
-0.03406443306093952
 10
62.18906354627357
 20
-70.36727561867225
 42
-0.0172108573319954
 10
63.03432290853416
 20
-71.06955661069594
 42
-0.008429078381120907
 10
64.68407526656051
 20
-72.58973535658231
 42
-0.0030169824032742
 10
65.88697214086682
 20
-73.75017876977066
 42
0.007621917431984269
 10
67.10050506338833
 20
-74.89949493661163
 42
0.0354220256477986
 10
67.70846533025492
 20
-75.42691893209376
 42
0.04059047131016257
 10
68.30280209759347
 20
-75.80172158935471
 42
0.04680759658544693
 10
68.99442029564716
 20
-76.08435830408828
 42
0.04610815993303629
 10
69.73738640241508
 20
-76.23670738242068
 42
0.03707411117429926
 10
70.41736500760355
 20
-76.2611878357406
 42
0.03052775412478886
 10
71.23926993702406
 20
-76.17941576996068
 42
0.01799753342248061
 10
71.84664162054501
 20
-76.05870130559879
 42
0.01254386197621021
 10
72.70573925848285
 20
-75.83267241677817
 42
0.005245906199720482
 10
73.42753844483263
 20
-75.61503764067135
 42
-0.003222448022926378
 10
74.14845098952196
 20
-75.39448364706391
 42
-0.009442148029687193
 10
75.00978697907883
 20
-75.1546488698757
 42
-0.01376165442827974
 10
75.60782416053149
 20
-75.01767158999792
 42
-0.05437359597099596
 10
77.28178953829509
 20
-74.86829546626706
 42
-0.06905942052444881
 10
78.59099025766973
 20
-75.0762716319083
 42
-0.03560223366655953
 10
79.31451462658909
 20
-75.35408639476601
 42
-0.02666406134681829
 10
80.22653184588228
 20
-75.84184099074039
 42
-0.01427638450931123
 10
80.85248942489653
 20
-76.24568930188714
 42
-0.009966395842047804
 10
81.71996331994711
 20
-76.86689341097573
 42
-0.006581633632232602
 10
83.15765831817319
 20
-77.97019244433832
 42
0.01737294734531871
 10
84.61882518357112
 20
-79.0422125264291
 42
0.01708986686029351
 10
85.49121804460214
 20
-79.59409518012338
 42
0.02267612413661273
 10
86.17981232251864
 20
-79.95655955151074
 42
0.03814917030612057
 10
87.12042761993001
 20
-80.3137541663545
 42
0.04792702951016699
 10
87.9074248112322
 20
-80.46582979835162
 42
0.06329190108826287
 10
88.81470110813785
 20
-80.43741069706167
 42
0.06408490763643397
 10
89.67493109500374
 20
-80.18470857572326
 42
0.05106341449687644
 10
90.38424219871011
 20
-79.7825713857862
 42
0.04192546486047267
 10
91.14213562373091
 20
-79.14213562373091
 42
0.06104671754662109
 10
91.82338453982177
 20
-78.27059172643061
 42
0.07455632703110296
 10
92.17061786772449
 20
-77.43224317509323
 42
0.07648536367675181
 10
92.25361691130988
 20
-76.52434925997366
 42
0.06329878311775923
 10
92.04817917991174
 20
-75.444126053433
 42
0.03583939647129626
 10
91.72874622432165
 20
-74.65812440951557
 42
0.02596976710090899
 10
91.15792071578721
 20
-73.63664046560709
 42
0.0129900350819981
 10
90.71060663275796
 20
-72.96493220166283
 42
0.00862805179066412
 10
89.99413703290799
 20
-71.98378114775161
 42
0.003278662611939677
 10
89.37848570806906
 20
-71.1815230207479
 42
-0.002649994409446292
 10
88.76182617067474
 20
-70.38003960166742
 42
-0.007311395498790452
 10
88.04435263860296
 20
-69.40805923130665
 42
-0.01084845822686389
 10
87.58488172249069
 20
-68.73581710144524
 42
-0.02018048864805499
 10
86.99694764623185
 20
-67.74942841013369
 42
-0.02656097475017706
 10
86.62202951527772
 20
-66.96133644451254
 42
-0.04384914262435741
 10
86.28976567120921
 20
-65.89960800297801
 42
-0.05396457957964162
 10
86.19238815542512
 20
-64.99999999999999
 42
-0.05400397903335611
 10
86.28991093778414
 20
-64.09971111614725
 42
-0.04387088825564159
 10
86.62271927490659
 20
-63.03699055599379
 42
-0.02655415011940611
 10
86.99800298933449
 20
-62.24859824015795
 42
-0.02017095976131399
 10
87.58654731819664
 20
-61.26162926824922
 42
-0.0108336538966355
 10
88.04609734660387
 20
-60.58948634810963
 42
-0.007296685230390305
 10
88.76409095123935
 20
-59.6169845053434
 42
-0.002634321898067846
 10
89.38095345159181
 20
-58.81528570167737
 42
0.003299059060410385
 10
89.9967495785593
 20
-58.01276751113438
 42
0.008651357859457101
 10
90.71281398507074
 20
-57.03190290004019
 42
0.01301775621093772
 10
91.16005197998601
 20
-56.35997046698683
 42
0.026007834141477
 10
91.73026654522553
 20
-55.33870722579467
 42
0.03588623197637399
 10
92.04919741103275
 20
-54.55273900794906
 42
0.06333768836522179
 10
92.25373742747482
 20
-53.47309204755193
 42
0.0764917816514272
 10
92.17002854558328
 20
-52.56539214638678
 42
0.07444333873741422
 10
91.82271492674339
 20
-51.72823033413566
 42
0.06095684430429357
 10
91.14213562373098
 20
-50.85786437626906
 42
0.04197083367916705
 10
90.38347138842428
 20
-50.2168950420367
 42
0.05112507695056841
 10
89.67345802768456
 20
-49.81464503633746
 42
0.06411613152999233
 10
88.81290914736593
 20
-49.56230662620348
 42
0.06330209703148587
 10
87.90511728942698
 20
-49.53439100484523
 42
0.04790051992890013
 10
87.11805641926088
 20
-49.6869192760994
 42
0.03812000450608054
 10
86.17722058562801
 20
-50.04465859719697
 42
0.02264740252215338
 10
85.48874115162303
 20
-50.40733729590117
 42
0.01706650122773547
 10
84.61637692533427
 20
-50.95945634551309
 42
0.01733679560131238
 10
83.15573852989959
 20
-52.03128944197124
 42
-0.006598924273993874
 10
81.71844997309881
 20
-53.13423654558535
 42
-0.009972656129822488
 10
80.85140399434529
 20
-53.75504945810026
 42
-0.01428118308557788
 10
80.22556648722603
 20
-54.15874342661904
 42
-0.0266566021893706
 10
79.31415066096146
 20
-54.64608095641826
 42
-0.03558558284417865
 10
78.59099025766974
 20
-54.92372836809169
 42
-0.06908943693837093
 10
77.28124181428572
 20
-55.1317113151492
 42
-0.05438372634614948
 10
75.60620217197729
 20
-54.98200346608803
 42
-0.01374905866893859
 10
75.00825169483728
 20
-54.84496126658914
 42
-0.009428415101377144
 10
74.14656860719558
 20
-54.6049536473686
 42
-0.003206662088010414
 10
73.42555504627983
 20
-54.38435059329974
 42
0.005265631795661338
 10
72.70363918757661
 20
-54.16671843703229
 42
0.0125668562593371
 10
71.84462389476164
 20
-53.94083375905474
 42
0.01802350715509726
 10
71.23706714863431
 20
-53.82022861071466
 42
0.03055155996520909
 10
70.41534289869982
 20
-53.73874905984464
 42
0.03709443233008514
 10
69.73538897680028
 20
-53.76351389273326
 42
0.04609266453228349
 10
68.99295456997623
 20
-53.91608560026464
 42
0.04678153048937968
 10
68.30171621079063
 20
-54.19884600514787
 42
0.04054990227838029
 10
67.70791893423943
 20
-54.57348498774073
 42
0.03538906403475262
 10
67.10050506338837
 20
-55.10050506338831
 42
0.007621937973689726
 10
65.88696393951801
 20
-56.24982909215616
 42
-0.003017053740552333
 10
64.68405881872684
 20
-57.41028032025745
 42
-0.008429084894090179
 10
63.03431957047695
 20
-58.93044632647646
 42
-0.01721080000639043
 10
62.18906354627357
 20
-59.63272438132779
 42
-0.03407461098860314
 10
61.38882122034173
 20
-60.16937508320032
 42
-0.0471250876932903
 10
60.75442270542783
 20
-60.45911468581124
 42
-0.03551695086142798
 10
60.14051979499054
 20
-60.62455766059758
 42
-0.02195766892765997
 10
59.12417698399963
 20
-60.77642468213949
 42
-0.009298144303235797
 10
58.42847805510835
 20
-60.83627903795943
 42
-0.002467983117997139
 10
55.80305798981168
 20
-61.00003305438113
 10
5.907484219504511
 20
-60.75999999999995
 42
0.9999999999999999
 10
5.907484219504525
 20
-69.23999999999997
 10
55.80305798981189
 20
-68.99996694561887
  0
CIRCLE
  5
61
100
AcDbEntity
  8
0
  6
ByLayer
 62
  256
370
   -1
100
AcDbCircle
 10
71.69669914110089
 20
-70.30330085889911
 40
1.5
  0
CIRCLE
  5
62
100
AcDbEntity
  8
0
  6
ByLayer
 62
  256
370
   -1
100
AcDbCircle
 10
82.30330085889911
 20
-59.69669914110089
 40
1.5
  0
CIRCLE
  5
63
100
AcDbEntity
  8
0
  6
ByLayer
 62
  256
370
   -1
100
AcDbCircle
 10
82.30330085889911
 20
-70.30330085889911
 40
1.5
  0
CIRCLE
  5
64
100
AcDbEntity
  8
0
  6
ByLayer
 62
  256
370
   -1
100
AcDbCircle
 10
71.69669914110089
 20
-59.69669914110089
 40
1.5
  0
CIRCLE
  5
65
100
AcDbEntity
  8
0
  6
ByLayer
 62
  256
370
   -1
100
AcDbCircle
 10
17
 20
-89
 40
2.5
  0
CIRCLE
  5
66
100
AcDbEntity
  8
0
  6
ByLayer
 62
  256
370
   -1
100
AcDbCircle
 10
79.08397538817889
 20
-89
 40
1.5
  0
CIRCLE
  5
67
100
AcDbEntity
  8
0
  6
ByLayer
 62
  256
370
   -1
100
AcDbCircle
 10
88.0925157804955
 20
-89
 40
1.5
  0
LWPOLYLINE
  5
68
100
AcDbEntity
  8
0
  6
ByLayer
 62
  256
370
   -1
100
AcDbPolyline
 90
  112
 70
    0
 43
0
 10
38.19694201018743
 20
-85.00003305438094
 42
-0.0024690734862262
 10
35.57119858552168
 20
-84.83625312093017
 42
-0.009302521859320369
 10
34.87543477238176
 20
-84.77638398974625
 42
-0.0219650204548166
 10
33.85915005382326
 20
-84.62448765712892
 42
-0.03552580630367239
 10
33.24523764288681
 20
-84.45899671724079
 42
-0.04711356849708986
 10
32.61101412205581
 20
-84.16928824556668
 42
-0.03406443306093946
 10
31.81093645372642
 20
-83.63272438132772
 42
-0.01721085733199526
 10
30.96567709146581
 20
-82.93044338930397
 42
-0.008429078381120824
 10
29.31592473343946
 20
-81.41026464341759
 42
-0.003016982403274283
 10
28.11302785913316
 20
-80.24982123022926
 42
0.007621917431984325
 10
26.89949493661168
 20
-79.10050506338833
 42
0.03542202564779843
 10
26.29153466974507
 20
-78.57308106790624
 42
0.04059047131016237
 10
25.69719790240653
 20
-78.19827841064532
 42
0.04680759658544682
 10
25.00557970435283
 20
-77.91564169591173
 42
0.04610815993303612
 10
24.26261359758492
 20
-77.76329261757934
 42
0.03707411117429921
 10
23.58263499239645
 20
-77.73881216425943
 42
0.03052775412478875
 10
22.76073006297593
 20
-77.82058423003934
 42
0.01799753342248077
 10
22.15335837945495
 20
-77.94129869440123
 42
0.01254386197621021
 10
21.29426074151709
 20
-78.16732758322183
 42
0.005245906199720538
 10
20.57246155516731
 20
-78.38496235932868
 42
-0.003222448022926378
 10
19.85154901047801
 20
-78.60551635293609
 42
-0.009442148029687193
 10
18.99021302092115
 20
-78.84535113012431
 42
-0.01376165442827968
 10
18.39217583946849
 20
-78.98232841000208
 42
-0.05437359597099618
 10
16.71821046170492
 20
-79.13170453373294
 42
-0.06905942052444876
 10
15.40900974233027
 20
-78.9237283680917
 42
-0.03560223366655931
 10
14.68548537341092
 20
-78.64591360523397
 42
-0.02666406134681829
 10
13.77346815411772
 20
-78.15815900925961
 42
-0.0142763845093112
 10
13.14751057510344
 20
-77.75431069811283
 42
-0.00996639584204761
 10
12.28003668005283
 20
-77.13310658902424
 42
-0.006581633632232602
 10
10.84234168182677
 20
-76.02980755566168
 42
0.01737294734531871
 10
9.381174816428851
 20
-74.9577874735709
 42
0.01708986686029331
 10
8.508781955397875
 20
-74.4059048198766
 42
0.02267612413661296
 10
7.820187677481336
 20
-74.04344044848924
 42
0.03814917030612029
 10
6.87957238006999
 20
-73.68624583364553
 42
0.0479270295101671
 10
6.092575188767799
 20
-73.53417020164838
 42
0.06329190108826303
 10
5.185298891862148
 20
-73.56258930293832
 42
0.06408490763643408
 10
4.325068904996263
 20
-73.81529142427674
 42
0.0510634144968761
 10
3.615757801289891
 20
-74.2174286142138
 42
0.04192546486047278
 10
2.8578643762691
 20
-74.85786437626909
 42
0.06104671754662109
 10
2.176615460178223
 20
-75.72940827356939
 42
0.07455632703110296
 10
1.829382132275512
 20
-76.56775682490677
 42
0.07648536367675147
 10
1.74638308869013
 20
-77.47565074002634
 42
0.06329878311775938
 10
1.951820820088257
 20
-78.555873946567
 42
0.03583939647129614
 10
2.271253775678339
 20
-79.34187559048443
 42
0.02596976710090919
 10
2.842079284212803
 20
-80.3633595343929
 42
0.01299003508199805
 10
3.289393367242027
 20
-81.03506779833715
 42
0.008628051790664037
 10
4.005862967091957
 20
-82.01621885224831
 42
0.003278662611939732
 10
4.621514291930808
 20
-82.81847697925207
 42
-0.002649994409446292
 10
5.238173829325163
 20
-83.61996039833255
 42
-0.007311395498790368
 10
5.955647361397013
 20
-84.59194076869332
 42
-0.01084845822686389
 10
6.415118277509279
 20
-85.26418289855475
 42
-0.02018048864805509
 10
7.003052353768152
 20
-86.25057158986631
 42
-0.02656097475017709
 10
7.377970484722264
 20
-87.03866355548745
 42
-0.04384914262435741
 10
7.710234328790782
 20
-88.10039199702199
 42
-0.05396457957964171
 10
7.807611844574886
 20
-89.00000000000001
 42
-0.05400397903335611
 10
7.710089062215873
 20
-89.90028888385275
 42
-0.04387088825564159
 10
7.377280725093438
 20
-90.9630094440062
 42
-0.02655415011940633
 10
7.001997010665498
 20
-91.75140175984205
 42
-0.02017095976131388
 10
6.413452681803355
 20
-92.73837073175079
 42
-0.01083365389663561
 10
5.953902653396117
 20
-93.41051365189043
 42
-0.007296685230390305
 10
5.235909048760618
 20
-94.38301549465668
 42
-0.002634321898067846
 10
4.619046548408207
 20
-95.1847142983227
 42
0.003299059060410385
 10
4.003250421440669
 20
-95.98723248886569
 42
0.00865135785945699
 10
3.287186014929269
 20
-96.96809709995983
 42
0.01301775621093772
 10
2.839948020014006
 20
-97.64002953301318
 42
0.02600783414147723
 10
2.269733454774466
 20
-98.66129277420532
 42
0.03588623197637388
 10
1.95080258896725
 20
-99.44726099205096
 42
0.06333768836522156
 10
1.746262572525177
 20
-100.5269079524481
 42
0.07649178165142698
 10
1.829971454416746
 20
-101.4346078536132
 42
0.07444333873741434
 10
2.177285073256624
 20
-102.2717696658643
 42
0.06095684430429354
 10
2.85786437626903
 20
-103.1421356237309
 42
0.04197083367916694
 10
3.616528611575708
 20
-103.7831049579633
 42
0.05112507695056838
 10
4.326541972315431
 20
-104.1853549636625
 42
0.06411613152999245
 10
5.187090852634078
 20
-104.4376933737965
 42
0.06330209703148587
 10
6.094882710573021
 20
-104.4656089951548
 42
0.04790051992890008
 10
6.881943580739097
 20
-104.3130807239006
 42
0.03812000450608038
 10
7.82277941437199
 20
-103.955341402803
 42
0.02264740252215338
 10
8.511258848376986
 20
-103.5926627040988
 42
0.01706650122773536
 10
9.383623074665714
 20
-103.0405436544869
 42
0.01733679560131261
 10
10.84426147010041
 20
-101.9687105580288
 42
-0.006598924273993874
 10
12.28155002690118
 20
-100.8657634544147
 42
-0.009972656129822488
 10
13.14859600565469
 20
-100.2449505418997
 42
-0.014281183085578
 10
13.77443351277394
 20
-99.84125657338095
 42
-0.0266566021893706
 10
14.68584933903854
 20
-99.35391904358175
 42
-0.0355855828441787
 10
15.40900974233026
 20
-99.0762716319083
 42
-0.06908943693837065
 10
16.71875818571428
 20
-98.8682886848508
 42
-0.05438372634614931
 10
18.39379782802272
 20
-99.01799653391197
 42
-0.01374905866893842
 10
18.99174830516269
 20
-99.15503873341086
 42
-0.009428415101377088
 10
19.85343139280436
 20
-99.39504635263137
 42
-0.003206662088010414
 10
20.57444495372008
 20
-99.61564940670024
 42
0.005265631795661282
 10
21.29636081242333
 20
-99.8332815629677
 42
0.0125668562593371
 10
22.15537610523833
 20
-100.0591662409453
 42
0.01802350715509732
 10
22.76293285136568
 20
-100.1797713892853
 42
0.03055155996520909
 10
23.58465710130017
 20
-100.2612509401553
 42
0.03709443233008509
 10
24.26461102319971
 20
-100.2364861072667
 42
0.04609266453228321
 10
25.00704543002376
 20
-100.0839143997353
 42
0.04678153048937968
 10
25.69828378920936
 20
-99.80115399485213
 42
0.04054990227838029
 10
26.29208106576058
 20
-99.42651501225927
 42
0.03538906403475284
 10
26.89949493661154
 20
-98.89949493661176
 42
0.007621937973689726
 10
28.11303606048179
 20
-97.75017090784397
 42
-0.003017053740552333
 10
29.31594118127302
 20
-96.58971967974261
 42
-0.008429084894090067
 10
30.96568042952303
 20
-95.06955367352356
 42
-0.01721080000639021
 10
31.81093645372641
 20
-94.36727561867224
 42
-0.03407461098860314
 10
32.61117877965827
 20
-93.83062491679968
 42
-0.0471250876932903
 10
33.24557729457217
 20
-93.54088531418876
 42
-0.03551695086142776
 10
33.85948020500946
 20
-93.37544233940241
 42
-0.02195766892765997
 10
34.87582301600037
 20
-93.22357531786051
 42
-0.009298144303235797
 10
35.57152194489147
 20
-93.1637209620406
 42
-0.002467983117997084
 10
38.1969420101881
 20
-92.99996694561889
 10
88.09251578049549
 20
-93.24000000000004
 42
1.000000000000002
 10
88.09251578049548
 20
-84.76000000000002
 10
38.19694201018811
 20
-85.00003305438113
  0
CIRCLE
  5
69
100
AcDbEntity
  8
0
  6
ByLayer
 62
  256
370
   -1
100
AcDbCircle
 10
22.30330085889911
 20
-83.69669914110089
 40
1.5
  0
CIRCLE
  5
6A
100
AcDbEntity
  8
0
  6
ByLayer
 62
  256
370
   -1
100
AcDbCircle
 10
11.69669914110089
 20
-94.30330085889911
 40
1.5
  0
CIRCLE
  5
6B
100
AcDbEntity
  8
0
  6
ByLayer
 62
  256
370
   -1
100
AcDbCircle
 10
11.69669914110089
 20
-83.69669914110089
 40
1.5
  0
CIRCLE
  5
6C
100
AcDbEntity
  8
0
  6
ByLayer
 62
  256
370
   -1
100
AcDbCircle
 10
22.30330085889911
 20
-94.30330085889911
 40
1.5
  0
CIRCLE
  5
6D
100
AcDbEntity
  8
0
  6
ByLayer
 62
  256
370
   -1
100
AcDbCircle
 10
77
 20
-113
 40
2.5
  0
CIRCLE
  5
6E
100
AcDbEntity
  8
0
  6
ByLayer
 62
  256
370
   -1
100
AcDbCircle
 10
14.91602461182111
 20
-113
 40
1.5
  0
CIRCLE
  5
6F
100
AcDbEntity
  8
0
  6
ByLayer
 62
  256
370
   -1
100
AcDbCircle
 10
5.907484219504497
 20
-113
 40
1.5
  0
LWPOLYLINE
  5
70
100
AcDbEntity
  8
0
  6
ByLayer
 62
  256
370
   -1
100
AcDbPolyline
 90
  112
 70
    0
 43
0
 10
55.80305798981239
 20
-116.999966945619
 42
-0.002469073486226367
 10
58.42880141447835
 20
-117.1637468790697
 42
-0.009302521859320425
 10
59.12456522761822
 20
-117.2236160102537
 42
-0.0219650204548166
 10
60.14084994617672
 20
-117.3755123428711
 42
-0.03552580630367222
 10
60.75476235711319
 20
-117.5410032827592
 42
-0.04711356849708958
 10
61.38898587794417
 20
-117.8307117544333
 42
-0.03406443306093946
 10
62.18906354627357
 20
-118.3672756186723
 42
-0.0172108573319954
 10
63.03432290853414
 20
-119.069556610696
 42
-0.008429078381120879
 10
64.68407526656047
 20
-120.5897353565824
 42
-0.0030169824032742
 10
65.88697214086682
 20
-121.7501787697707
 42
0.007621917431984269
 10
67.10050506338831
 20
-122.8994949366117
 42
0.03542202564779837
 10
67.70846533025494
 20
-123.4269189320938
 42
0.04059047131016234
 10
68.30280209759347
 20
-123.8017215893547
 42
0.0468075965854467
 10
68.99442029564716
 20
-124.0843583040883
 42
0.04610815993303607
 10
69.73738640241508
 20
-124.2367073824207
 42
0.03707411117429882
 10
70.41736500760355
 20
-124.2611878357406
 42
0.03052775412478909
 10
71.23926993702405
 20
-124.1794157699607
 42
0.01799753342248061
 10
71.84664162054503
 20
-124.0587013055988
 42
0.01254386197621043
 10
72.70573925848289
 20
-123.8326724167782
 42
0.005245906199720482
 10
73.42753844483266
 20
-123.6150376406713
 42
-0.003222448022926378
 10
74.14845098952196
 20
-123.3944836470639
 42
-0.009442148029687193
 10
75.00978697907883
 20
-123.1546488698757
 42
-0.01376165442827968
 10
75.60782416053149
 20
-123.0176715899979
 42
-0.05437359597099585
 10
77.28178953829509
 20
-122.868295466267
 42
-0.06905942052444881
 10
78.59099025766973
 20
-123.0762716319083
 42
-0.03560223366655953
 10
79.31451462658909
 20
-123.354086394766
 42
-0.02666406134681834
 10
80.22653184588228
 20
-123.8418409907404
 42
-0.01427638450931123
 10
80.85248942489653
 20
-124.2456893018872
 42
-0.009966395842047804
 10
81.71996331994711
 20
-124.8668934109757
 42
-0.006581633632232602
 10
83.15765831817319
 20
-125.9701924443383
 42
0.01737294734531849
 10
84.6188251835711
 20
-127.0422125264291
 42
0.01708986686029329
 10
85.49121804460214
 20
-127.5940951801234
 42
0.02267612413661318
 10
86.17981232251866
 20
-127.9565595515108
 42
0.03814917030612013
 10
87.12042761993001
 20
-128.3137541663545
 42
0.04792702951016721
 10
87.9074248112322
 20
-128.4658297983516
 42
0.06329190108826309
 10
88.81470110813785
 20
-128.4374106970617
 42
0.06408490763643331
 10
89.67493109500374
 20
-128.1847085757232
 42
0.05106341449687622
 10
90.38424219871011
 20
-127.7825713857862
 42
0.04192546486047267
 10
91.14213562373091
 20
-127.1421356237309
 42
0.06104671754662109
 10
91.82338453982177
 20
-126.2705917264306
 42
0.07455632703110318
 10
92.17061786772449
 20
-125.4322431750932
 42
0.07648536367675136
 10
92.25361691130986
 20
-124.5243492599737
 42
0.06329878311775938
 10
92.04817917991173
 20
-123.444126053433
 42
0.03583939647129634
 10
91.72874622432165
 20
-122.6581244095156
 42
0.02596976710090909
 10
91.1579207157872
 20
-121.6366404656071
 42
0.01299003508199802
 10
90.71060663275796
 20
-120.9649322016629
 42
0.008628051790664093
 10
89.994137032908
 20
-119.9837811477516
 42
0.003278662611939705
 10
89.37848570806914
 20
-119.1815230207479
 42
-0.002649994409446292
 10
88.76182617067479
 20
-118.3800396016674
 42
-0.007311395498790452
 10
88.04435263860299
 20
-117.4080592313067
 42
-0.01084845822686389
 10
87.58488172249071
 20
-116.7358171014452
 42
-0.02018048864805511
 10
86.99694764623186
 20
-115.7494284101337
 42
-0.02656097475017706
 10
86.62202951527775
 20
-114.9613364445125
 42
-0.04384914262435741
 10
86.28976567120922
 20
-113.899608002978
 42
-0.05396457957964184
 10
86.19238815542512
 20
-113
 42
-0.054003979033356
 10
86.28991093778413
 20
-112.0997111161472
 42
-0.04387088825564148
 10
86.62271927490657
 20
-111.0369905559938
 42
-0.02655415011940611
 10
86.99800298933451
 20
-110.2485982401579
 42
-0.02017095976131388
 10
87.58654731819662
 20
-109.2616292682492
 42
-0.01083365389663561
 10
88.04609734660386
 20
-108.5894863481096
 42
-0.007296685230390305
 10
88.76409095123937
 20
-107.6169845053434
 42
-0.002634321898067846
 10
89.38095345159178
 20
-106.8152857016774
 42
0.003299059060410385
 10
89.99674957855927
 20
-106.0127675111344
 42
0.008651357859457101
 10
90.71281398507075
 20
-105.0319029000402
 42
0.01301775621093772
 10
91.16005197998599
 20
-104.3599704669868
 42
0.026007834141477
 10
91.73026654522552
 20
-103.3387072257947
 42
0.03588623197637377
 10
92.04919741103274
 20
-102.552739007949
 42
0.06333768836522156
 10
92.25373742747482
 20
-101.4730920475519
 42
0.0764917816514272
 10
92.17002854558326
 20
-100.5653921463868
 42
0.07444333873741439
 10
91.82271492674339
 20
-99.72823033413566
 42
0.06095684430429363
 10
91.14213562373097
 20
-98.85786437626908
 42
0.04197083367916697
 10
90.38347138842428
 20
-98.21689504203671
 42
0.05112507695056838
 10
89.67345802768456
 20
-97.81464503633745
 42
0.06411613152999233
 10
88.81290914736593
 20
-97.56230662620348
 42
0.06330209703148615
 10
87.90511728942698
 20
-97.53439100484522
 42
0.04790051992890008
 10
87.11805641926088
 20
-97.68691927609942
 42
0.03812000450608032
 10
86.17722058562801
 20
-98.04465859719696
 42
0.02264740252215338
 10
85.48874115162303
 20
-98.40733729590119
 42
0.01706650122773547
 10
84.61637692533427
 20
-98.95945634551313
 42
0.01733679560131238
 10
83.15573852989958
 20
-100.0312894419712
 42
-0.006598924273994096
 10
81.71844997309874
 20
-101.1342365455854
 42
-0.009972656129822488
 10
80.85140399434529
 20
-101.7550494581003
 42
-0.01428118308557788
 10
80.22556648722605
 20
-102.1587434266191
 42
-0.0266566021893706
 10
79.31415066096143
 20
-102.6460809564182
 42
-0.03558558284417843
 10
78.59099025766974
 20
-102.9237283680917
 42
-0.06908943693837048
 10
77.28124181428572
 20
-103.1317113151492
 42
-0.05438372634614926
 10
75.60620217197729
 20
-102.982003466088
 42
-0.01374905866893837
 10
75.0082516948373
 20
-102.8449612665891
 42
-0.009428415101377144
 10
74.1465686071956
 20
-102.6049536473686
 42
-0.003206662088010414
 10
73.42555504627984
 20
-102.3843505932998
 42
0.005265631795661338
 10
72.70363918757661
 20
-102.1667184370323
 42
0.0125668562593371
 10
71.84462389476164
 20
-101.9408337590547
 42
0.01802350715509743
 10
71.23706714863431
 20
-101.8202286107147
 42
0.03055155996520892
 10
70.41534289869982
 20
-101.7387490598447
 42
0.03709443233008503
 10
69.73538897680028
 20
-101.7635138927333
 42
0.04609266453228344
 10
68.99295456997623
 20
-101.9160856002647
 42
0.04678153048937939
 10
68.30171621079063
 20
-102.1988460051479
 42
0.04054990227838018
 10
67.70791893423944
 20
-102.5734849877407
 42
0.03538906403475284
 10
67.10050506338837
 20
-103.1005050633883
 42
0.007621937973689615
 10
65.88696393951807
 20
-104.2498290921561
 42
-0.003017053740552333
 10
64.68405881872684
 20
-105.4102803202575
 42
-0.008429084894090179
 10
63.03431957047693
 20
-106.9304463264764
 42
-0.01721080000639021
 10
62.18906354627359
 20
-107.6327243813278
 42
-0.03407461098860336
 10
61.38882122034173
 20
-108.1693750832003
 42
-0.0471250876932903
 10
60.75442270542783
 20
-108.4591146858112
 42
-0.03551695086142776
 10
60.14051979499052
 20
-108.6245576605976
 42
-0.02195766892765952
 10
59.12417698399962
 20
-108.7764246821395
 42
-0.009298144303235575
 10
58.42847805510836
 20
-108.8362790379593
 42
-0.002467983117997139
 10
55.80305798981167
 20
-109.0000330543811
 10
5.907484219504511
 20
-108.7599999999999
 42
0.9999999999999999
 10
5.907484219504525
 20
-117.24
 10
55.80305798981189
 20
-116.9999669456189
  0
CIRCLE
  5
71
100
AcDbEntity
  8
0
  6
ByLayer
 62
  256
370
   -1
100
AcDbCircle
 10
71.69669914110089
 20
-118.3033008588991
 40
1.5
  0
CIRCLE
  5
72
100
AcDbEntity
  8
0
  6
ByLayer
 62
  256
370
   -1
100
AcDbCircle
 10
82.30330085889911
 20
-107.6966991411009
 40
1.5
  0
CIRCLE
  5
73
100
AcDbEntity
  8
0
  6
ByLayer
 62
  256
370
   -1
100
AcDbCircle
 10
82.30330085889911
 20
-118.3033008588991
 40
1.5
  0
CIRCLE
  5
74
100
AcDbEntity
  8
0
  6
ByLayer
 62
  256
370
   -1
100
AcDbCircle
 10
71.69669914110089
 20
-107.6966991411009
 40
1.5
  0
CIRCLE
  5
75
100
AcDbEntity
  8
0
  6
ByLayer
 62
  256
370
   -1
100
AcDbCircle
 10
100
 20
-73.24000000000012
 40
1.5
  0
CIRCLE
  5
76
100
AcDbEntity
  8
0
  6
ByLayer
 62
  256
370
   -1
100
AcDbCircle
 10
106.3700000000001
 20
-66.87
 40
1.5
  0
CIRCLE
  5
77
100
AcDbEntity
  8
0
  6
ByLayer
 62
  256
370
   -1
100
AcDbCircle
 10
99.99999999999989
 20
-30.00000000000011
 40
1.5
  0
CIRCLE
  5
78
100
AcDbEntity
  8
0
  6
ByLayer
 62
  256
370
   -1
100
AcDbCircle
 10
106.3700000000001
 20
-36.37000000000012
 40
1.5
  0
CIRCLE
  5
79
100
AcDbEntity
  8
0
  6
ByLayer
 62
  256
370
   -1
100
AcDbCircle
 10
164.3700000000001
 20
-66.87
 40
1.5
  0
CIRCLE
  5
7A
100
AcDbEntity
  8
0
  6
ByLayer
 62
  256
370
   -1
100
AcDbCircle
 10
170.7400000000004
 20
-73.24000000000009
 40
1.5
  0
CIRCLE
  5
7B
100
AcDbEntity
  8
0
  6
ByLayer
 62
  256
370
   -1
100
AcDbCircle
 10
164.3700000000001
 20
-36.37
 40
1.5
  0
CIRCLE
  5
7C
100
AcDbEntity
  8
0
  6
ByLayer
 62
  256
370
   -1
100
AcDbCircle
 10
170.7400000000002
 20
-29.99999999999983
 40
1.5
  0
CIRCLE
  5
7D
100
AcDbEntity
  8
0
  6
ByLayer
 62
  256
370
   -1
100
AcDbCircle
 10
156.3700000000001
 20
-61.62000000000006
 40
1
  0
CIRCLE
  5
7E
100
AcDbEntity
  8
0
  6
ByLayer
 62
  256
370
   -1
100
AcDbCircle
 10
156.3700000000001
 20
-41.62000000000006
 40
1
  0
CIRCLE
  5
7F
100
AcDbEntity
  8
0
  6
ByLayer
 62
  256
370
   -1
100
AcDbCircle
 10
136.3700000000001
 20
-41.62000000000006
 40
1
  0
CIRCLE
  5
80
100
AcDbEntity
  8
0
  6
ByLayer
 62
  256
370
   -1
100
AcDbCircle
 10
136.3700000000001
 20
-61.62000000000006
 40
1
  0
CIRCLE
  5
81
100
AcDbEntity
  8
0
  6
ByLayer
 62
  256
370
   -1
100
AcDbCircle
 10
146.3700000000001
 20
-51.62000000000006
 40
5.119751269282875
  0
CIRCLE
  5
82
100
AcDbEntity
  8
0
  6
ByLayer
 62
  256
370
   -1
100
AcDbCircle
 10
120.8700000000001
 20
-51.62000000000006
 40
6.74876303678197
  0
LWPOLYLINE
  5
83
100
AcDbEntity
  8
0
  6
ByLayer
 62
  256
370
   -1
100
AcDbPolyline
 90
  109
 70
    0
 43
0
 10
167.9115728752541
 20
-27.17157287525374
 42
-0.9999999999999974
 10
173.5684271247465
 20
-32.82842712474616
 42
0.01458755654457886
 10
172.7649865902823
 20
-34.95218647927818
 42
0.01730020273993359
 10
172.2029719538649
 20
-36.78263436321019
 42
0.02575927544808558
 10
171.7136765443378
 20
-39.05820971303899
 42
0.03236437857748454
 10
171.5368061197226
 20
-40.90301983267634
 42
0.05398205368639469
 10
171.7175519762592
 20
-43.24624266832852
 42
0.06982952974251246
 10
172.297563377346
 20
-44.97174320889913
 42
0.04695250690129848
 10
172.8651718319333
 20
-45.88205259563005
 42
0.04971872384587848
 10
173.5564609013694
 20
-46.62300642862562
 42
0.02616569973174157
 10
173.9696494490721
 20
-46.94927229096453
 42
0.02660474328550082
 10
174.4075648918779
 20
-47.22557654897918
 42
0.01397954896537663
 10
174.643042962516
 20
-47.34868268078998
 42
0.014519762203774
 10
174.876147135981
 20
-47.45410307963206
 42
0.01790251095805127
 10
175.1798566911295
 20
-47.5683790795085
 42
0.02950124906906722
 10
175.3700000000001
 20
-47.62000000000006
 42
-0.9999999999999999
 10
175.3700000000001
 20
-55.62000000000006
 10
175.3541829917206
 20
-55.62359942451884
 10
175.3383776120265
 20
-55.62745182013579
 10
175.3068457628924
 20
-55.63563249520628
 42
0.003443134884139798
 10
175.2768130390514
 20
-55.6439134546175
 42
0.003148918919051425
 10
175.244096530319
 20
-55.65340026768881
 42
0.005316410591258517
 10
175.1841590871661
 20
-55.67188597259772
 42
0.004918389954517375
 10
175.1197940264425
 20
-55.69318943796664
 42
0.008540233258067487
 10
175.0007591295282
 20
-55.73617531065141
 42
0.008034827372851962
 10
174.8758215775592
 20
-55.78603292625755
 42
0.01452691370106506
 10
174.6425816386064
 20
-55.89154200309689
 42
0.01398679543910422
 10
174.4069776641529
 20
-56.01475172327616
 42
0.0266154522908949
 10
173.9689069635113
 20
-56.29125303394607
 42
0.02617649795506612
 10
173.555600770998
 20
-56.61774920986838
 42
0.04973306744810557
 10
172.8642640213426
 20
-57.35913301194815
 42
0.04696241452613652
 10
172.2966938090487
 20
-58.26999636766028
 42
0.06981151386135125
 10
171.7171378597357
 20
-59.99578327860981
 42
0.05396511319239876
 10
171.5368792398359
 20
-62.33934054769917
 42
0.03234474950101499
 10
171.7139806827524
 20
-64.18375245185734
 42
0.02574586330905697
 10
172.2033143380127
 20
-66.45863565889951
 42
0.01729268716365122
 10
172.7652385436817
 20
-68.28854924205763
 42
0.0145821208904306
 10
173.5684271247464
 20
-70.41157287525401
 42
-0.9999999999999988
 10
167.9115728752541
 20
-76.06842712474636
 42
0.02557753679047059
 10
167.1586433431874
 20
-75.42437321775942
 42
0.01519192809404753
 10
165.8074694072442
 20
-74.44727342045323
 42
0.01204416207703341
 10
164.7149053479652
 20
-73.74446671939306
 42
0.01150550181565678
 10
163.5378361360407
 20
-73.06342653807974
 42
0.02156470888251692
 10
161.1766685163751
 20
-71.89830463974096
 42
0.02111967750021737
 10
158.6731491133456
 20
-70.91851755332131
 42
0.01756260423963539
 10
156.2436381507052
 20
-70.17845383152476
 42
0.01380468449064237
 10
153.100191552811
 20
-69.4326301818968
 42
0.009252930796161194
 10
150.4966891362251
 20
-68.94044443764876
 42
0.007836990743715211
 10
147.4048138446695
 20
-68.46472638526798
 42
0.01053017998603469
 10
142.3118374593694
 20
-67.87163680529434
 42
0.008390861839260565
 10
135.8970423320175
 20
-67.3696887920384
 42
0.006803519606978294
 10
130.360730740217
 20
-67.10539953681067
 42
0.008076890485342852
 10
125.6926045570572
 20
-67.02163992002416
 42
0.005862812362144215
 10
122.9147296757618
 20
-67.04924725962931
 42
0.007030455430017017
 10
120.5995429944265
 20
-67.13199050873749
 42
0.01160076939523826
 10
117.6361458116968
 20
-67.3486598429739
 42
0.01636009610197854
 10
115.5464254555871
 20
-67.61953318805774
 42
0.02946424148292241
 10
113.3801871515641
 20
-68.10515589755144
 42
0.03927618314386006
 10
111.8192928005385
 20
-68.68903995095403
 42
0.0361020041392187
 10
110.4042755257985
 20
-69.47801743375251
 42
0.02577553683853253
 10
108.5750360288668
 20
-70.81834447582612
 42
0.01019679534638892
 10
107.4709042965399
 20
-71.75645851767059
 42
0.006048234315772835
 10
105.6619139771437
 20
-73.39755873714695
 42
0.001748210172254865
 10
104.8285815868604
 20
-74.17758035544171
 42
0.0007249808138803576
 10
102.8284271247463
 20
-76.06842712474622
 42
-0.9999999999999999
 10
97.17157287525382
 20
-70.41157287525392
 42
0.0306728479608336
 10
99.02588151837725
 20
-65.94983469749056
 42
0.03045241588767921
 10
100.331803393068
 20
-61.26169018081917
 42
0.02883424077417772
 10
101.0556359505134
 20
-56.57186824638525
 42
0.02764505083082421
 10
101.254559473062
 20
-51.62672012634997
 42
0.0251984465693947
 10
100.9438874100877
 20
-46.88736743054881
 42
0.02423004161089
 10
100.1360627484994
 20
-42.01476496145897
 42
0.0117998320496976
 10
99.56533161837908
 20
-39.64506326646764
 42
0.0119853823694487
 10
98.89313335552873
 20
-37.34139493470347
 42
0.006418741471209297
 10
98.5023754293496
 20
-36.16507794046922
 42
0.006754168053557706
 10
98.10170236353966
 20
-35.05734473053101
 42
0.003833502698391796
 10
97.87621039854493
 20
-34.47292533315245
 42
0.004122512955606307
 10
97.65790571317601
 20
-33.93288075927747
 42
0.002422951225968393
 10
97.53599463282609
 20
-33.64230250227307
 42
0.002641746749278797
 10
97.4214865644681
 20
-33.3769365690015
 42
0.003716308709335204
 10
97.17691077434577
 20
-32.82939260909704
 42
0.5233702260547919
 10
97.1715728752539
 20
-32.82842712474606
 42
-0.9999999999999999
 10
102.8284271247453
 20
-27.17157287525356
 42
0.0007251690155589554
 10
104.8288110220755
 20
-29.06263511537213
 42
0.001748704018205605
 10
105.6622209924933
 20
-29.8427266293342
 42
0.006050485322842395
 10
107.47146112165
 20
-31.48402962783194
 42
0.01020101688031387
 10
108.5757109036356
 20
-32.4222056111408
 42
0.02578111838399838
 10
110.404874250106
 20
-33.76236505188158
 42
0.036106380027551
 10
111.8199733762377
 20
-34.55127749018158
 42
0.0392666376997196
 10
113.3805832522855
 20
-35.1349673442745
 42
0.02945666356079609
 10
115.546425455588
 20
-35.62046681194137
 42
0.01636027718146175
 10
117.6361739887277
 20
-35.89134304005177
 42
0.01160085482515511
 10
120.5996221490761
 20
-36.10801343517794
 42
0.007030350149057708
 10
122.9147964638606
 20
-36.19075425974043
 42
0.005862739029912523
 10
125.6926495847857
 20
-36.21835999947891
 42
0.008076838250080905
 10
130.3607582878622
 20
-36.13459954335124
 42
0.006803483993201924
 10
135.8970423320182
 20
-35.8703112079607
 42
0.008391252739849399
 10
142.3121051538944
 20
-35.36833720235667
 42
0.0105307816285274
 10
147.4052390519664
 20
-34.77521499765369
 42
0.007837276009004279
 10
150.4971207413468
 20
-34.29948159052262
 42
0.009253305684536367
 10
153.1006167708369
 20
-33.80728125063825
 42
0.01380407083172458
 10
156.2438024877446
 20
-33.06150162573011
 42
0.01756156490828036
 10
158.6731491133464
 20
-32.32148244667781
 42
0.02112085540380044
 10
161.1768058021157
 20
-31.34163483307966
 42
0.02156596332790828
 10
163.5380910152051
 20
-30.17643371642439
 42
0.01150511893387828
 10
164.715104372504
 20
-29.49541177655484
 42
0.01204379509621003
 10
165.8076139394231
 20
-28.7926286061823
 42
0.01519124443698634
 10
167.1586969094472
 20
-27.81558356406676
 42
0.02557653815497278
 10
167.911572875255
 20
-27.17157287525276
 42
0.02557653815497278
  0
CIRCLE
  5
84
100
AcDbEntity
  8
0
  6
ByLayer
 62
  256
370
   -1
100
AcDbCircle
 10
175.3700000000001
 20
-51.62000000000006
 40
1.5
  0
CIRCLE
  5
85
100
AcDbEntity
  8
0
  6
ByLayer
 62
  256
370
   -1
100
AcDbCircle
 10
171
 20
-105.25
 40
1.5
  0
CIRCLE
  5
86
100
AcDbEntity
  8
0
  6
ByLayer
 62
  256
370
   -1
100
AcDbCircle
 10
102
 20
-120.4999999999999
 40
1.5
  0
CIRCLE
  5
87
100
AcDbEntity
  8
0
  6
ByLayer
 62
  256
370
   -1
100
AcDbCircle
 10
102
 20
-90
 40
1.5
  0
LWPOLYLINE
  5
88
100
AcDbEntity
  8
0
  6
ByLayer
 62
  256
370
   -1
100
AcDbPolyline
 90
   56
 70
    0
 43
0
 10
171
 20
-99.75
 42
-0.9999999999999972
 10
170.9999999999996
 20
-110.75
 42
-0.001639819315811706
 10
167.7514135708509
 20
-111.5305647294799
 42
-0.001004372397997046
 10
162.4408531164146
 20
-112.7769087668714
 42
-0.0008422903905149588
 10
158.1859720611366
 20
-113.7589277573354
 42
-0.0008292866584293974
 10
153.8610615474494
 20
-114.7418920775649
 42
-0.001739191084357855
 10
144.956002067579
 20
-116.7177790551679
 42
-0.001863028221712102
 10
136.629793008047
 20
-118.5023891325061
 42
-0.001072772709155015
 10
132.1888518029443
 20
-119.4270053415851
 42
-0.001138898944074778
 10
128.0019464112526
 20
-120.2794253174885
 42
-0.001305143779533849
 10
123.5161091920496
 20
-121.1698918932186
 42
-0.001408896952922787
 10
119.3561978937477
 20
-121.9722150846086
 42
-0.001675167246220319
 10
114.8150827407815
 20
-122.8190432105036
 42
-0.00184613194642922
 10
110.6891947161115
 20
-123.5584112391583
 42
-0.002304847792323075
 10
106.0734632947818
 20
-124.3460679769639
 42
-0.002615937609800484
 10
101.9999999999998
 20
-124.9999999999999
 42
-0.9999999999999999
 10
102
 20
-115.9999999999999
 42
0.01703274249247195
 10
104.2250660830539
 20
-115.4190863387323
 42
0.02148491646183916
 10
105.9486741984314
 20
-114.8240779492459
 42
0.03666576955529614
 10
108.0632140464809
 20
-113.8061208073585
 42
0.04875215921538178
 10
109.501817000189
 20
-112.7804137362361
 42
0.03518951752330583
 10
110.2577758134471
 20
-112.0217757780271
 42
0.03815421350463125
 10
110.8454187325659
 20
-111.2275599440337
 42
0.03913362673170558
 10
111.3069061079378
 20
-110.3465295512612
 42
0.03660722034104232
 10
111.6524745117999
 20
-109.3412524097974
 42
0.02726789129244369
 10
111.8362549387903
 20
-108.4501870373785
 42
0.02159473781590858
 10
111.9574172754744
 20
-107.3080750866922
 42
0.01045551522651387
 10
111.9857531536988
 20
-106.6272823373948
 42
0.005171947982213762
 10
112
 20
-105.2499999999996
 42
0.005178818875758098
 10
111.9857248018766
 20
-103.8718078289064
 42
0.0104695309343619
 10
111.9573327187833
 20
-103.1905748492177
 42
0.02161758929559342
 10
111.8359744996883
 20
-102.0480238501046
 42
0.02729506264689519
 10
111.6519051461941
 20
-101.156590455167
 42
0.03661932248041099
 10
111.3060495994409
 20
-100.1514840382543
 42
0.03913943775078992
 10
110.8442053449224
 20
-99.27050859727748
 42
0.03813972502748319
 10
110.2564463550436
 20
-98.47667746763391
 42
0.03517279225687099
 10
109.5003990480346
 20
-97.71835087371917
 42
0.0487276045694602
 10
108.0618064550884
 20
-96.69304471326376
 42
0.03664875844937519
 10
105.9475366544612
 20
-95.67547384559396
 42
0.02147517029831522
 10
104.2243359813692
 20
-95.08069279560922
 42
0.0170263741440664
 10
102
 20
-94.5
 42
-0.9999999999999983
 10
102.0000000000001
 20
-85.50000000000017
 42
-0.002615785435810686
 10
106.0732102672008
 20
-86.15389013172813
 42
-0.002304730438725185
 10
110.6886219264665
 20
-86.94148829739174
 42
-0.001846123548833458
 10
114.8144002861061
 20
-87.68083201146055
 42
-0.001675160882360064
 10
119.355391393742
 20
-88.52763172180846
 42
-0.00140888336918872
 10
123.5151617030543
 20
-89.32992269716112
 42
-0.001305132049323437
 10
128.0008440290285
 20
-90.22035286101789
 42
-0.001138945330991304
 10
132.1878186402693
 20
-91.0727819339088
 42
-0.001072813245201946
 10
136.6288461984576
 20
-91.99741161913448
 42
-0.001863057692659658
 10
144.9550581987853
 20
-93.78201508312691
 42
-0.00173921066258766
 10
153.8601613078253
 20
-95.75790488623215
 42
-0.0008293234968016059
 10
158.1852604779545
 20
-96.74090926033455
 42
-0.0008423240880090141
 10
162.4403457900965
 20
-97.72297324271744
 42
-0.001004416016174543
 10
167.751206683995
 20
-98.96938596886076
 42
-0.001639878791381627
 10
170.9999999999999
 20
-99.74999999999989
 42
-0.001639878791381627
  0
LWPOLYLINE
  5
89
100
AcDbEntity
  8
0
  6
ByLayer
 62
  256
370
   -1
100
AcDbPolyline
 90
    6
 70
    1
 43
0
 10
120.7299999999999
 20
-110.77
 10
120.7299999999999
 20
-113.77
 42
0.414213562373095
 10
122.7299999999999
 20
-115.77
 10
142.7299999999999
 20
-111.77
 42
0.9999999999999999
 10
142.7299999999999
 20
-108.77
 10
122.7299999999999
 20
-108.77
 42
0.414213562373095
  0
LWPOLYLINE
  5
8A
100
AcDbEntity
  8
0
  6
ByLayer
 62
  256
370
   -1
100
AcDbPolyline
 90
    6
 70
    1
 43
0
 10
120.7299999999999
 20
-99.72999999999988
 10
120.7299999999999
 20
-96.72999999999988
 42
-0.414213562373095
 10
122.7299999999999
 20
-94.72999999999988
 10
142.7299999999999
 20
-98.72999999999988
 42
-0.9999999999999999
 10
142.7299999999999
 20
-101.7299999999999
 10
122.7299999999999
 20
-101.7299999999999
 42
-0.414213562373095
  0
LWPOLYLINE
  5
8B
100
AcDbEntity
  8
0
  6
ByLayer
 62
  256
370
   -1
100
AcDbPolyline
 90
    5
 70
    0
 43
0
 10
5
 20
-13
 42
0.9999999999999999
 10
4.999999999999999
 20
-21
 10
151.04
 20
-20.9999999999998
 42
0.9999999999999999
 10
151.04
 20
-12.9999999999998
 10
5
 20
-13
  0
LWPOLYLINE
  5
8C
100
AcDbEntity
  8
0
  6
ByLayer
 62
  256
370
   -1
100
AcDbPolyline
 90
    4
 70
    1
 43
0
 10
151.04
 20
-8.999999999999801
 42
0.9999999999999999
 10
151.04
 20
-0.999999999999801
 10
5
 20
-1
 42
0.9999999999999999
 10
4.999999999999999
 20
-9
  0
ENDSEC
  0
SECTION
  2
OBJECTS
  0
DICTIONARY
  5
C
330
0
100
AcDbDictionary
281
    1
  3
ACAD_GROUP
350
D
  0
DICTIONARY
  5
D
330
C
100
AcDbDictionary
281
    1
  0
ENDSEC
  0
EOF
