999
dxfrw 0.6.3
  0
SECTION
  2
HEADER
  9
$ACADVER
  1
AC1021
  9
$DWGCODEPAGE
  3
ANSI_1252
  9
$INSBASE
 10
0
 20
0
 30
0
  9
$EXTMIN
 10
-63
 20
-221.5400000000003
 30
0
  9
$EXTMAX
 10
194.0400000000002
 20
63.00000000000014
 30
0
  9
$LIMMIN
 10
0
 20
0
  9
$LIMMAX
 10
12
 20
9
  9
$ORTHOMODE
 70
    0
  9
$REGENMODE
 70
    1
  9
$FILLMODE
 70
    1
  9
$QTEXTMODE
 70
    0
  9
$MIRRTEXT
 70
    0
  9
$LTSCALE
 40
1
  9
$ATTMODE
 70
    1
  9
$TEXTSIZE
 40
1
  9
$TRACEWID
 40
0.05
  9
$TEXTSTYLE
  7
Standard
  9
$CLAYER
  8
0
  9
$CELTYPE
  6
ByLayer
  9
$CECOLOR
 62
  256
  9
$CELTSCALE
 40
1
  9
$DISPSILH
 70
    0
  9
$DIMSCALE
 40
1
  9
$DIMASZ
 40
2.5
  9
$DIMEXO
 40
0.625
  9
$DIMDLI
 40
5
  9
$DIMRND
 40
0
  9
$DIMDLE
 40
0
  9
$DIMEXE
 40
1.25
  9
$DIMTP
 40
0
  9
$DIMTM
 40
0
  9
$DIMTXT
 40
2.5
  9
$DIMCEN
 40
0.09
  9
$DIMTSZ
 40
0
  9
$DIMTOL
 70
    0
  9
$DIMLIM
 70
    0
  9
$DIMTIH
 70
    1
  9
$DIMTOH
 70
    1
  9
$DIMSE1
 70
    0
  9
$DIMSE2
 70
    0
  9
$DIMTAD
 70
    0
  9
$DIMZIN
 70
    8
  9
$DIMBLK
  1

  9
$DIMASO
 70
    1
  9
$DIMSHO
 70
    1
  9
$DIMPOST
  1

  9
$DIMAPOST
  1

  9
$DIMALT
 70
    0
  9
$DIMALTD
 70
    2
  9
$DIMALTF
 40
25.4
  9
$DIMLFAC
 40
1
  9
$DIMTOFL
 70
    0
  9
$DIMTVP
 40
0
  9
$DIMTIX
 70
    0
  9
$DIMSOXD
 70
    0
  9
$DIMSAH
 70
    0
  9
$DIMBLK1
  1

  9
$DIMBLK2
  1

  9
$DIMSTYLE
  2
Standard
  9
$DIMCLRD
 70
    0
  9
$DIMCLRE
 70
    0
  9
$DIMCLRT
 70
    0
  9
$DIMTFAC
 40
1
  9
$DIMGAP
 40
0.625
  9
$DIMJUST
 70
    0
  9
$DIMSD1
 70
    0
  9
$DIMSD2
 70
    0
  9
$DIMTOLJ
 70
    1
  9
$DIMTZIN
 70
    0
  9
$DIMALTZ
 70
    0
  9
$DIMALTTZ
 70
    0
  9
$DIMUPT
 70
    0
  9
$DIMDEC
 70
    4
  9
$DIMTDEC
 70
    4
  9
$DIMALTU
 70
    2
  9
$DIMALTTD
 70
    2
  9
$DIMTXSTY
  7
Standard
  9
$DIMAUNIT
 70
    0
  9
$DIMADEC
 70
    0
  9
$DIMALTRND
 40
0
  9
$DIMAZIN
 70
    2
  9
$DIMDSEP
 70
   46
  9
$DIMATFIT
 70
    3
  9
$DIMFRAC
 70
    0
  9
$DIMLDRBLK
  1

  9
$DIMLUNIT
 70
    2
  9
$DIMLWD
 70
   -2
  9
$DIMLWE
 70
   -2
  9
$DIMTMOVE
 70
    0
  9
$DIMFXL
 40
1
  9
$DIMFXLON
 70
    0
  9
$DIMJOGANG
 40
0.7853981633974483
  9
$DIMTFILL
 70
    0
  9
$DIMTFILLCLR
 70
    0
  9
$DIMARCSYM
 70
    0
  9
$DIMLTYPE
  6

  9
$DIMLTEX1
  6

  9
$DIMLTEX2
  6

  9
$LUNITS
 70
    2
  9
$LUPREC
 70
    4
  9
$SKETCHINC
 40
0.1
  9
$FILLETRAD
 40
0.5
  9
$AUNITS
 70
    0
  9
$AUPREC
 70
    0
  9
$MENU
  1
.
  9
$ELEVATION
 40
0
  9
$PELEVATION
 40
0
  9
$THICKNESS
 40
0
  9
$LIMCHECK
 70
    0
  9
$CHAMFERA
 40
0
  9
$CHAMFERB
 40
0
  9
$CHAMFERC
 40
0
  9
$CHAMFERD
 40
0
  9
$SKPOLY
 70
    0
  9
$USRTIMER
 70
    1
  9
$ANGBASE
 50
0
  9
$ANGDIR
 70
    0
  9
$PDMODE
 70
    0
  9
$PDSIZE
 40
0
  9
$PLINEWID
 40
0
  9
$SPLFRAME
 70
    0
  9
$SPLINETYPE
 70
    6
  9
$SPLINESEGS
 70
    8
  9
$HANDSEED
  5
20000
  9
$SURFTAB1
 70
    6
  9
$SURFTAB2
 70
    6
  9
$SURFTYPE
 70
    6
  9
$SURFU
 70
    6
  9
$SURFV
 70
    6
  9
$UCSBASE
  2

  9
$UCSNAME
  2

  9
$UCSORG
 10
0
 20
0
 30
0
  9
$UCSXDIR
 10
1
 20
0
 30
0
  9
$UCSYDIR
 10
0
 20
1
 30
0
  9
$UCSORTHOREF
  2

  9
$UCSORTHOVIEW
 70
    0
  9
$UCSORGTOP
 10
0
 20
0
 30
0
  9
$UCSORGBOTTOM
 10
0
 20
0
 30
0
  9
$UCSORGLEFT
 10
0
 20
0
 30
0
  9
$UCSORGRIGHT
 10
0
 20
0
 30
0
  9
$UCSORGFRONT
 10
0
 20
0
 30
0
  9
$UCSORGBACK
 10
0
 20
0
 30
0
  9
$PUCSBASE
  2

  9
$PUCSNAME
  2

  9
$PUCSORG
 10
0
 20
0
 30
0
  9
$PUCSXDIR
 10
1
 20
0
 30
0
  9
$PUCSYDIR
 10
0
 20
1
 30
0
  9
$PUCSORTHOREF
  2

  9
$PUCSORTHOVIEW
 70
    0
  9
$PUCSORGTOP
 10
0
 20
0
 30
0
  9
$PUCSORGBOTTOM
 10
0
 20
0
 30
0
  9
$PUCSORGLEFT
 10
0
 20
0
 30
0
  9
$PUCSORGRIGHT
 10
0
 20
0
 30
0
  9
$PUCSORGFRONT
 10
0
 20
0
 30
0
  9
$PUCSORGBACK
 10
0
 20
0
 30
0
  9
$USERI1
 70
    0
  9
$USERI2
 70
    0
  9
$USERI3
 70
    0
  9
$USERI4
 70
    0
  9
$USERI5
 70
    0
  9
$USERR1
 40
0
  9
$USERR2
 40
0
  9
$USERR3
 40
0
  9
$USERR4
 40
0
  9
$USERR5
 40
0
  9
$WORLDVIEW
 70
    1
  9
$SHADEDGE
 70
    3
  9
$SHADEDIF
 70
   70
  9
$TILEMODE
 70
    1
  9
$MAXACTVP
 70
   64
  9
$PINSBASE
 10
0
 20
0
 30
0
  9
$PLIMCHECK
 70
    0
  9
$PEXTMIN
 10
0
 20
0
 30
0
  9
$PEXTMAX
 10
0
 20
0
 30
0
  9
$GRIDMODE
 70
    0
  9
$SNAPSTYLE
 70
    0
  9
$PLIMMIN
 10
-20
 20
-7.5
  9
$PLIMMAX
 10
277
 20
202.5
  9
$UNITMODE
 70
    0
  9
$VISRETAIN
 70
    1
  9
$PLINEGEN
 70
    0
  9
$PSLTSCALE
 70
    1
  9
$TREEDEPTH
 70
 3020
  9
$CMLSTYLE
  2
Standard
  9
$CMLJUST
 70
    0
  9
$CMLSCALE
 40
1
  9
$PROXYGRAPHICS
 70
    1
  9
$MEASUREMENT
 70
    1
  9
$CELWEIGHT
370
   -1
  9
$ENDCAPS
280
    0
  9
$JOINSTYLE
280
    0
  9
$LWDISPLAY
290
    0
  9
$INSUNITS
 70
    4
  9
$HYPERLINKBASE
  1

  9
$STYLESHEET
  1

  9
$XEDIT
290
    1
  9
$CEPSNTYPE
380
    0
  9
$PSTYLEMODE
290
    1
  9
$EXTNAMES
290
    1
  9
$PSVPSCALE
 40
0
  9
$OLESTARTUP
290
    0
  9
$SORTENTS
280
  127
  9
$INDEXCTL
280
    0
  9
$HIDETEXT
280
    1
  9
$XCLIPFRAME
290
    0
  9
$HALOGAP
280
    0
  9
$OBSCOLOR
 70
  257
  9
$OBSLTYPE
280
    0
  9
$INTERSECTIONDISPLAY
280
    0
  9
$INTERSECTIONCOLOR
 70
  257
  9
$DIMASSOC
280
    2
  9
$PROJECTNAME
  1

  9
$CAMERADISPLAY
290
    0
  9
$LENSLENGTH
 40
50
  9
$CAMERAHEIGHT
 40
0
  9
$STEPSPERSEC
 40
2
  9
$STEPSIZE
 40
6
  9
$3DDWFPREC
 40
2
  9
$PSOLWIDTH
 40
0.25
  9
$PSOLHEIGHT
 40
4
  9
$LOFTANG1
 40
1.570796326794897
  9
$LOFTANG2
 40
1.570796326794897
  9
$LOFTMAG1
 40
0
  9
$LOFTMAG2
 40
0
  9
$LOFTPARAM
 70
    7
  9
$LOFTNORMALS
280
    1
  9
$LATITUDE
 40
37.795
  9
$LONGITUDE
 40
-122.394
  9
$NORTHDIRECTION
 40
0
  9
$TIMEZONE
 70
-8000
  9
$LIGHTGLYPHDISPLAY
280
    1
  9
$TILEMODELIGHTSYNCH
280
    1
  9
$SOLIDHIST
280
    0
  9
$SHOWHIST
280
    1
  9
$DWFFRAME
280
    2
  9
$DGNFRAME
280
    2
  9
$REALWORLDSCALE
290
    1
  9
$INTERFERECOLOR
 62
  256
  9
$CSHADOW
280
    0
  9
$SHADOWPLANELOCATION
 40
0
  0
ENDSEC
  0
SECTION
  2
CLASSES
  0
ENDSEC
  0
SECTION
  2
TABLES
  0
TABLE
  2
VPORT
  5
8
330
0
100
AcDbSymbolTable
 70
    1
  0
VPORT
  5
31
330
2
100
AcDbSymbolTableRecord
100
AcDbViewportTableRecord
  2
*ACTIVE
 70
    0
 10
0
 20
0
 11
1
 21
1
 12
167.2974262101537
 22
33.25792207792213
 13
0
 23
0
 14
10
 24
10
 15
10
 25
10
 16
0
 26
0
 36
1
 17
0
 27
0
 37
0
 40
291.2587721369544
 41
1.846597462514417
 42
50
 43
0
 44
0
 50
0
 51
0
 71
    0
 72
  100
 73
    1
 74
    3
 75
    0
 76
    0
 77
    0
 78
    0
281
    0
 65
    1
110
0
120
0
130
0
111
1
121
0
131
0
112
0
122
1
132
0
 79
    0
146
0
348
10020
 60
    7
 61
    5
292
1
282
    1
141
0
142
0
 63
  250
421
3358443
  0
ENDTAB
  0
TABLE
  2
LTYPE
  5
5
330
0
100
AcDbSymbolTable
 70
    4
  0
LTYPE
  5
14
330
5
100
AcDbSymbolTableRecord
100
AcDbLinetypeTableRecord
  2
ByBlock
 70
    0
  3

 72
   65
 73
    0
 40
0
  0
LTYPE
  5
15
330
5
100
AcDbSymbolTableRecord
100
AcDbLinetypeTableRecord
  2
ByLayer
 70
    0
  3

 72
   65
 73
    0
 40
0
  0
LTYPE
  5
16
330
5
100
AcDbSymbolTableRecord
100
AcDbLinetypeTableRecord
  2
Continuous
 70
    0
  3
Solid line
 72
   65
 73
    0
 40
0
  0
LTYPE
  5
32
330
5
100
AcDbSymbolTableRecord
100
AcDbLinetypeTableRecord
  2
DOT
 70
    0
  3
Dot . . . . . . . . . . . . . . . . . . . . . .
 72
   65
 73
    2
 40
6.35
 49
0
 74
    0
 49
-6.35
 74
    0
  0
LTYPE
  5
33
330
5
100
AcDbSymbolTableRecord
100
AcDbLinetypeTableRecord
  2
DOTTINY
 70
    0
  3
Dot (.15x) .....................................
 72
   65
 73
    2
 40
0.9525
 49
0
 74
    0
 49
-0.9525
 74
    0
  0
LTYPE
  5
34
330
5
100
AcDbSymbolTableRecord
100
AcDbLinetypeTableRecord
  2
DOT2
 70
    0
  3
Dot (.5x) .....................................
 72
   65
 73
    2
 40
3.175
 49
0
 74
    0
 49
-3.175
 74
    0
  0
LTYPE
  5
35
330
5
100
AcDbSymbolTableRecord
100
AcDbLinetypeTableRecord
  2
DOTX2
 70
    0
  3
Dot (2x) .  .  .  .  .  .  .  .  .  .  .  .  .
 72
   65
 73
    2
 40
12.7
 49
0
 74
    0
 49
-12.7
 74
    0
  0
LTYPE
  5
36
330
5
100
AcDbSymbolTableRecord
100
AcDbLinetypeTableRecord
  2
DASHED
 70
    0
  3
Dashed _ _ _ _ _ _ _ _ _ _ _ _ _ _ _ _ _
 72
   65
 73
    2
 40
19.05
 49
12.7
 74
    0
 49
-6.35
 74
    0
  0
LTYPE
  5
37
330
5
100
AcDbSymbolTableRecord
100
AcDbLinetypeTableRecord
  2
DASHEDTINY
 70
    0
  3
Dashed (.15x) _ _ _ _ _ _ _ _ _ _ _ _ _ _ _ _ _
 72
   65
 73
    2
 40
2.8575
 49
1.905
 74
    0
 49
-0.9525
 74
    0
  0
LTYPE
  5
38
330
5
100
AcDbSymbolTableRecord
100
AcDbLinetypeTableRecord
  2
DASHED2
 70
    0
  3
Dashed (.5x) _ _ _ _ _ _ _ _ _ _ _ _ _ _ _ _ _
 72
   65
 73
    2
 40
9.524999999999999
 49
6.35
 74
    0
 49
-3.175
 74
    0
  0
LTYPE
  5
39
330
5
100
AcDbSymbolTableRecord
100
AcDbLinetypeTableRecord
  2
DASHEDX2
 70
    0
  3
Dashed (2x) ____  ____  ____  ____  ____  ___
 72
   65
 73
    2
 40
38.09999999999999
 49
25.4
 74
    0
 49
-12.7
 74
    0
  0
LTYPE
  5
3A
330
5
100
AcDbSymbolTableRecord
100
AcDbLinetypeTableRecord
  2
DASHDOT
 70
    0
  3
Dash dot __ . __ . __ . __ . __ . __ . __ . __
 72
   65
 73
    4
 40
25.4
 49
12.7
 74
    0
 49
-6.35
 74
    0
 49
0
 74
    0
 49
-6.35
 74
    0
  0
LTYPE
  5
3B
330
5
100
AcDbSymbolTableRecord
100
AcDbLinetypeTableRecord
  2
DASHDOTTINY
 70
    0
  3
Dash dot (.15x) _._._._._._._._._._._._._._._.
 72
   65
 73
    4
 40
3.81
 49
1.905
 74
    0
 49
-0.9525
 74
    0
 49
0
 74
    0
 49
-0.9525
 74
    0
  0
LTYPE
  5
3C
330
5
100
AcDbSymbolTableRecord
100
AcDbLinetypeTableRecord
  2
DASHDOT2
 70
    0
  3
Dash dot (.5x) _._._._._._._._._._._._._._._.
 72
   65
 73
    4
 40
12.7
 49
6.35
 74
    0
 49
-3.175
 74
    0
 49
0
 74
    0
 49
-3.175
 74
    0
  0
LTYPE
  5
3D
330
5
100
AcDbSymbolTableRecord
100
AcDbLinetypeTableRecord
  2
DASHDOTX2
 70
    0
  3
Dash dot (2x) ____  .  ____  .  ____  .  ___
 72
   65
 73
    4
 40
50.8
 49
25.4
 74
    0
 49
-12.7
 74
    0
 49
0
 74
    0
 49
-12.7
 74
    0
  0
LTYPE
  5
3E
330
5
100
AcDbSymbolTableRecord
100
AcDbLinetypeTableRecord
  2
DIVIDE
 70
    0
  3
Divide ____ . . ____ . . ____ . . ____ . . ____
 72
   65
 73
    6
 40
31.75
 49
12.7
 74
    0
 49
-6.35
 74
    0
 49
0
 74
    0
 49
-6.35
 74
    0
 49
0
 74
    0
 49
-6.35
 74
    0
  0
LTYPE
  5
3F
330
5
100
AcDbSymbolTableRecord
100
AcDbLinetypeTableRecord
  2
DIVIDETINY
 70
    0
  3
Divide (.15x) __..__..__..__..__..__..__..__.._
 72
   65
 73
    6
 40
4.7625
 49
1.905
 74
    0
 49
-0.9525
 74
    0
 49
0
 74
    0
 49
-0.9525
 74
    0
 49
0
 74
    0
 49
-0.9525
 74
    0
  0
LTYPE
  5
40
330
5
100
AcDbSymbolTableRecord
100
AcDbLinetypeTableRecord
  2
DIVIDE2
 70
    0
  3
Divide (.5x) __..__..__..__..__..__..__..__.._
 72
   65
 73
    6
 40
15.875
 49
6.35
 74
    0
 49
-3.175
 74
    0
 49
0
 74
    0
 49
-3.175
 74
    0
 49
0
 74
    0
 49
-3.175
 74
    0
  0
LTYPE
  5
41
330
5
100
AcDbSymbolTableRecord
100
AcDbLinetypeTableRecord
  2
DIVIDEX2
 70
    0
  3
Divide (2x) ________  .  .  ________  .  .  _
 72
   65
 73
    6
 40
63.5
 49
25.4
 74
    0
 49
-12.7
 74
    0
 49
0
 74
    0
 49
-12.7
 74
    0
 49
0
 74
    0
 49
-12.7
 74
    0
  0
LTYPE
  5
42
330
5
100
AcDbSymbolTableRecord
100
AcDbLinetypeTableRecord
  2
BORDER
 70
    0
  3
Border __ __ . __ __ . __ __ . __ __ . __ __ .
 72
   65
 73
    6
 40
44.45
 49
12.7
 74
    0
 49
-6.35
 74
    0
 49
12.7
 74
    0
 49
-6.35
 74
    0
 49
0
 74
    0
 49
-6.35
 74
    0
  0
LTYPE
  5
43
330
5
100
AcDbSymbolTableRecord
100
AcDbLinetypeTableRecord
  2
BORDERTINY
 70
    0
  3
Border (.15x) __.__.__.__.__.__.__.__.__.__.__.
 72
   65
 73
    6
 40
6.6675
 49
1.905
 74
    0
 49
-0.9525
 74
    0
 49
1.905
 74
    0
 49
-0.9525
 74
    0
 49
0
 74
    0
 49
-0.9525
 74
    0
  0
LTYPE
  5
44
330
5
100
AcDbSymbolTableRecord
100
AcDbLinetypeTableRecord
  2
BORDER2
 70
    0
  3
Border (.5x) __.__.__.__.__.__.__.__.__.__.__.
 72
   65
 73
    6
 40
22.225
 49
6.35
 74
    0
 49
-3.175
 74
    0
 49
6.35
 74
    0
 49
-3.175
 74
    0
 49
0
 74
    0
 49
-3.175
 74
    0
  0
LTYPE
  5
45
330
5
100
AcDbSymbolTableRecord
100
AcDbLinetypeTableRecord
  2
BORDERX2
 70
    0
  3
Border (2x) ____  ____  .  ____  ____  .  ___
 72
   65
 73
    6
 40
88.89999999999999
 49
25.4
 74
    0
 49
-12.7
 74
    0
 49
25.4
 74
    0
 49
-12.7
 74
    0
 49
0
 74
    0
 49
-12.7
 74
    0
  0
LTYPE
  5
46
330
5
100
AcDbSymbolTableRecord
100
AcDbLinetypeTableRecord
  2
CENTER
 70
    0
  3
Center ____ _ ____ _ ____ _ ____ _ ____ _ ____
 72
   65
 73
    4
 40
50.8
 49
31.75
 74
    0
 49
-6.35
 74
    0
 49
6.35
 74
    0
 49
-6.35
 74
    0
  0
LTYPE
  5
47
330
5
100
AcDbSymbolTableRecord
100
AcDbLinetypeTableRecord
  2
CENTERTINY
 70
    0
  3
Center (.15x) ___ _ ___ _ ___ _ ___ _ ___ _ ___
 72
   65
 73
    4
 40
7.62
 49
4.7625
 74
    0
 49
-0.9525
 74
    0
 49
0.9525
 74
    0
 49
-0.9525
 74
    0
  0
LTYPE
  5
48
330
5
100
AcDbSymbolTableRecord
100
AcDbLinetypeTableRecord
  2
CENTER2
 70
    0
  3
Center (.5x) ___ _ ___ _ ___ _ ___ _ ___ _ ___
 72
   65
 73
    4
 40
28.575
 49
19.05
 74
    0
 49
-3.175
 74
    0
 49
3.175
 74
    0
 49
-3.175
 74
    0
  0
LTYPE
  5
49
330
5
100
AcDbSymbolTableRecord
100
AcDbLinetypeTableRecord
  2
CENTERX2
 70
    0
  3
Center (2x) ________  __  ________  __  _____
 72
   65
 73
    4
 40
101.6
 49
63.5
 74
    0
 49
-12.7
 74
    0
 49
12.7
 74
    0
 49
-12.7
 74
    0
  0
ENDTAB
  0
TABLE
  2
LAYER
  5
2
330
0
100
AcDbSymbolTable
 70
    1
  0
LAYER
  5
10
330
2
100
AcDbSymbolTableRecord
100
AcDbLayerTableRecord
  2
0
 70
    0
 62
    7
  6
CONTINUOUS
370
   25
390
F
  0
LAYER
  5
4A
330
2
100
AcDbSymbolTableRecord
100
AcDbLayerTableRecord
  2
Defpoints
 70
    0
 62
    7
  6
CONTINUOUS
290
0
370
   -3
390
F
  0
LAYER
  5
4B
330
2
100
AcDbSymbolTableRecord
100
AcDbLayerTableRecord
  2
arms
 70
    0
 62
    7
  6
CONTINUOUS
370
   25
390
F
  0
LAYER
  5
4C
330
2
100
AcDbSymbolTableRecord
100
AcDbLayerTableRecord
  2
bottom plate
 70
    0
 62
    4
  6
CONTINUOUS
370
   25
390
F
  0
LAYER
  5
4D
330
2
100
AcDbSymbolTableRecord
100
AcDbLayerTableRecord
  2
meassures
 70
    0
 62
   30
  6
CONTINUOUS
370
   25
390
F
  0
LAYER
  5
4E
330
2
100
AcDbSymbolTableRecord
100
AcDbLayerTableRecord
  2
motors
 70
    0
 62
    5
  6
CONTINUOUS
370
   25
390
F
  0
LAYER
  5
4F
330
2
100
AcDbSymbolTableRecord
100
AcDbLayerTableRecord
  2
props
 70
    0
 62
    2
  6
CONTINUOUS
370
   25
390
F
  0
LAYER
  5
50
330
2
100
AcDbSymbolTableRecord
100
AcDbLayerTableRecord
  2
references
 70
    1
 62
    1
  6
DASHED
370
   13
390
F
  0
LAYER
  5
51
330
2
100
AcDbSymbolTableRecord
100
AcDbLayerTableRecord
  2
reinforcement
 70
    0
 62
    6
  6
CONTINUOUS
370
   25
390
F
  0
LAYER
  5
52
330
2
100
AcDbSymbolTableRecord
100
AcDbLayerTableRecord
  2
top plate
 70
    0
 62
    3
  6
CONTINUOUS
370
   25
390
F
  0
ENDTAB
  0
TABLE
  2
STYLE
  5
3
330
0
100
AcDbSymbolTable
 70
    3
  0
STYLE
  5
53
330
2
100
AcDbSymbolTableRecord
100
AcDbTextStyleTableRecord
  2
Standard
 70
    0
 40
0
 41
1
 50
0
 71
    0
 42
1
  3
txt
  4

  0
ENDTAB
  0
TABLE
  2
VIEW
  5
6
330
0
100
AcDbSymbolTable
 70
    0
  0
ENDTAB
  0
TABLE
  2
UCS
  5
7
330
0
100
AcDbSymbolTable
 70
    0
  0
ENDTAB
  0
TABLE
  2
APPID
  5
9
330
0
100
AcDbSymbolTable
 70
    1
  0
APPID
  5
12
330
9
100
AcDbSymbolTableRecord
100
AcDbRegAppTableRecord
  2
ACAD
 70
    0
  0
APPID
  5
54
330
9
100
AcDbSymbolTableRecord
100
AcDbRegAppTableRecord
  2
LibreCad
 70
    0
  0
ENDTAB
  0
TABLE
  2
DIMSTYLE
  5
A
330
0
100
AcDbSymbolTable
 70
    1
100
AcDbDimStyleTable
 71
    1
  0
DIMSTYLE
105
55
330
A
100
AcDbSymbolTableRecord
100
AcDbDimStyleTableRecord
  2
Standard
 70
    0
 40
1
 41
2.5
 42
0.625
 43
0.38
 44
1.25
 45
0
 46
0
 47
0
 48
0
 49
1
140
2.5
141
0.09
142
0
143
25.4
144
1
145
0
146
1
147
0.625
148
0
 71
    0
 72
    0
 73
    1
 74
    1
 75
    0
 76
    0
 77
    0
 78
    8
 79
    2
170
    0
171
    2
172
    0
173
    0
174
    0
175
    0
176
    0
177
    0
178
    0
179
    0
271
    4
272
    4
273
    2
274
    2
275
    0
276
    0
277
    2
278
   46
279
    0
280
    0
281
    0
282
    0
283
    1
284
    0
285
    0
286
    0
288
    0
289
    3
340
Standard
341

371
   -2
372
   -2
  0
ENDTAB
  0
TABLE
  2
BLOCK_RECORD
  5
1
330
0
100
AcDbSymbolTable
 70
    2
  0
BLOCK_RECORD
  5
1F
330
1
100
AcDbSymbolTableRecord
100
AcDbBlockTableRecord
  2
*Model_Space
 70
    0
280
    1
281
    0
  0
BLOCK_RECORD
  5
1E
330
1
100
AcDbSymbolTableRecord
100
AcDbBlockTableRecord
  2
*Paper_Space
 70
    0
280
    1
281
    0
  0
BLOCK_RECORD
  5
56
330
1
100
AcDbSymbolTableRecord
100
AcDbBlockTableRecord
  2
*D4
 70
    0
280
    1
281
    0
  0
BLOCK_RECORD
  5
59
330
1
100
AcDbSymbolTableRecord
100
AcDbBlockTableRecord
  2
*D3
 70
    0
280
    1
281
    0
  0
BLOCK_RECORD
  5
5C
330
1
100
AcDbSymbolTableRecord
100
AcDbBlockTableRecord
  2
*D2
 70
    0
280
    1
281
    0
  0
BLOCK_RECORD
  5
5F
330
1
100
AcDbSymbolTableRecord
100
AcDbBlockTableRecord
  2
*D1
 70
    0
280
    1
281
    0
  0
ENDTAB
  0
ENDSEC
  0
SECTION
  2
BLOCKS
  0
BLOCK
  5
20
330
1F
100
AcDbEntity
  8
0
100
AcDbBlockBegin
  2
*Model_Space
 70
    0
 10
0
 20
0
 30
0
  3
*Model_Space
  1

  0
ENDBLK
  5
21
330
1F
100
AcDbEntity
  8
0
100
AcDbBlockEnd
  0
BLOCK
  5
1C
330
1B
100
AcDbEntity
  8
0
100
AcDbBlockBegin
  2
*Paper_Space
 70
    0
 10
0
 20
0
 30
0
  3
*Paper_Space
  1

  0
ENDBLK
  5
1D
330
1F
100
AcDbEntity
  8
0
100
AcDbBlockEnd
  0
BLOCK
  5
57
330
56
100
AcDbEntity
  8
0
100
AcDbBlockBegin
  2
*D4
 70
    1
 10
0
 20
0
  3
*D4
  1

  0
LINE
  5
62
100
AcDbEntity
  8
meassures
  6
ByBlock
 62
    0
370
   -2
100
AcDbLine
 10
3.826894855694929e-017
 20
0.625
 11
6.276107563339683e-016
 21
10.25
  0
LINE
  5
63
100
AcDbEntity
  8
meassures
  6
ByBlock
 62
    0
370
   -2
100
AcDbLine
 10
-63
 20
0.625
 11
-63
 21
10.25
  0
LINE
  5
64
100
AcDbEntity
  8
meassures
  6
ByBlock
 62
    0
370
   -2
100
AcDbLine
 10
5.510728592200698e-016
 20
9
 11
-29.34722222222207
 21
9
  0
SOLID
  5
65
100
AcDbEntity
  8
meassures
  6
ByBlock
 62
    0
370
   -2
100
AcDbTrace
 10
5.510728592200698e-016
 20
9
 30
0
 11
-2.5
 21
8.58371534222716
 31
0
 12
-2.5
 22
9.41628465777284
 32
0
 13
-2.5
 23
9.41628465777284
 33
0
  0
SOLID
  5
66
100
AcDbEntity
  8
meassures
  6
ByBlock
 62
    0
370
   -2
100
AcDbTrace
 10
-63
 20
9
 30
0
 11
-60.5
 21
9.41628465777284
 31
0
 12
-60.5
 22
8.583715342227158
 32
0
 13
-60.5
 23
8.583715342227158
 33
0
  0
LINE
  5
67
100
AcDbEntity
  8
meassures
  6
ByBlock
 62
    0
370
   -2
100
AcDbLine
 10
-33.65277777777793
 20
9
 11
-63
 21
9
  0
MTEXT
  5
68
100
AcDbEntity
  8
meassures
  6
CONTINUOUS
 62
    0
370
   -2
100
AcDbMText
 10
-31.5
 20
10.875
 30
0
 40
2.5
 41
3.055555555555866
 71
    5
 72
    1
  1
63
  7
Standard
210
0
220
0
230
1
 50
0
 73
    2
 44
1
  0
ENDBLK
  5
58
330
56
100
AcDbEntity
  8
0
100
AcDbBlockEnd
  0
BLOCK
  5
5A
330
59
100
AcDbEntity
  8
0
100
AcDbBlockBegin
  2
*D3
 70
    1
 10
0
 20
0
  3
*D3
  1

  0
LINE
  5
69
100
AcDbEntity
  8
meassures
  6
ByBlock
 62
    0
370
   -2
100
AcDbLine
 10
0.625
 20
8e-016
 11
1.25
 21
8e-016
  0
LINE
  5
6A
100
AcDbEntity
  8
meassures
  6
ByBlock
 62
    0
370
   -2
100
AcDbLine
 10
0.625
 20
0
 11
1.25
 21
0
  0
LINE
  5
6B
100
AcDbEntity
  8
meassures
  6
ByBlock
 62
    0
370
   -2
100
AcDbLine
 10
3.061515884555943e-016
 20
5.000000000000001
 11
1.148068456708479e-016
 21
1.875000000000001
  0
SOLID
  5
6C
100
AcDbEntity
  8
meassures
  6
ByBlock
 62
    0
370
   -2
100
AcDbTrace
 10
0
 20
8e-016
 30
0
 11
-0.41628465777284
 21
2.500000000000001
 31
0
 12
0.4162846577728409
 22
2.500000000000001
 32
0
 13
0.4162846577728409
 23
2.500000000000001
 33
0
  0
SOLID
  5
6D
100
AcDbEntity
  8
meassures
  6
ByBlock
 62
    0
370
   -2
100
AcDbTrace
 10
0
 20
0
 30
0
 11
0.4162846577728403
 21
-2.5
 31
0
 12
-0.4162846577728406
 22
-2.5
 32
0
 13
-0.4162846577728406
 23
-2.5
 33
0
  0
LINE
  5
6E
100
AcDbEntity
  8
meassures
  6
ByBlock
 62
    0
370
   -2
100
AcDbLine
 10
-1.148068456708478e-016
 20
-1.875
 11
-3.061515884555943e-016
 21
-5
  0
MTEXT
  5
6F
100
AcDbEntity
  8
meassures
  6
CONTINUOUS
 62
    0
370
   -2
100
AcDbMText
 10
1.180555555555556
 20
4.440892098500626e-016
 30
0
 40
2.5
 41
1.111111111111111
 71
    5
 72
    1
  1
0
  7
Standard
210
0
220
0
230
1
 50
0
 73
    2
 44
1
  0
ENDBLK
  5
5B
330
59
100
AcDbEntity
  8
0
100
AcDbBlockEnd
  0
BLOCK
  5
5D
330
5C
100
AcDbEntity
  8
0
100
AcDbBlockBegin
  2
*D2
 70
    1
 10
0
 20
0
  3
*D2
  1

  0
LINE
  5
70
100
AcDbEntity
  8
meassures
  6
ByBlock
 62
    0
370
   -2
100
AcDbLine
 10
44.34194173824158
 20
-43.45805826175842
 11
54.28388347648316
 21
-33.51611652351681
  0
LINE
  5
71
100
AcDbEntity
  8
meassures
  6
ByBlock
 62
    0
370
   -2
100
AcDbLine
 10
50.71194173824159
 20
-49.82805826175841
 11
60.65388347648317
 21
-39.8861165235168
  0
LINE
  5
72
100
AcDbEntity
  8
meassures
  6
ByBlock
 62
    0
370
   -2
100
AcDbLine
 10
53.39999999999998
 20
-34.39999999999999
 11
59.76999999999999
 21
-40.76999999999998
  0
SOLID
  5
73
100
AcDbEntity
  8
meassures
  6
ByBlock
 62
    0
370
   -2
100
AcDbTrace
 10
53.39999999999998
 20
-34.39999999999999
 30
0
 11
55.46212465738144
 21
-35.87340924855126
 31
0
 12
54.87340924855125
 22
-36.46212465738145
 32
0
 13
54.87340924855125
 23
-36.46212465738145
 33
0
  0
SOLID
  5
74
100
AcDbEntity
  8
meassures
  6
ByBlock
 62
    0
370
   -2
100
AcDbTrace
 10
59.76999999999999
 20
-40.76999999999998
 30
0
 11
57.70787534261852
 21
-39.29659075144871
 31
0
 12
58.29659075144871
 22
-38.70787534261852
 32
0
 13
58.29659075144871
 23
-38.70787534261852
 33
0
  0
MTEXT
  5
75
100
AcDbEntity
  8
meassures
  6
CONTINUOUS
 62
    0
370
   -2
100
AcDbMText
 10
74.96544467189221
 20
-43.32341293517305
 30
0
 40
2.5
 41
9.722222222222532
 71
    5
 72
    1
  1
9.0085
  7
Standard
210
0
220
0
230
1
 50
0
 73
    2
 44
1
  0
ENDBLK
  5
5E
330
5C
100
AcDbEntity
  8
0
100
AcDbBlockEnd
  0
BLOCK
  5
60
330
5F
100
AcDbEntity
  8
0
100
AcDbBlockBegin
  2
*D1
 70
    1
 10
0
 20
0
  3
*D1
  1

  0
LINE
  5
76
100
AcDbEntity
  8
meassures
  6
ByBlock
 62
    0
370
   -2
100
AcDbLine
 10
0.441941738241593
 20
0.4419417382415914
 11
10.38388347648318
 21
10.38388347648318
  0
LINE
  5
77
100
AcDbEntity
  8
meassures
  6
ByBlock
 62
    0
370
   -2
100
AcDbLine
 10
44.34194173824159
 20
-43.45805826175841
 11
54.28388347648318
 21
-33.51611652351681
  0
LINE
  5
78
100
AcDbEntity
  8
meassures
  6
ByBlock
 62
    0
370
   -2
100
AcDbLine
 10
9.5
 20
9.5
 11
28.24917478527522
 21
-9.249174785275221
  0
SOLID
  5
79
100
AcDbEntity
  8
meassures
  6
ByBlock
 62
    0
370
   -2
100
AcDbTrace
 10
9.5
 20
9.5
 30
0
 11
11.56212465738147
 21
8.026590751448728
 31
0
 12
10.97340924855127
 22
7.437875342618534
 32
0
 13
10.97340924855127
 23
7.437875342618534
 33
0
  0
SOLID
  5
7A
100
AcDbEntity
  8
meassures
  6
ByBlock
 62
    0
370
   -2
100
AcDbTrace
 10
53.4
 20
-34.4
 30
0
 11
51.33787534261853
 21
-32.92659075144873
 31
0
 12
51.92659075144873
 22
-32.33787534261853
 32
0
 13
51.92659075144873
 23
-32.33787534261853
 33
0
  0
LINE
  5
7B
100
AcDbEntity
  8
meassures
  6
ByBlock
 62
    0
370
   -2
100
AcDbLine
 10
31.99917478527522
 20
-12.99917478527522
 11
53.4
 21
-34.4
  0
MTEXT
  5
7C
100
AcDbEntity
  8
meassures
  6
CONTINUOUS
 62
    0
370
   -2
100
AcDbMText
 10
32.77582521472478
 20
-11.12417478527522
 30
0
 40
2.5
 41
10.00000000000016
 71
    5
 72
    1
  1
62.084
  7
Standard
210
0
220
0
230
1
 50
0
 73
    2
 44
1
  0
ENDBLK
  5
61
330
5F
100
AcDbEntity
  8
0
100
AcDbBlockEnd
  0
ENDSEC
  0
SECTION
  2
ENTITIES
  0
CIRCLE
  5
7D
100
AcDbEntity
  8
props
  6
ByLayer
 62
  256
370
   -1
100
AcDbCircle
 10
0
 20
0
 40
63
  0
CIRCLE
  5
7E
100
AcDbEntity
  8
props
  6
ByLayer
 62
  256
370
   -1
100
AcDbCircle
 10
131.04
 20
1.421e-013
 40
63
  0
CIRCLE
  5
7F
100
AcDbEntity
  8
props
  6
ByLayer
 62
  256
370
   -1
100
AcDbCircle
 10
131.0400000000002
 20
-158.5400000000002
 40
63
  0
CIRCLE
  5
80
100
AcDbEntity
  8
props
  6
ByLayer
 62
  256
370
   -1
100
AcDbCircle
 10
0
 20
-158.5400000000003
 40
63
  0
CIRCLE
  5
81
100
AcDbEntity
  8
arms
  6
ByLayer
 62
  256
370
   -1
100
AcDbCircle
 10
0
 20
8e-016
 40
2.5
  0
LINE
  5
82
100
AcDbEntity
  8
references
  6
ByLayer
 62
  256
370
   -1
100
AcDbLine
 10
-4.1e-015
 20
-20
 11
8e-016
 21
20
  0
LINE
  5
83
100
AcDbEntity
  8
references
  6
ByLayer
 62
  256
370
   -1
100
AcDbLine
 10
-20
 20
2.8e-015
 11
20
 21
-4.5e-015
  0
LINE
  5
84
100
AcDbEntity
  8
references
  6
ByLayer
 62
  256
370
   -1
100
AcDbLine
 10
-20
 20
2.8e-015
 11
-13
 21
2e-015
  0
LINE
  5
85
100
AcDbEntity
  8
references
  6
ByLayer
 62
  256
370
   -1
100
AcDbLine
 10
13
 20
-2.8e-015
 11
20
 21
-4.5e-015
  0
LINE
  5
86
100
AcDbEntity
  8
references
  6
ByLayer
 62
  256
370
   -1
100
AcDbLine
 10
4e-016
 20
13
 11
8e-016
 21
20
  0
LINE
  5
87
100
AcDbEntity
  8
references
  6
ByLayer
 62
  256
370
   -1
100
AcDbLine
 10
-4.1e-015
 20
-20
 11
-2.8e-015
 21
-13
  0
CIRCLE
  5
88
100
AcDbEntity
  8
references
  6
ByLayer
 62
  256
370
   -1
100
AcDbCircle
 10
-3.4e-015
 20
-16.5
 40
3.5
  0
CIRCLE
  5
89
100
AcDbEntity
  8
references
  6
ByLayer
 62
  256
370
   -1
100
AcDbCircle
 10
16.5
 20
-3.6e-015
 40
3.5
  0
CIRCLE
  5
8A
100
AcDbEntity
  8
references
  6
ByLayer
 62
  256
370
   -1
100
AcDbCircle
 10
6e-016
 20
16.5
 40
3.5
  0
CIRCLE
  5
8B
100
AcDbEntity
  8
references
  6
ByLayer
 62
  256
370
   -1
100
AcDbCircle
 10
-16.5
 20
2.4e-015
 40
3.5
  0
LINE
  5
8C
100
AcDbEntity
  8
references
  6
ByLayer
 62
  256
370
   -1
100
AcDbLine
 10
41.0715728752538
 20
-46.7284271247462
 11
46.72842712474618
 21
-41.07157287525383
  0
LINE
  5
8D
100
AcDbEntity
  8
references
  6
ByLayer
 62
  256
370
   -1
100
AcDbLine
 10
84.31157287525409
 20
-117.4684271247464
 11
89.96842712474646
 21
-111.811572875254
  0
LINE
  5
8E
100
AcDbEntity
  8
references
  6
ByLayer
 62
  256
370
   -1
100
AcDbLine
 10
77.77186724776891
 20
-47.27186724776895
 11
83.76813275223083
 21
-53.26813275223093
  0
LINE
  5
8F
100
AcDbEntity
  8
references
  6
ByLayer
 62
  256
370
   -1
100
AcDbLine
 10
41.07157287525384
 20
-111.8115728752541
 11
46.72842712474619
 21
-117.4684271247465
  0
LINE
  5
90
100
AcDbEntity
  8
references
  6
ByLayer
 62
  256
370
   -1
100
AcDbLine
 10
84.3115728752538
 20
-41.07157287525364
 11
89.96842712474617
 21
-46.72842712474605
  0
LINE
  5
91
100
AcDbEntity
  8
references
  6
ByLayer
 62
  256
370
   -1
100
AcDbLine
 10
83.76813275223117
 20
-105.2718672477691
 11
77.77186724776919
 21
-111.268132752231
  0
LINE
  5
92
100
AcDbEntity
  8
references
  6
ByLayer
 62
  256
370
   -1
100
AcDbLine
 10
53.26813275223108
 20
-47.27186724776919
 11
47.2718672477691
 21
-53.26813275223109
  0
LINE
  5
93
100
AcDbEntity
  8
references
  6
ByLayer
 62
  256
370
   -1
100
AcDbLine
 10
53.26813275223111
 20
-111.2681327522311
 11
47.27186724776917
 21
-105.2718672477692
  0
CIRCLE
  5
94
100
AcDbEntity
  8
arms
  6
ByLayer
 62
  256
370
   -1
100
AcDbCircle
 10
43.9
 20
-43.9
 40
1.5
  0
CIRCLE
  5
95
100
AcDbEntity
  8
arms
  6
ByLayer
 62
  256
370
   -1
100
AcDbCircle
 10
87.13999999999999
 20
-43.89999999999985
 40
1.5
  0
CIRCLE
  5
96
100
AcDbEntity
  8
arms
  6
ByLayer
 62
  256
370
   -1
100
AcDbCircle
 10
87.14000000000027
 20
-114.6400000000002
 40
1.5
  0
CIRCLE
  5
97
100
AcDbEntity
  8
arms
  6
ByLayer
 62
  256
370
   -1
100
AcDbCircle
 10
43.90000000000001
 20
-114.6400000000003
 40
1.5
  0
CIRCLE
  5
98
100
AcDbEntity
  8
arms
  6
ByLayer
 62
  256
370
   -1
100
AcDbCircle
 10
50.27
 20
-50.27
 40
1.5
  0
CIRCLE
  5
99
100
AcDbEntity
  8
arms
  6
ByLayer
 62
  256
370
   -1
100
AcDbCircle
 10
80.76999999999987
 20
-50.27000000000024
 40
1.5
  0
CIRCLE
  5
9A
100
AcDbEntity
  8
arms
  6
ByLayer
 62
  256
370
   -1
100
AcDbCircle
 10
80.77000000000004
 20
-108.2700000000001
 40
1.5
  0
CIRCLE
  5
9B
100
AcDbEntity
  8
arms
  6
ByLayer
 62
  256
370
   -1
100
AcDbCircle
 10
50.27000000000012
 20
-108.27
 40
1.5
  0
CIRCLE
  5
9C
100
AcDbEntity
  8
references
  6
ByLayer
 62
  256
370
   -1
100
AcDbCircle
 10
11
 20
-11
 40
4
  0
LWPOLYLINE
  5
9D
100
AcDbEntity
  8
arms
  6
ByLayer
 62
  256
370
   -1
100
AcDbPolyline
 90
  112
 70
    0
 43
0
 10
77.77186724776891
 20
-47.27186724776925
 42
0.9999999999999999
 10
83.76813275223094
 20
-53.26813275223081
 10
118.879902315947
 20
-17.81690518759115
 42
-0.002469073486227977
 10
120.8523931987497
 20
-16.07603410791922
 42
-0.009302521859320925
 10
121.3867063777695
 20
-15.62638866618734
 42
-0.02196502045481849
 10
122.2127351207096
 20
-15.0151737769094
 42
-0.03552580630367539
 10
122.7638565153572
 20
-14.6980919139015
 42
-0.04711356849708707
 10
123.4171750926127
 20
-14.45448298642184
 42
-0.03406443306093968
 10
124.3623233843074
 20
-14.26815058861322
 42
-0.01721085733199648
 10
125.4565996629818
 20
-14.16704961345569
 42
-0.008429078381123601
 10
127.6980794424527
 20
-14.07542723364878
 42
-0.003016982403266567
 10
129.3692133859881
 20
-14.04540810340747
 42
0.007621917431987823
 10
131.04
 20
-13.99999999999986
 42
0.03542202564779837
 10
131.8428379111592
 20
-13.94305225637239
 42
0.04059047131016279
 10
132.5281229702087
 20
-13.78781819843478
 42
0.04680759658544247
 10
133.2170252256449
 20
-13.49862461819935
 42
0.0461081599330285
 10
133.8501086643287
 20
-13.08099531230835
 42
0.03707411117429948
 10
134.3482364416683
 20
-12.61748812406679
 42
0.03052775412479664
 10
134.8715894085275
 20
-11.9784919927584
 42
0.01799753342247483
 10
135.2157080283083
 20
-11.4636573403025
 42
0.01254386197620288
 10
135.6633552337664
 20
-10.69635701478611
 42
0.005245906199706715
 10
136.0198533070821
 20
-10.03207688945608
 42
-0.003222448022922604
 10
136.3736602315767
 20
-9.366359515966323
 42
-0.009442148029686083
 10
136.8131279533584
 20
-8.587714199556245
 42
-0.01376165442828479
 10
137.1391465362951
 20
-8.067980489679464
 42
-0.05437359597099351
 10
138.2171939363458
 20
-6.778683349553887
 42
-0.06905942052444854
 10
139.29
 20
-5.999999999999834
 42
-0.03560223366655942
 10
139.998053690347
 20
-5.684835715113682
 42
-0.02666406134681784
 10
140.9878418330365
 20
-5.384836737160979
 42
-0.01427638450931398
 10
141.7160245612752
 20
-5.227781767687478
 42
-0.009966395842049331
 10
142.7686788730053
 20
-5.053642732032358
 42
-0.006581633632232325
 10
144.5654329836961
 20
-4.817189077675941
 42
0.01737294734531893
 10
146.3566666522786
 20
-4.542020748322548
 42
0.0170898668602944
 10
147.3637815270189
 20
-4.315385807275262
 42
0.02267612413661495
 10
148.1069922253664
 20
-4.084777138820757
 42
0.03814917030612213
 10
149.0246824150131
 20
-3.672236417892711
 42
0.04792702951016521
 10
149.6887071763961
 20
-3.223279077786558
 42
0.06329190108827089
 10
150.3101530591105
 20
-2.561642516597438
 42
0.06408490763643865
 10
150.7397401325848
 20
-1.774680675885901
 42
0.05106341449687466
 10
150.9569448900147
 20
-0.9887680505123736
 42
0.04192546486047823
 10
151.0399999999999
 20
1.397832911540591e-013
 42
0.06104671754662109
 10
150.905441128361
 20
1.097990328126751
 42
0.07455632703109927
 10
150.5581702235264
 20
1.936323314589344
 42
0.07648536367674927
 10
149.9748814660985
 20
2.636990445119666
 42
0.06329878311776209
 10
149.0657818985754
 20
3.255557186676397
 42
0.03583939647129558
 10
148.2841215971054
 20
3.585471070081949
 42
0.02596976710090868
 10
147.1581887855356
 20
3.90413470573386
 42
0.01299003508199893
 10
146.3669204956913
 20
4.062805352717653
 42
0.00862805179066487
 10
145.1665214195344
 20
4.249963403738676
 42
0.003278662611940176
 10
144.1639080310279
 20
4.381914338965032
 42
-0.00264999440944496
 10
143.1611295298129
 20
4.51260455903045
 42
-0.007311395498790008
 10
141.9665052189006
 20
4.692568070242935
 42
-0.010848458226863
 10
141.1662632497354
 20
4.843020038326268
 42
-0.02018048864805533
 10
140.05304894501
 20
5.124769998625078
 42
-0.02656097475017284
 10
139.2306766191331
 20
5.416928018927032
 42
-0.04384914262435963
 10
138.2449752210615
 20
5.932737382430699
 42
-0.05396457957964818
 10
137.54
 20
6.500000000000147
 42
-0.05400397903336123
 10
136.9723586459271
 20
7.205559395525508
 42
-0.04387088825564783
 10
136.4562327633509
 20
8.192347342131104
 42
-0.02655415011940777
 10
136.1641208699288
 20
9.015190554234861
 42
-0.02017095976131521
 10
135.8823921030388
 20
10.12924669305954
 42
-0.01083365389662651
 10
135.7320662276628
 20
10.92947445119806
 42
-0.007296685230386085
 10
135.5521017266126
 20
12.12483524562091
 42
-0.002634321898071177
 10
135.4214027231301
 20
13.1279095632212
 42
0.0032990590604105
 10
135.2893702857789
 20
14.13080923498674
 42
0.008651357859460196
 10
135.1021282654588
 20
15.33071925052769
 42
0.01301775621093699
 10
134.9432453045565
 20
16.1220922494479
 42
0.02600783414147691
 10
134.6243057271451
 20
17.24743699848369
 42
0.0358862319763789
 10
134.2940604484514
 20
18.02871863306137
 42
0.06333768836521725
 10
133.6752663941173
 20
18.93677595269581
 42
0.07649178165142469
 10
132.97423452069
 20
19.51942559006097
 42
0.07444333873741661
 10
132.1366839112167
 20
19.86580056937405
 42
0.06095684430429488
 10
131.04
 20
20.00000000000015
 42
0.04197083367916672
 10
130.0503096118026
 20
19.91677713733941
 42
0.05112507695056748
 10
129.2638206429282
 20
19.69915558198958
 42
0.0641161315299925
 10
128.4768904931528
 20
19.26908583413332
 42
0.06330209703148698
 10
127.8152453893348
 20
18.64691938064222
 42
0.04790051992889886
 10
127.3665630857603
 20
17.98252952721471
 42
0.0381200045060766
 10
126.9542515876603
 20
17.06429822942446
 42
0.02264740252214949
 10
126.7238756784136
 20
16.32101718568645
 42
0.01706650122773069
 10
126.4974281423431
 20
15.3137554016102
 42
0.01733679560131349
 10
126.2225012788756
 20
13.5230276365311
 42
-0.006598924273994762
 10
125.9860861700955
 20
11.72680977523985
 42
-0.009972656129826485
 10
125.8119730992059
 20
10.67473466377532
 42
-0.01428118308557966
 10
125.6548938966647
 20
9.946745975906653
 42
-0.02665660218937372
 10
125.35502525748
 20
8.95767799262649
 42
-0.0355855828441831
 10
125.04
 20
8.250000000000135
 42
-0.06908943693836871
 10
124.2609341462701
 20
7.176801841799252
 42
-0.0543837263461497
 10
122.9706428211696
 20
6.098229387234673
 42
-0.01374905866893681
 10
122.4509245153958
 20
5.772318018609688
 42
-0.009428415101374035
 10
121.6719115458032
 20
5.33272707919172
 42
-0.003206662088014411
 10
121.0060880520697
 20
4.978883416423269
 42
0.005265631795664391
 10
120.3417272794335
 20
4.622300990789061
 42
0.01256685625933621
 10
119.5745871531771
 20
4.174610039660762
 42
0.0180235071550941
 10
119.0596989397976
 20
3.830283262755731
 42
0.03055155996520997
 10
118.4210374074553
 20
3.306851216309886
 42
0.0370944323300842
 10
117.9577487596562
 20
2.808539805969815
 42
0.04609266453228154
 10
117.5406528450174
 20
2.175674913305688
 42
0.04678153048937701
 10
117.2518153135649
 20
1.486953782365292
 42
0.0405499022783754
 10
117.0968469977537
 20
0.80216593637751
 42
0.03538906403475717
 10
117.04
 20
6.52811138479592e-014
 42
0.007621937973702827
 10
116.9945916565849
 20
-1.670797972460287
 42
-0.003017053740551667
 10
116.9645722211761
 20
-3.341943273121905
 42
-0.008429084894085294
 10
116.8729501030757
 20
-5.583404774276022
 42
-0.0172108000063891
 10
116.7718494113866
 20
-6.67767661569251
 42
-0.03407461098860558
 10
116.5854619865503
 20
-7.623002741373964
 42
-0.0471250876932883
 10
116.3417513324646
 20
-8.276467071028774
 42
-0.03551695086143043
 10
116.0246422708753
 20
-8.827547831360256
 42
-0.02195766892766108
 10
115.4133655779843
 20
-9.653596925793002
 42
-0.009298144303236907
 10
114.963755568585
 20
-10.18785377695997
 42
-0.002467983117996695
 10
113.2230948124088
 20
-12.16009768405274
 10
77.77186724776902
 20
-47.2718672477689
  0
LWPOLYLINE
  5
9E
100
AcDbEntity
  8
arms
  6
ByLayer
 62
  256
370
   -1
100
AcDbPolyline
 90
  112
 70
    0
 43
0
 10
83.76813275223101
 20
-105.2718672477691
 42
1.000000000000001
 10
77.77186724776931
 20
-111.2681327522311
 10
113.223094812409
 20
-146.3799023159472
 42
-0.002469073486229004
 10
114.9639658920806
 20
-148.3523931987494
 42
-0.009302521859318399
 10
115.4136113338128
 20
-148.8867063777696
 42
-0.02196502045481332
 10
116.0248262230907
 20
-149.7127351207098
 42
-0.03552580630367625
 10
116.3419080860986
 20
-150.2638565153573
 42
-0.04711356849709221
 10
116.5855170135782
 20
-150.9171750926128
 42
-0.03406443306093666
 10
116.7718494113869
 20
-151.8623233843074
 42
-0.01721085733199381
 10
116.8729503865444
 20
-152.9565996629818
 42
-0.008429078381121504
 10
116.9645727663513
 20
-155.1980794424522
 42
-0.0030169824032696
 10
116.9945918965925
 20
-156.8692133859894
 42
0.007621917431983603
 10
117.0400000000002
 20
-158.5400000000001
 42
0.03542202564779359
 10
117.0969477436277
 20
-159.3428379111594
 42
0.04059047131016334
 10
117.2521818015653
 20
-160.0281229702089
 42
0.04680759658543814
 10
117.5413753818007
 20
-160.7170252256451
 42
0.04610815993303118
 10
117.9590046876917
 20
-161.3501086643288
 42
0.03707411117430149
 10
118.4225118759332
 20
-161.8482364416685
 42
0.03052775412479575
 10
119.0615080072417
 20
-162.3715894085277
 42
0.01799753342247972
 10
119.5763426596977
 20
-162.7157080283085
 42
0.01254386197621132
 10
120.343642985214
 20
-163.1633552337664
 42
0.005245906199716485
 10
121.007923110544
 20
-163.5198533070823
 42
-0.003222448022916775
 10
121.6736404840338
 20
-163.8736602315768
 42
-0.009442148029694409
 10
122.4522858004437
 20
-164.3131279533584
 42
-0.01376165442828868
 10
122.9720195103206
 20
-164.6391465362952
 42
-0.05437359597099768
 10
124.2613166504462
 20
-165.7171939363459
 42
-0.06905942052444651
 10
125.0400000000002
 20
-166.7900000000001
 42
-0.03560223366656275
 10
125.3551642848863
 20
-167.498053690347
 42
-0.02666406134681467
 10
125.6551632628391
 20
-168.4878418330366
 42
-0.01427638450931121
 10
125.8122182323126
 20
-169.2160245612753
 42
-0.009966395842048803
 10
125.9863572679676
 20
-170.2686788730054
 42
-0.006581633632231599
 10
126.2228109223241
 20
-172.0654329836963
 42
0.01737294734532104
 10
126.4979792516775
 20
-173.8566666522788
 42
0.01708986686028673
 10
126.7246141927248
 20
-174.8637815270191
 42
0.02267612413660773
 10
126.9552228611794
 20
-175.6069922253666
 42
0.03814917030612357
 10
127.3677635821074
 20
-176.5246824150132
 42
0.04792702951016999
 10
127.8167209222135
 20
-177.1887071763962
 42
0.06329190108826799
 10
128.4783574834026
 20
-177.8101530591106
 42
0.06408490763642662
 10
129.2653193241142
 20
-178.2397401325849
 42
0.05106341449687288
 10
130.0512319494876
 20
-178.4569448900148
 42
0.04192546486046354
 10
131.0400000000002
 20
-178.54
 42
0.06104671754661641
 10
132.1379903281269
 20
-178.405441128361
 42
0.07455632703111434
 10
132.9763233145894
 20
-178.0581702235264
 42
0.07648536367675271
 10
133.6769904451197
 20
-177.4748814660987
 42
0.06329878311776251
 10
134.2955571866765
 20
-176.5657818985755
 42
0.03583939647130158
 10
134.6254710700819
 20
-175.7841215971056
 42
0.02596976710090641
 10
134.9441347057339
 20
-174.6581887855356
 42
0.01299003508200138
 10
135.1028053527178
 20
-173.8669204956909
 42
0.008628051790673254
 10
135.2899634037387
 20
-172.6665214195345
 42
0.003278662611933071
 10
135.4219143389651
 20
-171.6639080310282
 42
-0.002649994409438299
 10
135.5526045590305
 20
-170.6611295298133
 42
-0.007311395498797558
 10
135.732568070243
 20
-169.466505218901
 42
-0.01084845822686788
 10
135.8830200383263
 20
-168.6662632497355
 42
-0.020180488648054
 10
136.1647699986252
 20
-167.5530489450101
 42
-0.02656097475017461
 10
136.456928018927
 20
-166.7306766191332
 42
-0.04384914262435707
 10
136.9727373824308
 20
-165.7449752210616
 42
-0.05396457957964829
 10
137.5400000000002
 20
-165.0400000000001
 42
-0.05400397903336145
 10
138.2455593955255
 20
-164.4723586459272
 42
-0.04387088825563676
 10
139.2323473421311
 20
-163.956232763351
 42
-0.02655415011940466
 10
140.0551905542349
 20
-163.6641208699289
 42
-0.02017095976131532
 10
141.1692466930596
 20
-163.3823921030389
 42
-0.0108336538966254
 10
141.969474451198
 20
-163.232066227663
 42
-0.007296685230385086
 10
143.1648352456208
 20
-163.0521017266128
 42
-0.002634321898070789
 10
144.1679095632211
 20
-162.9214027231303
 42
0.003299059060409053
 10
145.1708092349866
 20
-162.789370285779
 42
0.008651357859459766
 10
146.3707192505277
 20
-162.6021282654589
 42
0.01301775621093661
 10
147.1620922494479
 20
-162.4432453045566
 42
0.026007834141475
 10
148.2874369984836
 20
-162.1243057271452
 42
0.03588623197636466
 10
149.0687186330614
 20
-161.7940604484515
 42
0.06333768836521399
 10
149.9767759526958
 20
-161.1752663941174
 42
0.0764917816514234
 10
150.559425590061
 20
-160.4742345206901
 42
0.07444333873741064
 10
150.9058005693741
 20
-159.6366839112168
 42
0.0609568443042931
 10
151.0400000000002
 20
-158.5400000000001
 42
0.04197083367916639
 10
150.9567771373395
 20
-157.5503096118028
 42
0.05112507695056764
 10
150.7391555819896
 20
-156.7638206429284
 42
0.06411613152999235
 10
150.3090858341334
 20
-155.9768904931531
 42
0.063302097031482
 10
149.6869193806423
 20
-155.315245389335
 42
0.0479005199289008
 10
149.0225295272147
 20
-154.8665630857605
 42
0.0381200045060866
 10
148.1042982294245
 20
-154.4542515876605
 42
0.02264740252214177
 10
147.3610171856863
 20
-154.2238756784136
 42
0.01706650122773341
 10
146.3537554016102
 20
-153.9974281423433
 42
0.01733679560131672
 10
144.5630276365312
 20
-153.7225012788758
 42
-0.006598924273998981
 10
142.7668097752399
 20
-153.4860861700957
 42
-0.009972656129828705
 10
141.7147346637754
 20
-153.311973099206
 42
-0.0142811830855841
 10
140.9867459759067
 20
-153.1548938966648
 42
-0.02665660218935905
 10
139.9976779926265
 20
-152.8550252574801
 42
-0.03558558284416419
 10
139.2900000000002
 20
-152.54
 42
-0.06908943693837115
 10
138.2168018417993
 20
-151.7609341462703
 42
-0.05438372634615071
 10
137.1382293872347
 20
-150.4706428211697
 42
-0.01374905866892526
 10
136.8123180186098
 20
-149.9509245153959
 42
-0.009428415101365929
 10
136.3727270791917
 20
-149.1719115458034
 42
-0.003206662088006973
 10
136.0188834164233
 20
-148.5060880520699
 42
0.005265631795664613
 10
135.6623009907891
 20
-147.8417272794337
 42
0.0125668562593321
 10
135.2146100396607
 20
-147.0745871531772
 42
0.01802350715509529
 10
134.8702832627558
 20
-146.5596989397977
 42
0.03055155996520267
 10
134.3468512163099
 20
-145.9210374074553
 42
0.03709443233008328
 10
133.8485398059699
 20
-145.4577487596563
 42
0.04609266453228179
 10
133.2156749133057
 20
-145.0406528450175
 42
0.04678153048937895
 10
132.5269537823654
 20
-144.751815313565
 42
0.04054990227836561
 10
131.8421659363775
 20
-144.5968469977538
 42
0.03538906403475117
 10
131.0400000000002
 20
-144.5400000000001
 42
0.007621937973696443
 10
129.3692020275405
 20
-144.494591656585
 42
-0.003017053740549891
 10
127.6980567268784
 20
-144.4645722211762
 42
-0.008429084894090179
 10
125.4565952257242
 20
-144.3729501030758
 42
-0.01721080000639421
 10
124.3623233843076
 20
-144.2718494113867
 42
-0.03407461098859958
 10
123.416997258626
 20
-144.0854619865504
 42
-0.04712508769328808
 10
122.7635329289713
 20
-143.8417513324646
 42
-0.03551695086142665
 10
122.2124521686398
 20
-143.5246422708753
 42
-0.02195766892766175
 10
121.386403074207
 20
-142.9133655779844
 42
-0.009298144303234798
 10
120.8521462230398
 20
-142.4637555685847
 42
-0.002467983117998583
 10
118.8799023159474
 20
-140.7230948124089
 10
83.76813275223122
 20
-105.2718672477692
  0
LWPOLYLINE
  5
9F
100
AcDbEntity
  8
arms
  6
ByLayer
 62
  256
370
   -1
100
AcDbPolyline
 90
  112
 70
    0
 43
0
 10
53.26813275223107
 20
-111.2681327522311
 42
0.9999999999999999
 10
47.27186724776905
 20
-105.2718672477693
 10
12.1600976840526
 20
-140.7230948124092
 42
-0.0024690734862262
 10
10.18760680124986
 20
-142.4639658920813
 42
-0.009302521859319925
 10
9.653293622230708
 20
-142.9136113338127
 42
-0.0219650204548206
 10
8.827264879290579
 20
-143.5248262230906
 42
-0.03552580630368084
 10
8.276143484643047
 20
-143.8419080860986
 42
-0.04711356849708852
 10
7.622824907387479
 20
-144.0855170135782
 42
-0.0340644330609399
 10
6.67767661569283
 20
-144.2718494113868
 42
-0.01721085733199515
 10
5.583400337018418
 20
-144.3729503865444
 42
-0.008429078381122711
 10
3.341920557547501
 20
-144.4645727663513
 42
-0.003016982403262626
 10
1.670786614012047
 20
-144.4945918965927
 42
0.007621917431980217
 10
2.141980365807045e-013
 20
-144.5400000000002
 42
0.03542202564779637
 10
-0.8028379111590708
 20
-144.5969477436277
 42
0.04059047131016323
 10
-1.488122970208549
 20
-144.7521818015653
 42
0.04680759658544476
 10
-2.177025225644747
 20
-145.0413753818007
 42
0.04610815993303284
 10
-2.810108664328466
 20
-145.4590046876917
 42
0.03707411117429626
 10
-3.308236441668043
 20
-145.9225118759332
 42
0.03052775412478731
 10
-3.831589408527313
 20
-146.5615080072417
 42
0.01799753342249249
 10
-4.175708028308206
 20
-147.0763426596977
 42
0.01254386197622009
 10
-4.623355233766162
 20
-147.843642985214
 42
0.005245906199726588
 10
-4.97985330708191
 20
-148.507923110544
 42
-0.003222448022921493
 10
-5.333660231576562
 20
-149.1736404840337
 42
-0.009442148029686971
 10
-5.77312795335812
 20
-149.9522858004437
 42
-0.01376165442827724
 10
-6.099146536294908
 20
-150.4720195103205
 42
-0.05437359597099396
 10
-7.177193936345503
 20
-151.7613166504461
 42
-0.0690594205244463
 10
-8.249999999999769
 20
-152.5400000000002
 42
-0.03560223366655775
 10
-8.958053690346773
 20
-152.8551642848863
 42
-0.02666406134681518
 10
-9.9478418330363
 20
-153.1551632628391
 42
-0.01427638450930698
 10
-10.67602456127539
 20
-153.3122182323127
 42
-0.009966395842053605
 10
-11.72867887300514
 20
-153.4863572679677
 42
-0.006581633632231492
 10
-13.52543298369602
 20
-153.7228109223241
 42
0.01737294734532331
 10
-15.31666665227849
 20
-153.9979792516775
 42
0.0170898668602869
 10
-16.32378152701873
 20
-154.2246141927249
 42
0.02267612413660846
 10
-17.06699222536621
 20
-154.4552228611793
 42
0.03814917030612424
 10
-17.9846824150129
 20
-154.8677635821074
 42
0.04792702951017423
 10
-18.64870717639588
 20
-155.3167209222135
 42
0.06329190108827122
 10
-19.27015305911033
 20
-155.9783574834026
 42
0.06408490763643641
 10
-19.6997401325846
 20
-156.7653193241142
 42
0.05106341449687833
 10
-19.91694489001449
 20
-157.5512319494876
 42
0.04192546486047188
 10
-19.99999999999972
 20
-158.5400000000003
 42
0.06104671754661976
 10
-19.86544112836078
 20
-159.6379903281268
 42
0.07455632703110765
 10
-19.51817022352614
 20
-160.4763233145893
 42
0.07648536367675059
 10
-18.93488146609833
 20
-161.1769904451196
 42
0.06329878311776251
 10
-18.02578189857518
 20
-161.7955571866764
 42
0.03583939647129091
 10
-17.24412159710516
 20
-162.125471070082
 42
0.02596976710090596
 10
-16.11818878553536
 20
-162.4441347057339
 42
0.01299003508200049
 10
-15.32692049569121
 20
-162.6028053527177
 42
0.008628051790663926
 10
-14.12652141953417
 20
-162.7899634037387
 42
0.003278662611947282
 10
-13.12390803102799
 20
-162.9219143389652
 42
-0.002649994409441907
 10
-12.12112952981292
 20
-163.0526045590304
 42
-0.007311395498790119
 10
-10.92650521890034
 20
-163.2325680702429
 42
-0.0108484582268635
 10
-10.12626324973512
 20
-163.3830200383263
 42
-0.0201804886480505
 10
-9.0130489450098
 20
-163.6647699986251
 42
-0.02656097475016695
 10
-8.190676619132907
 20
-163.956928018927
 42
-0.0438491426243573
 10
-7.204975221061275
 20
-164.4727373824308
 42
-0.05396457957964529
 10
-6.49999999999975
 20
-165.0400000000002
 42
-0.05400397903335622
 10
-5.932358645926859
 20
-165.7455593955256
 42
-0.04387088825564366
 10
-5.416232763350678
 20
-166.7323473421311
 42
-0.02655415011940752
 10
-5.124120869928692
 20
-167.5551905542348
 42
-0.0201709597613117
 10
-4.842392103038598
 20
-168.6692466930596
 42
-0.01083365389663561
 10
-4.692066227662629
 20
-169.4694744511979
 42
-0.007296685230390797
 10
-4.512101726612485
 20
-170.6648352456208
 42
-0.002634321898066601
 10
-4.381402723129924
 20
-171.6679095632211
 42
0.003299059060409275
 10
-4.249370285778721
 20
-172.6708092349865
 42
0.008651357859456435
 10
-4.062128265458572
 20
-173.8707192505279
 42
0.01301775621093772
 10
-3.903245304556242
 20
-174.6620922494479
 42
0.02600783414147601
 10
-3.584305727144912
 20
-175.7874369984837
 42
0.03588623197637444
 10
-3.25406044845114
 20
-176.5687186330614
 42
0.06333768836521532
 10
-2.63526639411706
 20
-177.4767759526958
 42
0.07649178165142563
 10
-1.934234520689792
 20
-178.059425590061
 42
0.07444333873741087
 10
-1.096683911216488
 20
-178.4058005693741
 42
0.06095684430429288
 10
2.026057307886221e-013
 20
-178.5400000000002
 42
0.04197083367916572
 10
0.9896903881976001
 20
-178.4567771373395
 42
0.05112507695056748
 10
1.776179357071952
 20
-178.2391555819896
 42
0.06411613152999156
 10
2.563109506847266
 20
-177.8090858341334
 42
0.06330209703148029
 10
3.224754610665302
 20
-177.1869193806423
 42
0.0479005199289052
 10
3.673436914239847
 20
-176.5225295272148
 42
0.0381200045060797
 10
4.08574841233979
 20
-175.6042982294245
 42
0.02264740252215449
 10
4.316124321586567
 20
-174.8610171856865
 42
0.01706650122773491
 10
4.542571857657027
 20
-173.8537554016102
 42
0.01733679560131127
 10
4.817498721124593
 20
-172.0630276365313
 42
-0.00659892427399454
 10
5.053913829904641
 20
-170.26680977524
 42
-0.009972656129821265
 10
5.228026900794349
 20
-169.2147346637753
 42
-0.01428118308557822
 10
5.385106103335501
 20
-168.4867459759067
 42
-0.0266566021893706
 10
5.684974742520244
 20
-167.4976779926265
 42
-0.03558558284417998
 10
6.000000000000243
 20
-166.7900000000002
 42
-0.06908943693836847
 10
6.779065853730088
 20
-165.7168018417993
 42
-0.05438372634614814
 10
8.069357178830677
 20
-164.6382293872348
 42
-0.01374905866893548
 10
8.589075484604667
 20
-164.3123180186096
 42
-0.009428415101381584
 10
9.368088454196911
 20
-163.8727270791918
 42
-0.003206662088000977
 10
10.03391194793038
 20
-163.5188834164234
 42
0.005265631795655509
 10
10.69827272056656
 20
-163.1623009907892
 42
0.01256685625933777
 10
11.465412846823
 20
-162.7146100396608
 42
0.01802350715509732
 10
11.98030106020261
 20
-162.3702832627558
 42
0.0305515599652102
 10
12.61896259254494
 20
-161.84685121631
 42
0.03709443233008331
 10
13.082251240344
 20
-161.3485398059699
 42
0.04609266453227876
 10
13.49934715498284
 20
-160.7156749133057
 42
0.04678153048937856
 10
13.78818468643529
 20
-160.0269537823654
 42
0.04054990227838051
 10
13.94315300224652
 20
-159.3421659363776
 42
0.03538906403475395
 10
14.00000000000023
 20
-158.5400000000004
 42
0.007621937973693278
 10
14.04540834341529
 20
-156.8692020275404
 42
-0.003017053740552778
 10
14.07542777882415
 20
-155.1980567268786
 42
-0.008429084894088069
 10
14.16704989692448
 20
-152.9565952257243
 42
-0.01721080000638965
 10
14.26815058861358
 20
-151.8623233843076
 42
-0.0340746109886038
 10
14.45453801344988
 20
-150.916997258626
 42
-0.04712508769329398
 10
14.69824866753566
 20
-150.2635329289712
 42
-0.03551695086143043
 10
15.01535772912495
 20
-149.7124521686398
 42
-0.02195766892766297
 10
15.62663442201599
 20
-148.8864030742071
 42
-0.009298144303238018
 10
16.07624443141529
 20
-148.3521462230402
 42
-0.002467983117998028
 10
17.81690518759117
 20
-146.3799023159474
 10
53.268132752231
 20
-111.2681327522313
  0
LWPOLYLINE
  5
A0
100
AcDbEntity
  8
arms
  6
ByLayer
 62
  256
370
   -1
100
AcDbPolyline
 90
  112
 70
    0
 43
0
 10
17.81690518759089
 20
-12.16009768405246
 42
-0.002469073486226311
 10
16.07603410791895
 20
-10.18760680124984
 42
-0.009302521859320369
 10
15.62638866618746
 20
-9.653293622230501
 42
-0.02196502045481694
 10
15.01517377690957
 20
-8.827264879290412
 42
-0.03552580630367239
 10
14.69809191390165
 20
-8.276143484642835
 42
-0.04711356849708975
 10
14.454482986422
 20
-7.622824907387265
 42
-0.03406443306093968
 10
14.26815058861337
 20
-6.677676615692632
 42
-0.01721085733199515
 10
14.16704961345587
 20
-5.583400337018411
 42
-0.008429078381121046
 10
14.07542723364887
 20
-3.341920557547634
 42
-0.003016982403274172
 10
14.04540810340751
 20
-1.670786614008671
 42
0.007621917431984301
 10
14
 20
-2.225942418458615e-015
 42
0.03542202564779837
 10
13.94305225637254
 20
0.8028379111592429
 42
0.0405904713101625
 10
13.78781819843492
 20
1.488122970208762
 42
0.04680759658544679
 10
13.49862461819952
 20
2.177025225644957
 42
0.046108159933036
 10
13.08099531230852
 20
2.810108664328678
 42
0.03707411117429929
 10
12.61748812406703
 20
3.308236441668257
 42
0.03052775412478873
 10
11.97849199275853
 20
3.831589408527561
 42
0.01799753342248088
 10
11.46365734030256
 20
4.175708028308341
 42
0.01254386197621004
 10
10.69635701478621
 20
4.623355233766393
 42
0.005245906199720593
 10
10.03207688945615
 20
4.979853307082116
 42
-0.003222448022926378
 10
9.366359515966371
 20
5.333660231576744
 42
-0.009442148029687637
 10
8.587714199556544
 20
5.773127953358294
 42
-0.01376165442827946
 10
8.067980489679615
 20
6.099146536295105
 42
-0.05437359597099629
 10
6.77868334955401
 20
7.177193936345761
 42
-0.0690594205244492
 10
5.999999999999995
 20
8.250000000000004
 42
-0.03560223366655909
 10
5.684835715113829
 20
8.958053690347009
 42
-0.02666406134681829
 10
5.3848367371611
 20
9.947841833036513
 42
-0.01427638450931153
 10
5.227781767687624
 20
10.67602456127524
 42
-0.009966395842048054
 10
5.053642732032529
 20
11.72867887300532
 42
-0.006581633632232602
 10
4.817189077676133
 20
13.52543298369615
 42
0.0173729473453187
 10
4.542020748322692
 20
15.3166666522787
 42
0.0170898668602933
 10
4.315385807275403
 20
16.32378152701889
 42
0.022676124136613
 10
4.084777138820904
 20
17.06699222536646
 42
0.03814917030612042
 10
3.672236417892841
 20
17.98468241501313
 42
0.04792702951016702
 10
3.223279077786704
 20
18.64870717639608
 42
0.06329190108826301
 10
2.561642516597575
 20
19.27015305911056
 42
0.06408490763643394
 10
1.774680675886067
 20
19.69974013258481
 42
0.05106341449687616
 10
0.9887680505125771
 20
19.91694489001471
 42
0.04192546486047272
 10
6.780217648209621e-016
 20
19.99999999999994
 42
0.06104671754662114
 10
-1.097990328126637
 20
19.86544112836099
 42
0.07455632703110307
 10
-1.936323314589184
 20
19.51817022352639
 42
0.07648536367675159
 10
-2.636990445119461
 20
18.93488146609856
 42
0.06329878311775949
 10
-3.255557186676249
 20
18.02578189857539
 42
0.03583939647129614
 10
-3.585471070081822
 20
17.24412159710538
 42
0.02596976710090896
 10
-3.904134705733703
 20
16.11818878553554
 42
0.01299003508199793
 10
-4.062805352717515
 20
15.32692049569129
 42
0.008628051790663815
 10
-4.249963403738548
 20
14.12652141953443
 42
0.003278662611939621
 10
-4.38191433896489
 20
13.12390803102794
 42
-0.002649994409445848
 10
-4.512604559030358
 20
12.1211295298128
 42
-0.007311395498790452
 10
-4.692568070242807
 20
10.92650521890059
 42
-0.01084845822686389
 10
-4.843020038326127
 20
10.12626324973532
 42
-0.02018048864805511
 10
-5.124769998624962
 20
9.013048945009908
 42
-0.02656097475017706
 10
-5.416928018926866
 20
8.190676619133129
 42
-0.04384914262435718
 10
-5.932737382430592
 20
7.204975221061488
 42
-0.05396457957964217
 10
-6.500000000000005
 20
6.499999999999989
 42
-0.05400397903335611
 10
-7.205559395525381
 20
5.932358645927089
 42
-0.04387088825564182
 10
-8.192347342130955
 20
5.416232763350916
 42
-0.02655415011940611
 10
-9.015190554234696
 20
5.12412086992888
 42
-0.0201709597613141
 10
-10.12924669305939
 20
4.842392103038801
 42
-0.01083365389663561
 10
-10.92947445119782
 20
4.692066227662806
 42
-0.007296685230390305
 10
-12.12483524562071
 20
4.512101726612684
 42
-0.002634321898067402
 10
-13.1279095632209
 20
4.381402723130208
 42
0.00329905906041033
 10
-14.13080923498658
 20
4.249370285778852
 42
0.008651357859457101
 10
-15.33071925052771
 20
4.062128265458796
 42
0.01301775621093772
 10
-16.12209224944775
 20
3.90324530455644
 42
0.02600783414147739
 10
-17.24743699848349
 20
3.584305727145138
 42
0.03588623197637399
 10
-18.02871863306123
 20
3.25406044845137
 42
0.06333768836522156
 10
-18.93677595269566
 20
2.635266394117317
 42
0.0764917816514272
 10
-19.51942559006083
 20
1.934234520690011
 42
0.07444333873741467
 10
-19.8658005693739
 20
1.096683911216701
 42
0.06095684430429332
 10
-20
 20
2.063144875721609e-014
 42
0.04197083367916717
 10
-19.91677713733926
 20
-0.9896903881973683
 42
0.05112507695056849
 10
-19.69915558198942
 20
-1.776179357071741
 42
0.06411613152999233
 10
-19.2690858341332
 20
-2.563109506847123
 42
0.0633020970314862
 10
-18.64691938064207
 20
-3.224754610665125
 42
0.04790051992890008
 10
-17.98252952721456
 20
-3.673436914239641
 42
0.0381200045060806
 10
-17.06429822942429
 20
-4.085748412339623
 42
0.02264740252215316
 10
-16.32101718568626
 20
-4.31612432158636
 42
0.0170665012277358
 10
-15.31375540161005
 20
-4.542571857656824
 42
0.01733679560131261
 10
-13.52302763653099
 20
-4.817498721124394
 42
-0.006598924273993707
 10
-11.72680977523978
 20
-5.053913829904442
 42
-0.009972656129822599
 10
-10.67473466377517
 20
-5.228026900794125
 42
-0.01428118308557811
 10
-9.946745975906516
 20
-5.385106103335286
 42
-0.0266566021893706
 10
-8.95767799262636
 20
-5.684974742520012
 42
-0.03558558284417865
 10
-8.249999999999998
 20
-5.999999999999997
 42
-0.06908943693837073
 10
-7.176801841799126
 20
-6.779065853729842
 42
-0.05438372634614939
 10
-6.098229387234531
 20
-8.069357178830419
 42
-0.01374905866893831
 10
-5.772318018609528
 20
-8.589075484604228
 42
-0.009428415101377116
 10
-5.332727079191578
 20
-9.368088454196702
 42
-0.003206662088010303
 10
-4.978883416423127
 20
-10.03391194793025
 42
0.00526563179566106
 10
-4.622300990788945
 20
-10.69827272056638
 42
0.01256685625933721
 10
-4.174610039660596
 20
-11.46541284682287
 42
0.01802350715509721
 10
-3.830283262755604
 20
-11.9803010602024
 42
0.03055155996520931
 10
-3.306851216309732
 20
-12.61896259254475
 42
0.03709443233008487
 10
-2.808539805969672
 20
-13.0822512403438
 42
0.04609266453228299
 10
-2.175674913305525
 20
-13.49934715498265
 42
0.04678153048937945
 10
-1.486953782365141
 20
-13.78818468643507
 42
0.04054990227838051
 10
-0.8021659363774363
 20
-13.94315300224629
 42
0.03538906403475262
 10
-7.105427357601002e-014
 20
-13.99999999999998
 42
0.007621937973689948
 10
1.670797972459646
 20
-14.04540834341506
 42
-0.003017053740552278
 10
3.341943273121789
 20
-14.07542777882381
 42
-0.008429084894090012
 10
5.583404774275736
 20
-14.16704989692423
 42
-0.01721080000639015
 10
6.677676615692622
 20
-14.26815058861335
 42
-0.03407461098860314
 10
7.623002741374145
 20
-14.45453801344967
 42
-0.04712508769329036
 10
8.276467071028918
 20
-14.69824866753545
 42
-0.0355169508614279
 10
8.827547831360373
 20
-15.01535772912474
 42
-0.02195766892765991
 10
9.653596925793124
 20
-15.62663442201572
 42
-0.009298144303235797
 10
10.18785377696
 20
-16.07624443141503
 42
-0.002467983117997223
 10
12.16009768405286
 20
-17.8169051875912
 10
47.27186724776902
 20
-53.26813275223099
 42
1
 10
53.26813275223094
 20
-47.27186724776905
 10
17.81690518759116
 20
-12.16009768405288
  0
DIMENSION
  5
A1
100
AcDbEntity
  8
meassures
  6
ByLayer
 62
  256
370
   -1
100
AcDbDimension
  2
*D1
 10
53.4
 20
-34.4
 30
0
 11
32.77582521472478
 21
-11.12417478527522
 31
0
 70
   33
 71
    5
 72
    0
  3
QCADDimStyle
 53
0
210
0
220
0
230
1
100
AcDbAlignedDimension
 13
8e-016
 23
-8e-016
 33
0
 14
43.9
 24
-43.9
 34
0
  0
DIMENSION
  5
A2
100
AcDbEntity
  8
meassures
  6
ByLayer
 62
  256
370
   -1
100
AcDbDimension
  2
*D2
 10
59.76999999999999
 20
-40.76999999999998
 30
0
 11
64.97506336462264
 21
-43.32341293517305
 31
0
 70
   33
 71
    5
 72
    0
  3
QCADDimStyle
 53
0
210
0
220
0
230
1
100
AcDbAlignedDimension
 13
43.89999999999999
 23
-43.90000000000001
 33
0
 14
50.27
 24
-50.27
 34
0
  0
LINE
  5
A3
100
AcDbEntity
  8
references
  6
ByLayer
 62
  256
370
   -1
100
AcDbLine
 10
50.2700000000001
 20
-50.27000000000013
 11
80.7700000000001
 21
-50.27000000000013
  0
LINE
  5
A4
100
AcDbEntity
  8
references
  6
ByLayer
 62
  256
370
   -1
100
AcDbLine
 10
50.27000000000009
 20
-108.2700000000001
 11
50.27000000000009
 21
-50.27000000000013
  0
LINE
  5
A5
100
AcDbEntity
  8
references
  6
ByLayer
 62
  256
370
   -1
100
AcDbLine
 10
80.7700000000001
 20
-108.2700000000001
 11
80.7700000000001
 21
-50.27000000000013
  0
LINE
  5
A6
100
AcDbEntity
  8
references
  6
ByLayer
 62
  256
370
   -1
100
AcDbLine
 10
50.27000000000009
 20
-108.2700000000001
 11
80.7700000000001
 21
-108.2700000000001
  0
LINE
  5
A7
100
AcDbEntity
  8
references
  6
ByLayer
 62
  256
370
   -1
100
AcDbLine
 10
50.27000000000009
 20
-50.27000000000013
 11
80.7700000000001
 21
-108.2700000000002
  0
LINE
  5
A8
100
AcDbEntity
  8
references
  6
ByLayer
 62
  256
370
   -1
100
AcDbLine
 10
80.77000000000011
 20
-50.27
 11
50.2700000000001
 21
-108.2700000000001
  0
LINE
  5
A9
100
AcDbEntity
  8
references
  6
ByLayer
 62
  256
370
   -1
100
AcDbLine
 10
50.27000000000008
 20
-79.2700000000001
 11
80.77000000000008
 21
-79.2700000000001
  0
LINE
  5
AA
100
AcDbEntity
  8
references
  6
ByLayer
 62
  256
370
   -1
100
AcDbLine
 10
65.52000000000005
 20
-108.2700000000001
 11
65.52000000000005
 21
-50.27000000000008
  0
LINE
  5
AB
100
AcDbEntity
  8
references
  6
ByLayer
 62
  256
370
   -1
100
AcDbLine
 10
65.52000000000005
 20
-108.2700000000001
 11
65.52000000000005
 21
-100.2700000000001
  0
CIRCLE
  5
AC
100
AcDbEntity
  8
references
  6
ByLayer
 62
  256
370
   -1
100
AcDbCircle
 10
43.9
 20
-43.9
 40
4
  0
CIRCLE
  5
AD
100
AcDbEntity
  8
references
  6
ByLayer
 62
  256
370
   -1
100
AcDbCircle
 10
43.90000000000001
 20
-114.6400000000003
 40
4
  0
CIRCLE
  5
AE
100
AcDbEntity
  8
references
  6
ByLayer
 62
  256
370
   -1
100
AcDbCircle
 10
87.14000000000027
 20
-114.6400000000002
 40
4
  0
CIRCLE
  5
AF
100
AcDbEntity
  8
references
  6
ByLayer
 62
  256
370
   -1
100
AcDbCircle
 10
87.13999999999999
 20
-43.89999999999985
 40
4
  0
LINE
  5
B0
100
AcDbEntity
  8
references
  6
ByLayer
 62
  256
370
   -1
100
AcDbLine
 10
55.52000000000005
 20
-100.2700000000001
 11
75.52000000000005
 21
-100.2700000000001
  0
LINE
  5
B1
100
AcDbEntity
  8
references
  6
ByLayer
 62
  256
370
   -1
100
AcDbLine
 10
55.52000000000005
 20
-100.2700000000001
 11
55.52000000000005
 21
-80.2700000000001
  0
LINE
  5
B2
100
AcDbEntity
  8
references
  6
ByLayer
 62
  256
370
   -1
100
AcDbLine
 10
75.52000000000005
 20
-100.2700000000001
 11
75.52000000000005
 21
-80.2700000000001
  0
LINE
  5
B3
100
AcDbEntity
  8
references
  6
ByLayer
 62
  256
370
   -1
100
AcDbLine
 10
55.52000000000005
 20
-80.2700000000001
 11
75.52000000000005
 21
-80.2700000000001
  0
CIRCLE
  5
B4
100
AcDbEntity
  8
bottom plate
  6
ByLayer
 62
  256
370
   -1
100
AcDbCircle
 10
43.89999999999999
 20
-43.90000000000001
 40
1.5
  0
CIRCLE
  5
B5
100
AcDbEntity
  8
bottom plate
  6
ByLayer
 62
  256
370
   -1
100
AcDbCircle
 10
50.2700000000001
 20
-50.27000000000013
 40
1.5
  0
CIRCLE
  5
B6
100
AcDbEntity
  8
bottom plate
  6
ByLayer
 62
  256
370
   -1
100
AcDbCircle
 10
87.13999999999999
 20
-43.89999999999985
 40
1.5
  0
CIRCLE
  5
B7
100
AcDbEntity
  8
bottom plate
  6
ByLayer
 62
  256
370
   -1
100
AcDbCircle
 10
80.76999999999998
 20
-50.27000000000013
 40
1.5
  0
CIRCLE
  5
B8
100
AcDbEntity
  8
bottom plate
  6
ByLayer
 62
  256
370
   -1
100
AcDbCircle
 10
50.2700000000001
 20
-108.2700000000001
 40
1.5
  0
CIRCLE
  5
B9
100
AcDbEntity
  8
bottom plate
  6
ByLayer
 62
  256
370
   -1
100
AcDbCircle
 10
43.90000000000001
 20
-114.6400000000003
 40
1.5
  0
CIRCLE
  5
BA
100
AcDbEntity
  8
bottom plate
  6
ByLayer
 62
  256
370
   -1
100
AcDbCircle
 10
80.77000000000012
 20
-108.2700000000001
 40
1.5
  0
CIRCLE
  5
BB
100
AcDbEntity
  8
bottom plate
  6
ByLayer
 62
  256
370
   -1
100
AcDbCircle
 10
87.14000000000027
 20
-114.6400000000002
 40
1.5
  0
CIRCLE
  5
BC
100
AcDbEntity
  8
bottom plate
  6
ByLayer
 62
  256
370
   -1
100
AcDbCircle
 10
55.52000000000005
 20
-100.2700000000001
 40
1
  0
CIRCLE
  5
BD
100
AcDbEntity
  8
bottom plate
  6
ByLayer
 62
  256
370
   -1
100
AcDbCircle
 10
75.52000000000005
 20
-100.2700000000001
 40
1
  0
CIRCLE
  5
BE
100
AcDbEntity
  8
bottom plate
  6
ByLayer
 62
  256
370
   -1
100
AcDbCircle
 10
75.52000000000005
 20
-80.2700000000001
 40
1
  0
CIRCLE
  5
BF
100
AcDbEntity
  8
bottom plate
  6
ByLayer
 62
  256
370
   -1
100
AcDbCircle
 10
55.52000000000005
 20
-80.2700000000001
 40
1
  0
LINE
  5
C0
100
AcDbEntity
  8
references
  6
ByLayer
 62
  256
370
   -1
100
AcDbLine
 10
80.77000000000014
 20
-50.26999999999997
 11
50.2700000000001
 21
-79.27000000000011
  0
LINE
  5
C1
100
AcDbEntity
  8
references
  6
ByLayer
 62
  256
370
   -1
100
AcDbLine
 10
75.52000000000005
 20
-80.2700000000001
 11
55.52000000000005
 21
-100.2700000000001
  0
CIRCLE
  5
C2
100
AcDbEntity
  8
bottom plate
  6
ByLayer
 62
  256
370
   -1
100
AcDbCircle
 10
65.52000000000005
 20
-90.27000000000011
 40
5.119751269282875
  0
CIRCLE
  5
C3
100
AcDbEntity
  8
bottom plate
  6
ByLayer
 62
  256
370
   -1
100
AcDbCircle
 10
65.52000000000005
 20
-64.7700000000001
 40
6.74876303678197
  0
ARC
  5
C4
100
AcDbEntity
  8
bottom plate
  6
ByLayer
 62
  256
370
   -1
100
AcDbCircle
 10
43.89999999999999
 20
-43.90000000000002
 40
4.000000000000022
100
AcDbArc
 50
45
 51
224.9999999999999
  0
ARC
  5
C5
100
AcDbEntity
  8
bottom plate
  6
ByLayer
 62
  256
370
   -1
100
AcDbCircle
 10
87.1400000000001
 20
-43.89999999999997
 40
3.999999999999836
100
AcDbArc
 50
314.9999999999998
 51
134.9999999999996
  0
ARC
  5
C6
100
AcDbEntity
  8
bottom plate
  6
ByLayer
 62
  256
370
   -1
100
AcDbCircle
 10
87.14000000000021
 20
-114.6400000000002
 40
3.999999999999922
100
AcDbArc
 50
225.0000000000002
 51
44.99999999999986
  0
ARC
  5
C7
100
AcDbEntity
  8
bottom plate
  6
ByLayer
 62
  256
370
   -1
100
AcDbCircle
 10
43.89999999999996
 20
-114.6400000000002
 40
3.999999999999927
100
AcDbArc
 50
134.9999999999996
 51
314.9999999999998
  0
LINE
  5
C8
100
AcDbEntity
  8
references
  6
ByLayer
 62
  256
370
   -1
100
AcDbLine
 10
41.07157287525378
 20
-46.72842712474622
 11
50.70391381276322
 21
-56.888053498958
  0
LINE
  5
C9
100
AcDbEntity
  8
references
  6
ByLayer
 62
  256
370
   -1
100
AcDbLine
 10
89.96842712474617
 20
-46.72842712474605
 11
80.3360861872367
 21
-56.88805349895781
  0
SPLINE
  5
CA
100
AcDbEntity
  8
bottom plate
  6
ByLayer
 62
  256
370
   -1
100
AcDbSpline
210
0
220
0
230
0
 70
    8
 71
    3
 72
    8
 73
    4
 74
    0
 42
1e-007
 43
1e-007
 40
0
 40
0
 40
0
 40
0
 40
1
 40
1
 40
1
 40
1
 10
46.7284271247462
 20
-41.07157287525381
 30
0
 10
65.52000000000005
 20
-50.27000000000012
 30
0
 10
84.31157287525404
 20
-41.07157287525389
 30
0
 10
84.3115728752538
 20
-41.07157287525365
 30
0
  0
SPLINE
  5
CB
100
AcDbEntity
  8
bottom plate
  6
ByLayer
 62
  256
370
   -1
100
AcDbSpline
210
0
220
0
230
0
 70
    8
 71
    3
 72
   11
 73
    7
 74
    0
 42
1e-007
 43
1e-007
 40
0
 40
0
 40
0
 40
0
 40
1
 40
2
 40
3
 40
4
 40
4
 40
4
 40
4
 10
41.0715728752527
 20
-46.72842712474508
 30
0
 10
47.27186724776909
 20
-53.2681327522311
 30
0
 10
50.2700000000001
 20
-56.43038674433596
 30
0
 10
50.27000000000012
 20
-79.2700000000001
 30
0
 10
47.27186724776917
 20
-105.2718672477692
 30
0
 10
41.07157287525384
 20
-111.8115728752541
 30
0
 10
41.07157287525381
 20
-111.8115728752541
 30
0
  0
SPLINE
  5
CC
100
AcDbEntity
  8
bottom plate
  6
ByLayer
 62
  256
370
   -1
100
AcDbSpline
210
0
220
0
230
0
 70
    8
 71
    3
 72
   11
 73
    7
 74
    0
 42
1e-007
 43
1e-007
 40
0
 40
0
 40
0
 40
0
 40
1
 40
2
 40
3
 40
4
 40
4
 40
4
 40
4
 10
89.96842712474621
 20
-46.728427124746
 30
0
 10
83.76813275223199
 20
-53.26813275223203
 30
0
 10
80.770000000001
 20
-56.43038674433689
 30
0
 10
80.770000000001
 20
-79.27000000000103
 30
0
 10
83.76813275223196
 20
-105.2718672477701
 30
0
 10
89.96842712474735
 20
-111.811572875255
 30
0
 10
89.96842712474734
 20
-111.811572875255
 30
0
  0
LINE
  5
CD
100
AcDbEntity
  8
references
  6
ByLayer
 62
  256
370
   -1
100
AcDbLine
 10
65.52000000000005
 20
-119.2700000000001
 11
65.52000000000005
 21
-108.2700000000001
  0
LINE
  5
CE
100
AcDbEntity
  8
references
  6
ByLayer
 62
  256
370
   -1
100
AcDbLine
 10
61.52000000000005
 20
-119.2700000000001
 11
69.52000000000005
 21
-119.2700000000001
  0
CIRCLE
  5
CF
100
AcDbEntity
  8
bottom plate
  6
ByLayer
 62
  256
370
   -1
100
AcDbCircle
 10
65.52000000000005
 20
-119.2700000000001
 40
1.5
  0
ARC
  5
D0
100
AcDbEntity
  8
bottom plate
  6
ByLayer
 62
  256
370
   -1
100
AcDbCircle
 10
65.52000000000005
 20
-119.2700000000001
 40
4
100
AcDbArc
 50
180
 51
0
  0
SPLINE
  5
D1
100
AcDbEntity
  8
bottom plate
  6
ByLayer
 62
  256
370
   -1
100
AcDbSpline
210
0
220
0
230
0
 70
    8
 71
    3
 72
    8
 73
    4
 74
    0
 42
1e-007
 43
1e-007
 40
0
 40
0
 40
0
 40
0
 40
1
 40
1
 40
1
 40
1
 10
46.72842712474619
 20
-117.4684271247465
 30
0
 10
60
 20
-112
 30
0
 10
61.52000000000005
 20
-119.2700000000001
 30
0
 10
61.52000000000005
 20
-119.2700000000001
 30
0
  0
SPLINE
  5
D2
100
AcDbEntity
  8
bottom plate
  6
ByLayer
 62
  256
370
   -1
100
AcDbSpline
210
0
220
0
230
0
 70
    8
 71
    3
 72
    8
 73
    4
 74
    0
 42
1e-007
 43
1e-007
 40
0
 40
0
 40
0
 40
0
 40
1
 40
1
 40
1
 40
1
 10
84.31157287525392
 20
-117.4684271247465
 30
0
 10
71.04000000000011
 20
-112
 30
0
 10
69.52000000000005
 20
-119.2700000000001
 30
0
 10
69.52000000000005
 20
-119.2700000000001
 30
0
  0
LINE
  5
D3
100
AcDbEntity
  8
references
  6
ByLayer
 62
  256
370
   -1
100
AcDbLine
 10
60.02000000000005
 20
-119.2700000000001
 11
71.02000000000005
 21
-119.2700000000001
  0
CIRCLE
  5
D4
100
AcDbEntity
  8
top plate
  6
ByLayer
 62
  256
370
   -1
100
AcDbCircle
 10
65.52000000000005
 20
-119.2700000000001
 40
1.5
  0
ARC
  5
D5
100
AcDbEntity
  8
top plate
  6
ByLayer
 62
  256
370
   -1
100
AcDbCircle
 10
65.52000000000005
 20
-119.2700000000001
 40
5.5
100
AcDbArc
 50
180
 51
0
  0
CIRCLE
  5
D6
100
AcDbEntity
  8
top plate
  6
ByLayer
 62
  256
370
   -1
100
AcDbCircle
 10
50.27000000000009
 20
-50.27000000000014
 40
1.5
  0
CIRCLE
  5
D7
100
AcDbEntity
  8
top plate
  6
ByLayer
 62
  256
370
   -1
100
AcDbCircle
 10
80.76999999999995
 20
-50.27000000000013
 40
1.5
  0
LINE
  5
D8
100
AcDbEntity
  8
references
  6
ByLayer
 62
  256
370
   -1
100
AcDbLine
 10
45.7700000000001
 20
-50.27000000000013
 11
54.7700000000001
 21
-50.27000000000013
  0
LINE
  5
D9
100
AcDbEntity
  8
references
  6
ByLayer
 62
  256
370
   -1
100
AcDbLine
 10
76.26999999999995
 20
-50.27000000000013
 11
85.26999999999995
 21
-50.27000000000013
  0
ARC
  5
DA
100
AcDbEntity
  8
top plate
  6
ByLayer
 62
  256
370
   -1
100
AcDbCircle
 10
50.2700000000001
 20
-50.27000000000013
 40
4.5
100
AcDbArc
 50
0
 51
180
  0
ARC
  5
DB
100
AcDbEntity
  8
top plate
  6
ByLayer
 62
  256
370
   -1
100
AcDbCircle
 10
80.76999999999995
 20
-50.27000000000013
 40
4.5
100
AcDbArc
 50
0
 51
180
  0
SPLINE
  5
DC
100
AcDbEntity
  8
top plate
  6
ByLayer
 62
  256
370
   -1
100
AcDbSpline
210
0
220
0
230
0
 70
    8
 71
    3
 72
    8
 73
    4
 74
    0
 42
1e-007
 43
1e-007
 40
0
 40
0
 40
0
 40
0
 40
1
 40
1
 40
1
 40
1
 10
45.7700000000001
 20
-50.27000000000013
 30
0
 10
50.27000000000012
 20
-79.2700000000001
 30
0
 10
60.02000000000005
 20
-119.2700000000001
 30
0
 10
60.02000000000005
 20
-119.2700000000001
 30
0
  0
SPLINE
  5
DD
100
AcDbEntity
  8
top plate
  6
ByLayer
 62
  256
370
   -1
100
AcDbSpline
210
0
220
0
230
0
 70
    8
 71
    3
 72
    8
 73
    4
 74
    0
 42
1e-007
 43
1e-007
 40
0
 40
0
 40
0
 40
0
 40
1
 40
1
 40
1
 40
1
 10
85.26999999999995
 20
-50.27000000000013
 30
0
 10
80.77000000000011
 20
-79.27000000000011
 30
0
 10
71.02000000000005
 20
-119.2700000000001
 30
0
 10
71.02000000000005
 20
-119.2700000000001
 30
0
  0
LINE
  5
DE
100
AcDbEntity
  8
references
  6
ByLayer
 62
  256
370
   -1
100
AcDbLine
 10
65.52000000000005
 20
-60.27000000000012
 11
65.52000000000005
 21
-50.27000000000012
  0
SPLINE
  5
DF
100
AcDbEntity
  8
top plate
  6
ByLayer
 62
  256
370
   -1
100
AcDbSpline
210
0
220
0
230
0
 70
    8
 71
    3
 72
    9
 73
    5
 74
    0
 42
1e-007
 43
1e-007
 40
0
 40
0
 40
0
 40
0
 40
1
 40
2
 40
2
 40
2
 40
2
 10
54.7700000000001
 20
-50.27000000000013
 30
0
 10
57.02000000000005
 20
-60.27000000000012
 30
0
 10
65.52000000000005
 20
-60.27000000000012
 30
0
 10
74.02000000000005
 20
-60.27000000000012
 30
0
 10
76.26999999999995
 20
-50.27000000000013
 30
0
  0
LINE
  5
E0
100
AcDbEntity
  8
references
  6
ByLayer
 62
  256
370
   -1
100
AcDbLine
 10
60.52000000000008
 20
-79.27000000000011
 11
70.52000000000008
 21
-79.27000000000011
  0
LINE
  5
E1
100
AcDbEntity
  8
references
  6
ByLayer
 62
  256
370
   -1
100
AcDbLine
 10
55.52000000000005
 20
-79.27000000000008
 11
75.52000000000005
 21
-79.27000000000008
  0
LINE
  5
E2
100
AcDbEntity
  8
references
  6
ByLayer
 62
  256
370
   -1
100
AcDbLine
 10
65.52000000000005
 20
-79.27000000000014
 11
65.52000000000005
 21
-69.27000000000014
  0
DIMENSION
  5
E3
100
AcDbEntity
  8
meassures
  6
ByLayer
 62
  256
370
   -1
100
AcDbDimension
  2
*D3
 10
0
 20
0
 30
0
 11
0
 21
4.440892098500626e-016
 31
0
 70
   33
 71
    5
 72
    0
  3
QCADDimStyle
 53
0
210
0
220
0
230
1
100
AcDbAlignedDimension
 13
0
 23
8e-016
 33
0
 14
0
 24
0
 34
0
  0
DIMENSION
  5
E4
100
AcDbEntity
  8
meassures
  6
ByLayer
 62
  256
370
   -1
100
AcDbDimension
  2
*D4
 10
-63
 20
9
 30
0
 11
-31.5
 21
10.875
 31
0
 70
   33
 71
    5
 72
    0
  3
QCADDimStyle
 53
0
210
0
220
0
230
1
100
AcDbAlignedDimension
 13
0
 23
0
 33
0
 14
-63
 24
0
 34
0
  0
LWPOLYLINE
  5
E5
100
AcDbEntity
  8
top plate
  6
ByLayer
 62
  256
370
   -1
100
AcDbPolyline
 90
    6
 70
    1
 43
0
 10
60
 20
-69
 10
57
 20
-69
 42
0.414213562373095
 10
55
 20
-71
 10
59
 20
-91
 42
0.9999999999999999
 10
62
 20
-91
 10
62
 20
-71
 42
0.414213562373095
  0
LWPOLYLINE
  5
E6
100
AcDbEntity
  8
top plate
  6
ByLayer
 62
  256
370
   -1
100
AcDbPolyline
 90
    6
 70
    1
 43
0
 10
71.04000000000011
 20
-69
 10
74.04000000000011
 20
-69
 42
-0.414213562373095
 10
76.04000000000011
 20
-71
 10
72.04000000000011
 20
-91
 42
-0.9999999999999999
 10
69.04000000000011
 20
-91
 10
69.04000000000011
 20
-71
 42
-0.414213562373095
  0
LINE
  5
E7
100
AcDbEntity
  8
references
  6
ByLayer
 62
  256
370
   -1
100
AcDbLine
 10
-7.5
 20
0
 11
7.5
 21
0
  0
CIRCLE
  5
E8
100
AcDbEntity
  8
arms
  6
ByLayer
 62
  256
370
   -1
100
AcDbCircle
 10
7.5
 20
0
 40
1.5
  0
CIRCLE
  5
E9
100
AcDbEntity
  8
arms
  6
ByLayer
 62
  256
370
   -1
100
AcDbCircle
 10
-7.5
 20
0
 40
1.5
  0
LINE
  5
EA
100
AcDbEntity
  8
references
  6
ByLayer
 62
  256
370
   -1
100
AcDbLine
 10
-5e-016
 20
-7.499999999999999
 11
5e-016
 21
7.500000000000001
  0
CIRCLE
  5
EB
100
AcDbEntity
  8
arms
  6
ByLayer
 62
  256
370
   -1
100
AcDbCircle
 10
5e-016
 20
7.500000000000001
 40
1.5
  0
CIRCLE
  5
EC
100
AcDbEntity
  8
arms
  6
ByLayer
 62
  256
370
   -1
100
AcDbCircle
 10
-5e-016
 20
-7.499999999999999
 40
1.5
  0
CIRCLE
  5
ED
100
AcDbEntity
  8
motors
  6
ByLayer
 62
  256
370
   -1
100
AcDbCircle
 10
0
 20
0
 40
11.5
  0
LINE
  5
EE
100
AcDbEntity
  8
references
  6
ByLayer
 62
  256
370
   -1
100
AcDbLine
 10
-7.5
 20
-4
 11
-7.499999999999999
 21
4
  0
ARC
  5
EF
100
AcDbEntity
  8
reinforcement
  6
ByLayer
 62
  256
370
   -1
100
AcDbCircle
 10
-7.5
 20
0
 40
4
100
AcDbArc
 50
89.99999999999999
 51
270
  0
CIRCLE
  5
F0
100
AcDbEntity
  8
reinforcement
  6
ByLayer
 62
  256
370
   -1
100
AcDbCircle
 10
-7.5
 20
0
 40
1.5
  0
CIRCLE
  5
F1
100
AcDbEntity
  8
reinforcement
  6
ByLayer
 62
  256
370
   -1
100
AcDbCircle
 10
7.5
 20
0
 40
1.5
  0
LINE
  5
F2
100
AcDbEntity
  8
references
  6
ByLayer
 62
  256
370
   -1
100
AcDbLine
 10
131.04
 20
1.523e-013
 11
80.76999999999998
 21
-50.26999999999985
  0
LINE
  5
F3
100
AcDbEntity
  8
references
  6
ByLayer
 62
  256
370
   -1
100
AcDbLine
 10
-8.1e-015
 20
-1.928e-013
 11
50.26999999999999
 21
-50.27000000000023
  0
LINE
  5
F4
100
AcDbEntity
  8
references
  6
ByLayer
 62
  256
370
   -1
100
AcDbLine
 10
80.77000000000018
 20
-108.27
 11
131.0400000000002
 21
-158.5400000000001
  0
CIRCLE
  5
F5
100
AcDbEntity
  8
arms
  6
ByLayer
 62
  256
370
   -1
100
AcDbCircle
 10
131.0400000000002
 20
-158.5400000000001
 40
2.5
  0
LINE
  5
F6
100
AcDbEntity
  8
references
  6
ByLayer
 62
  256
370
   -1
100
AcDbLine
 10
131.0400000000002
 20
-138.5400000000001
 11
131.0400000000002
 21
-178.5400000000001
  0
LINE
  5
F7
100
AcDbEntity
  8
references
  6
ByLayer
 62
  256
370
   -1
100
AcDbLine
 10
151.0400000000002
 20
-158.5400000000001
 11
111.0400000000002
 21
-158.5400000000001
  0
LINE
  5
F8
100
AcDbEntity
  8
references
  6
ByLayer
 62
  256
370
   -1
100
AcDbLine
 10
151.0400000000002
 20
-158.5400000000001
 11
144.0400000000002
 21
-158.5400000000001
  0
LINE
  5
F9
100
AcDbEntity
  8
references
  6
ByLayer
 62
  256
370
   -1
100
AcDbLine
 10
118.0400000000002
 20
-158.5400000000001
 11
111.0400000000002
 21
-158.5400000000001
  0
LINE
  5
FA
100
AcDbEntity
  8
references
  6
ByLayer
 62
  256
370
   -1
100
AcDbLine
 10
131.0400000000002
 20
-171.5400000000001
 11
131.0400000000002
 21
-178.5400000000001
  0
LINE
  5
FB
100
AcDbEntity
  8
references
  6
ByLayer
 62
  256
370
   -1
100
AcDbLine
 10
131.0400000000002
 20
-138.5400000000001
 11
131.0400000000002
 21
-145.5400000000001
  0
CIRCLE
  5
FC
100
AcDbEntity
  8
references
  6
ByLayer
 62
  256
370
   -1
100
AcDbCircle
 10
131.0400000000002
 20
-142.0400000000001
 40
3.5
  0
CIRCLE
  5
FD
100
AcDbEntity
  8
references
  6
ByLayer
 62
  256
370
   -1
100
AcDbCircle
 10
114.5400000000002
 20
-158.5400000000001
 40
3.5
  0
CIRCLE
  5
FE
100
AcDbEntity
  8
references
  6
ByLayer
 62
  256
370
   -1
100
AcDbCircle
 10
131.0400000000002
 20
-175.0400000000001
 40
3.5
  0
CIRCLE
  5
FF
100
AcDbEntity
  8
references
  6
ByLayer
 62
  256
370
   -1
100
AcDbCircle
 10
147.5400000000002
 20
-158.5400000000001
 40
3.5
  0
CIRCLE
  5
100
100
AcDbEntity
  8
references
  6
ByLayer
 62
  256
370
   -1
100
AcDbCircle
 10
120.0400000000002
 20
-147.5400000000001
 40
4
  0
LINE
  5
101
100
AcDbEntity
  8
references
  6
ByLayer
 62
  256
370
   -1
100
AcDbLine
 10
138.5400000000002
 20
-158.5400000000001
 11
123.5400000000002
 21
-158.5400000000001
  0
CIRCLE
  5
102
100
AcDbEntity
  8
arms
  6
ByLayer
 62
  256
370
   -1
100
AcDbCircle
 10
123.5400000000002
 20
-158.5400000000001
 40
1.5
  0
CIRCLE
  5
103
100
AcDbEntity
  8
arms
  6
ByLayer
 62
  256
370
   -1
100
AcDbCircle
 10
138.5400000000002
 20
-158.5400000000001
 40
1.5
  0
LINE
  5
104
100
AcDbEntity
  8
references
  6
ByLayer
 62
  256
370
   -1
100
AcDbLine
 10
131.0400000000002
 20
-151.0400000000001
 11
131.0400000000002
 21
-166.0400000000001
  0
CIRCLE
  5
105
100
AcDbEntity
  8
arms
  6
ByLayer
 62
  256
370
   -1
100
AcDbCircle
 10
131.0400000000002
 20
-166.0400000000001
 40
1.5
  0
CIRCLE
  5
106
100
AcDbEntity
  8
arms
  6
ByLayer
 62
  256
370
   -1
100
AcDbCircle
 10
131.0400000000002
 20
-151.0400000000001
 40
1.5
  0
LINE
  5
107
100
AcDbEntity
  8
references
  6
ByLayer
 62
  256
370
   -1
100
AcDbLine
 10
138.5400000000002
 20
-154.5400000000001
 11
138.5400000000002
 21
-162.5400000000001
  0
LINE
  5
108
100
AcDbEntity
  8
references
  6
ByLayer
 62
  256
370
   -1
100
AcDbLine
 10
50.27000000000025
 20
-108.2700000000002
 11
2.162e-013
 21
-158.5400000000002
  0
CIRCLE
  5
109
100
AcDbEntity
  8
arms
  6
ByLayer
 62
  256
370
   -1
100
AcDbCircle
 10
2.132e-013
 20
-158.5400000000002
 40
2.5
  0
LINE
  5
10A
100
AcDbEntity
  8
references
  6
ByLayer
 62
  256
370
   -1
100
AcDbLine
 10
20.00000000000022
 20
-158.5400000000002
 11
-19.99999999999978
 21
-158.5400000000002
  0
LINE
  5
10B
100
AcDbEntity
  8
references
  6
ByLayer
 62
  256
370
   -1
100
AcDbLine
 10
2.175e-013
 20
-178.5400000000002
 11
2.15e-013
 21
-138.5400000000002
  0
LINE
  5
10C
100
AcDbEntity
  8
references
  6
ByLayer
 62
  256
370
   -1
100
AcDbLine
 10
2.175e-013
 20
-178.5400000000002
 11
2.17e-013
 21
-171.5400000000002
  0
LINE
  5
10D
100
AcDbEntity
  8
references
  6
ByLayer
 62
  256
370
   -1
100
AcDbLine
 10
2.154e-013
 20
-145.5400000000002
 11
2.15e-013
 21
-138.5400000000002
  0
LINE
  5
10E
100
AcDbEntity
  8
references
  6
ByLayer
 62
  256
370
   -1
100
AcDbLine
 10
-12.99999999999978
 20
-158.5400000000002
 11
-19.99999999999978
 21
-158.5400000000002
  0
LINE
  5
10F
100
AcDbEntity
  8
references
  6
ByLayer
 62
  256
370
   -1
100
AcDbLine
 10
20.00000000000022
 20
-158.5400000000002
 11
13.00000000000022
 21
-158.5400000000002
  0
CIRCLE
  5
110
100
AcDbEntity
  8
references
  6
ByLayer
 62
  256
370
   -1
100
AcDbCircle
 10
16.50000000000021
 20
-158.5400000000002
 40
3.5
  0
CIRCLE
  5
111
100
AcDbEntity
  8
references
  6
ByLayer
 62
  256
370
   -1
100
AcDbCircle
 10
2.132e-013
 20
-142.0400000000002
 40
3.5
  0
CIRCLE
  5
112
100
AcDbEntity
  8
references
  6
ByLayer
 62
  256
370
   -1
100
AcDbCircle
 10
-16.49999999999979
 20
-158.5400000000002
 40
3.5
  0
CIRCLE
  5
113
100
AcDbEntity
  8
references
  6
ByLayer
 62
  256
370
   -1
100
AcDbCircle
 10
2.203e-013
 20
-175.0400000000002
 40
3.5
  0
CIRCLE
  5
114
100
AcDbEntity
  8
references
  6
ByLayer
 62
  256
370
   -1
100
AcDbCircle
 10
11.00000000000021
 20
-147.5400000000002
 40
4
  0
LINE
  5
115
100
AcDbEntity
  8
references
  6
ByLayer
 62
  256
370
   -1
100
AcDbLine
 10
2.167e-013
 20
-166.0400000000002
 11
2.158e-013
 21
-151.0400000000002
  0
CIRCLE
  5
116
100
AcDbEntity
  8
arms
  6
ByLayer
 62
  256
370
   -1
100
AcDbCircle
 10
2.132e-013
 20
-151.0400000000002
 40
1.5
  0
CIRCLE
  5
117
100
AcDbEntity
  8
arms
  6
ByLayer
 62
  256
370
   -1
100
AcDbCircle
 10
2.132e-013
 20
-166.0400000000002
 40
1.5
  0
LINE
  5
118
100
AcDbEntity
  8
references
  6
ByLayer
 62
  256
370
   -1
100
AcDbLine
 10
7.500000000000216
 20
-158.5400000000002
 11
-7.499999999999784
 21
-158.5400000000002
  0
CIRCLE
  5
119
100
AcDbEntity
  8
arms
  6
ByLayer
 62
  256
370
   -1
100
AcDbCircle
 10
-7.499999999999787
 20
-158.5400000000002
 40
1.5
  0
CIRCLE
  5
11A
100
AcDbEntity
  8
arms
  6
ByLayer
 62
  256
370
   -1
100
AcDbCircle
 10
7.500000000000213
 20
-158.5400000000002
 40
1.5
  0
LINE
  5
11B
100
AcDbEntity
  8
references
  6
ByLayer
 62
  256
370
   -1
100
AcDbLine
 10
4.000000000000217
 20
-166.0400000000002
 11
-3.999999999999783
 21
-166.0400000000002
  0
CIRCLE
  5
11C
100
AcDbEntity
  8
motors
  6
ByLayer
 62
  256
370
   -1
100
AcDbCircle
 10
131.0400000000002
 20
-158.5400000000001
 40
11.5
  0
CIRCLE
  5
11D
100
AcDbEntity
  8
motors
  6
ByLayer
 62
  256
370
   -1
100
AcDbCircle
 10
2.274e-013
 20
-158.5400000000002
 40
11.5
  0
CIRCLE
  5
11E
100
AcDbEntity
  8
arms
  6
ByLayer
 62
  256
370
   -1
100
AcDbCircle
 10
131.04
 20
1.523e-013
 40
2.5
  0
LINE
  5
11F
100
AcDbEntity
  8
references
  6
ByLayer
 62
  256
370
   -1
100
AcDbLine
 10
111.04
 20
1.511e-013
 11
151.04
 21
1.535e-013
  0
LINE
  5
120
100
AcDbEntity
  8
references
  6
ByLayer
 62
  256
370
   -1
100
AcDbLine
 10
131.04
 20
20.00000000000015
 11
131.04
 21
-19.99999999999985
  0
LINE
  5
121
100
AcDbEntity
  8
references
  6
ByLayer
 62
  256
370
   -1
100
AcDbLine
 10
131.04
 20
20.00000000000015
 11
131.04
 21
13.00000000000015
  0
LINE
  5
122
100
AcDbEntity
  8
references
  6
ByLayer
 62
  256
370
   -1
100
AcDbLine
 10
131.04
 20
-12.99999999999985
 11
131.04
 21
-19.99999999999985
  0
LINE
  5
123
100
AcDbEntity
  8
references
  6
ByLayer
 62
  256
370
   -1
100
AcDbLine
 10
144.04
 20
1.531e-013
 11
151.04
 21
1.535e-013
  0
LINE
  5
124
100
AcDbEntity
  8
references
  6
ByLayer
 62
  256
370
   -1
100
AcDbLine
 10
111.04
 20
1.511e-013
 11
118.04
 21
1.515e-013
  0
CIRCLE
  5
125
100
AcDbEntity
  8
references
  6
ByLayer
 62
  256
370
   -1
100
AcDbCircle
 10
114.54
 20
1.513e-013
 40
3.5
  0
CIRCLE
  5
126
100
AcDbEntity
  8
references
  6
ByLayer
 62
  256
370
   -1
100
AcDbCircle
 10
131.04
 20
-16.49999999999985
 40
3.5
  0
CIRCLE
  5
127
100
AcDbEntity
  8
references
  6
ByLayer
 62
  256
370
   -1
100
AcDbCircle
 10
147.54
 20
1.533e-013
 40
3.5
  0
CIRCLE
  5
128
100
AcDbEntity
  8
references
  6
ByLayer
 62
  256
370
   -1
100
AcDbCircle
 10
131.04
 20
16.50000000000015
 40
3.5
  0
CIRCLE
  5
129
100
AcDbEntity
  8
references
  6
ByLayer
 62
  256
370
   -1
100
AcDbCircle
 10
120.04
 20
-10.99999999999985
 40
4
  0
LINE
  5
12A
100
AcDbEntity
  8
references
  6
ByLayer
 62
  256
370
   -1
100
AcDbLine
 10
131.04
 20
7.500000000000153
 11
131.04
 21
-7.499999999999847
  0
CIRCLE
  5
12B
100
AcDbEntity
  8
arms
  6
ByLayer
 62
  256
370
   -1
100
AcDbCircle
 10
131.04
 20
-7.499999999999847
 40
1.5
  0
CIRCLE
  5
12C
100
AcDbEntity
  8
arms
  6
ByLayer
 62
  256
370
   -1
100
AcDbCircle
 10
131.04
 20
7.500000000000153
 40
1.5
  0
LINE
  5
12D
100
AcDbEntity
  8
references
  6
ByLayer
 62
  256
370
   -1
100
AcDbLine
 10
123.54
 20
1.519e-013
 11
138.54
 21
1.528e-013
  0
CIRCLE
  5
12E
100
AcDbEntity
  8
arms
  6
ByLayer
 62
  256
370
   -1
100
AcDbCircle
 10
138.54
 20
1.528e-013
 40
1.5
  0
CIRCLE
  5
12F
100
AcDbEntity
  8
arms
  6
ByLayer
 62
  256
370
   -1
100
AcDbCircle
 10
123.54
 20
1.519e-013
 40
1.5
  0
LINE
  5
130
100
AcDbEntity
  8
references
  6
ByLayer
 62
  256
370
   -1
100
AcDbLine
 10
127.04
 20
7.500000000000153
 11
135.04
 21
7.500000000000153
  0
CIRCLE
  5
131
100
AcDbEntity
  8
motors
  6
ByLayer
 62
  256
370
   -1
100
AcDbCircle
 10
131.04
 20
1.523e-013
 40
11.5
  0
LINE
  5
132
100
AcDbEntity
  8
references
  6
ByLayer
 62
  256
370
   -1
100
AcDbLine
 10
138.54
 20
-3.999999999999847
 11
138.54
 21
4.000000000000153
  0
LINE
  5
133
100
AcDbEntity
  8
reinforcement
  6
ByLayer
 62
  256
370
   -1
100
AcDbLine
 10
138.54
 20
4.000000000000153
 11
-7.499999999999999
 21
4
  0
LINE
  5
134
100
AcDbEntity
  8
reinforcement
  6
ByLayer
 62
  256
370
   -1
100
AcDbLine
 10
-7.5
 20
-4
 11
138.54
 21
-3.999999999999847
  0
ARC
  5
135
100
AcDbEntity
  8
reinforcement
  6
ByLayer
 62
  256
370
   -1
100
AcDbCircle
 10
138.54
 20
1.528e-013
 40
4
100
AcDbArc
 50
270
 51
90
  0
CIRCLE
  5
136
100
AcDbEntity
  8
reinforcement
  6
ByLayer
 62
  256
370
   -1
100
AcDbCircle
 10
138.54
 20
1.528e-013
 40
1.5
  0
CIRCLE
  5
137
100
AcDbEntity
  8
reinforcement
  6
ByLayer
 62
  256
370
   -1
100
AcDbCircle
 10
123.54
 20
1.519e-013
 40
1.5
  0
ARC
  5
138
100
AcDbEntity
  8
reinforcement
  6
ByLayer
 62
  256
370
   -1
100
AcDbCircle
 10
-7.499999999999784
 20
-158.5400000000002
 40
4
100
AcDbArc
 50
89.99999999999999
 51
270
  0
CIRCLE
  5
139
100
AcDbEntity
  8
reinforcement
  6
ByLayer
 62
  256
370
   -1
100
AcDbCircle
 10
-7.499999999999784
 20
-158.5400000000002
 40
1.5
  0
CIRCLE
  5
13A
100
AcDbEntity
  8
reinforcement
  6
ByLayer
 62
  256
370
   -1
100
AcDbCircle
 10
7.500000000000216
 20
-158.5400000000002
 40
1.5
  0
LINE
  5
13B
100
AcDbEntity
  8
reinforcement
  6
ByLayer
 62
  256
370
   -1
100
AcDbLine
 10
138.5400000000002
 20
-154.54
 11
-7.499999999999783
 21
-154.5400000000002
  0
LINE
  5
13C
100
AcDbEntity
  8
reinforcement
  6
ByLayer
 62
  256
370
   -1
100
AcDbLine
 10
-7.499999999999784
 20
-162.5400000000002
 11
138.5400000000002
 21
-162.54
  0
ARC
  5
13D
100
AcDbEntity
  8
reinforcement
  6
ByLayer
 62
  256
370
   -1
100
AcDbCircle
 10
138.5400000000002
 20
-158.54
 40
4
100
AcDbArc
 50
270
 51
90
  0
CIRCLE
  5
13E
100
AcDbEntity
  8
reinforcement
  6
ByLayer
 62
  256
370
   -1
100
AcDbCircle
 10
138.5400000000002
 20
-158.54
 40
1.5
  0
CIRCLE
  5
13F
100
AcDbEntity
  8
reinforcement
  6
ByLayer
 62
  256
370
   -1
100
AcDbCircle
 10
123.5400000000002
 20
-158.54
 40
1.5
  0
ENDSEC
  0
SECTION
  2
OBJECTS
  0
DICTIONARY
  5
C
330
0
100
AcDbDictionary
281
    1
  3
ACAD_GROUP
350
D
  0
DICTIONARY
  5
D
330
C
100
AcDbDictionary
281
    1
  0
ENDSEC
  0
EOF
